<svg width="40" height="40" viewBox="0 0 40 40" fill="none" xmlns="http://www.w3.org/2000/svg">
<g clip-path="url(#clip0_82_267)">
<path fill-rule="evenodd" clip-rule="evenodd" d="M5.85787 5.85787C9.6086 2.10713 14.6957 0 20 0C25.3043 0 30.3913 2.10713 34.1422 5.85787C37.8928 9.6086 40 14.6957 40 20C40 25.3043 37.8928 30.3913 34.1422 34.1422C30.3913 37.8928 25.3043 40 20 40C14.6957 40 9.6086 37.8928 5.85787 34.1422C2.10713 30.3913 0 25.3043 0 20C0 14.6957 2.10713 9.6086 5.85787 5.85787ZM8.21488 31.7852C7.5779 31.1482 6.9978 30.4648 6.47785 29.7433C8.95103 28.471 13.5884 26.6667 19.9998 26.6667C26.4115 26.6667 31.049 28.471 33.5222 29.7433C33.0022 30.465 32.422 31.1482 31.7852 31.7852C28.6595 34.9107 24.4203 36.6667 20 36.6667C15.5797 36.6667 11.3405 34.9107 8.21488 31.7852ZM27.5 15.8333C27.5 19.9755 24.1422 23.3333 20 23.3333C15.8579 23.3333 12.5 19.9755 12.5 15.8333C12.5 11.6912 15.8579 8.33333 20 8.33333C24.1422 8.33333 27.5 11.6912 27.5 15.8333ZM16.6697 15.8333H19.9973L19.998 15.8316L20 15.8307L20.0017 15.8312L20.0027 15.8333H23.3303C23.3303 17.6727 21.8393 19.1637 20 19.1637C18.1607 19.1637 16.6697 17.6727 16.6697 15.8333ZM20.0017 15.8312C20.0015 15.8311 20.0017 15.8313 20.0017 15.8312V15.8312ZM19.998 15.8316C19.998 15.8316 19.9983 15.831 19.998 15.8316V15.8316Z" fill="#B1B1B1"/>
</g>
<defs>
<clipPath id="clip0_82_267">
<rect width="40" height="40" fill="white"/>
</clipPath>
</defs>
</svg>
