<svg width="20" height="20" viewBox="0 0 20 20" fill="none" xmlns="http://www.w3.org/2000/svg">
<g clip-path="url(#clip0_119_1136)">
<path d="M20.0004 19.1665C20.0004 19.3875 19.9126 19.5994 19.7563 19.7557C19.6 19.912 19.388 19.9998 19.167 19.9998H0.8337C0.612686 19.9998 0.400724 19.912 0.244444 19.7557C0.0881638 19.5994 0.000366386 19.3875 0.000366386 19.1665C0.000366386 18.9455 0.0881638 18.7335 0.244444 18.5772C0.400724 18.4209 0.612686 18.3331 0.8337 18.3331H19.167C19.388 18.3331 19.6 18.4209 19.7563 18.5772C19.9126 18.7335 20.0004 18.9455 20.0004 19.1665ZM0.242866 7.12647C0.0633016 6.79341 -0.0198881 6.41689 0.00263341 6.03918C0.0251549 5.66146 0.152496 5.2975 0.370366 4.98814C0.726415 4.46573 1.20324 4.03694 1.76037 3.73814L8.0112 0.484802C8.62559 0.165328 9.30788 -0.00146484 10.0004 -0.00146484C10.6929 -0.00146484 11.3751 0.165328 11.9895 0.484802L18.2395 3.74064C18.7967 4.03944 19.2735 4.46823 19.6295 4.99064C19.8474 5.3 19.9747 5.66396 19.9973 6.04168C20.0198 6.41939 19.9366 6.79591 19.757 7.12897C19.5637 7.49466 19.2738 7.8003 18.9188 8.01263C18.5638 8.22495 18.1573 8.33581 17.7437 8.33314H17.5004V14.9998H18.3337C18.5547 14.9998 18.7667 15.0876 18.923 15.2439C19.0792 15.4002 19.167 15.6121 19.167 15.8331C19.167 16.0541 19.0792 16.2661 18.923 16.4224C18.7667 16.5787 18.5547 16.6665 18.3337 16.6665H1.66703C1.44602 16.6665 1.23406 16.5787 1.07778 16.4224C0.921497 16.2661 0.8337 16.0541 0.8337 15.8331C0.8337 15.6121 0.921497 15.4002 1.07778 15.2439C1.23406 15.0876 1.44602 14.9998 1.66703 14.9998H2.50037V8.33314H2.25703C1.843 8.33572 1.4362 8.22456 1.08102 8.01177C0.725843 7.79899 0.435915 7.49275 0.242866 7.12647ZM4.16703 14.9998H6.66703V8.33314H4.16703V14.9998ZM8.3337 8.33314V14.9998H11.667V8.33314H8.3337ZM15.8337 8.33314H13.3337V14.9998H15.8337V8.33314ZM1.71953 6.35397C1.77182 6.45037 1.84963 6.53052 1.94443 6.58564C2.03924 6.64076 2.14739 6.66872 2.25703 6.66647H17.7437C17.8533 6.66872 17.9615 6.64076 18.0563 6.58564C18.1511 6.53052 18.2289 6.45037 18.2812 6.35397C18.3193 6.29027 18.3377 6.21674 18.3341 6.14261C18.3306 6.06848 18.3052 5.99706 18.2612 5.9373C18.0593 5.63723 17.788 5.39025 17.4704 5.2173L11.2204 1.96147C10.8437 1.76599 10.4256 1.66395 10.0012 1.66395C9.57684 1.66395 9.15869 1.76599 8.78203 1.96147L2.53203 5.2173C2.21452 5.39081 1.94331 5.63802 1.7412 5.93814C1.69711 5.99764 1.67154 6.06883 1.66768 6.14279C1.66383 6.21675 1.68186 6.2902 1.71953 6.35397Z" fill="#1E3350"/>
</g>
<defs>
<clipPath id="clip0_119_1136">
<rect width="20" height="20" fill="white"/>
</clipPath>
</defs>
</svg>
