<svg width="24" height="25" viewBox="0 0 24 25" fill="none" xmlns="http://www.w3.org/2000/svg">
<path d="M22 5.35018V17.2402C22 18.2102 21.21 19.1002 20.24 19.2202L19.93 19.2602C18.29 19.4802 15.98 20.1602 14.12 20.9402C13.47 21.2102 12.75 20.7202 12.75 20.0102V6.10018C12.75 5.73018 12.96 5.39018 13.29 5.21018C15.12 4.22018 17.89 3.34018 19.77 3.18018H19.83C21.03 3.18018 22 4.15018 22 5.35018Z" fill="#606CBF"/>
<path d="M10.71 5.21018C8.87999 4.22018 6.10999 3.34018 4.22999 3.18018H4.15999C2.95999 3.18018 1.98999 4.15018 1.98999 5.35018V17.2402C1.98999 18.2102 2.77999 19.1002 3.74999 19.2202L4.05999 19.2602C5.69999 19.4802 8.00999 20.1602 9.86999 20.9402C10.52 21.2102 11.24 20.7202 11.24 20.0102V6.10018C11.24 5.72018 11.04 5.39018 10.71 5.21018ZM4.99999 8.24018H7.24999C7.65999 8.24018 7.99999 8.58018 7.99999 8.99018C7.99999 9.41018 7.65999 9.74018 7.24999 9.74018H4.99999C4.58999 9.74018 4.24999 9.41018 4.24999 8.99018C4.24999 8.58018 4.58999 8.24018 4.99999 8.24018ZM7.99999 12.7402H4.99999C4.58999 12.7402 4.24999 12.4102 4.24999 11.9902C4.24999 11.5802 4.58999 11.2402 4.99999 11.2402H7.99999C8.40999 11.2402 8.74999 11.5802 8.74999 11.9902C8.74999 12.4102 8.40999 12.7402 7.99999 12.7402Z" fill="#606CBF"/>
</svg>
