<svg width="23" height="25" viewBox="0 0 23 25" fill="none" xmlns="http://www.w3.org/2000/svg">
<path d="M22.4438 6.55559C22.3007 4.17583 20.3136 2.31142 17.9203 2.31142H16.7551V1.40571C16.7551 1.1655 16.6596 0.935131 16.4898 0.765277C16.3199 0.595423 16.0896 0.5 15.8493 0.5C15.6091 0.5 15.3788 0.595423 15.2089 0.765277C15.0391 0.935131 14.9436 1.1655 14.9436 1.40571V2.31142H7.69794V1.40571C7.69794 1.1655 7.60251 0.935131 7.43266 0.765277C7.26281 0.595423 7.03243 0.5 6.79223 0.5C6.55202 0.5 6.32164 0.595423 6.15179 0.765277C5.98194 0.935131 5.88651 1.1655 5.88651 1.40571V2.31142H4.72132C2.32752 2.31142 0.340389 4.17583 0.19774 6.55559C-0.0708039 11.0316 -0.0658225 15.5719 0.212684 20.0502C0.353975 22.3245 2.17581 24.1463 4.45005 24.2876C6.72928 24.4294 9.02481 24.5 11.3203 24.5C13.6154 24.5 15.9114 24.4294 18.1906 24.2876C20.4648 24.1463 22.2867 22.3245 22.428 20.0502C22.7069 15.5742 22.7119 11.0343 22.4438 6.55559ZM20.6206 19.9379C20.5787 20.5983 20.2974 21.2208 19.8295 21.6887C19.3616 22.1566 18.7391 22.4378 18.0788 22.4798C13.5946 22.7583 9.04699 22.7583 4.56282 22.4798C3.90243 22.4378 3.27999 22.1566 2.81209 21.6887C2.34418 21.2208 2.0629 20.5983 2.02094 19.9379C1.80865 16.4819 1.76074 13.0177 1.87738 9.55712H20.7646C20.8788 13.0169 20.8348 16.4962 20.6206 19.9379ZM6.79223 5.93427C7.03243 5.93427 7.26281 5.83885 7.43266 5.66899C7.60251 5.49914 7.69794 5.26877 7.69794 5.02856V4.12285H14.9436V5.02856C14.9436 5.26877 15.0391 5.49914 15.2089 5.66899C15.3788 5.83885 15.6091 5.93427 15.8493 5.93427C16.0896 5.93427 16.3199 5.83885 16.4898 5.66899C16.6596 5.49914 16.7551 5.26877 16.7551 5.02856V4.12285H17.9203C19.3572 4.12285 20.55 5.23914 20.6356 6.66382C20.6569 7.02339 20.6659 7.38522 20.6836 7.74569H1.95799C1.9761 7.38522 1.98471 7.02339 2.00599 6.66382C2.09158 5.23914 3.28395 4.12285 4.72132 4.12285H5.88651V5.02856C5.88651 5.26877 5.98194 5.49914 6.15179 5.66899C6.32164 5.83885 6.55202 5.93427 6.79223 5.93427Z" fill="black" fill-opacity="0.6"/>
<path d="M6.79216 14.9914C7.54248 14.9914 8.15073 14.3832 8.15073 13.6329C8.15073 12.8825 7.54248 12.2743 6.79216 12.2743C6.04185 12.2743 5.43359 12.8825 5.43359 13.6329C5.43359 14.3832 6.04185 14.9914 6.79216 14.9914Z" fill="black" fill-opacity="0.6"/>
<path d="M11.321 14.9914C12.0713 14.9914 12.6795 14.3832 12.6795 13.6329C12.6795 12.8825 12.0713 12.2743 11.321 12.2743C10.5707 12.2743 9.9624 12.8825 9.9624 13.6329C9.9624 14.3832 10.5707 14.9914 11.321 14.9914Z" fill="black" fill-opacity="0.6"/>
<path d="M6.79216 19.52C7.54248 19.52 8.15073 18.9117 8.15073 18.1614C8.15073 17.4111 7.54248 16.8029 6.79216 16.8029C6.04185 16.8029 5.43359 17.4111 5.43359 18.1614C5.43359 18.9117 6.04185 19.52 6.79216 19.52Z" fill="black" fill-opacity="0.6"/>
<path d="M15.8493 14.9914C16.5996 14.9914 17.2079 14.3832 17.2079 13.6329C17.2079 12.8825 16.5996 12.2743 15.8493 12.2743C15.099 12.2743 14.4907 12.8825 14.4907 13.6329C14.4907 14.3832 15.099 14.9914 15.8493 14.9914Z" fill="black" fill-opacity="0.6"/>
<path d="M15.8493 19.52C16.5996 19.52 17.2079 18.9117 17.2079 18.1614C17.2079 17.4111 16.5996 16.8029 15.8493 16.8029C15.099 16.8029 14.4907 17.4111 14.4907 18.1614C14.4907 18.9117 15.099 19.52 15.8493 19.52Z" fill="black" fill-opacity="0.6"/>
<path d="M11.321 19.52C12.0713 19.52 12.6795 18.9117 12.6795 18.1614C12.6795 17.4111 12.0713 16.8029 11.321 16.8029C10.5707 16.8029 9.9624 17.4111 9.9624 18.1614C9.9624 18.9117 10.5707 19.52 11.321 19.52Z" fill="black" fill-opacity="0.6"/>
</svg>
