<svg width="16" height="16" viewBox="0 0 16 16" fill="none" xmlns="http://www.w3.org/2000/svg">
<path d="M11.9999 4.00016C11.5933 4.00016 11.2199 3.76683 11.0333 3.40683L10.5533 2.44016C10.2466 1.8335 9.44662 1.3335 8.76662 1.3335H7.23995C6.55328 1.3335 5.75328 1.8335 5.44662 2.44016L4.96662 3.40683C4.77995 3.76683 4.40662 4.00016 3.99995 4.00016C2.55328 4.00016 1.40662 5.22016 1.49995 6.66016L1.84662 12.1668C1.92662 13.5402 2.66662 14.6668 4.50662 14.6668H11.4933C13.3333 14.6668 14.0666 13.5402 14.1533 12.1668L14.4999 6.66016C14.5933 5.22016 13.4466 4.00016 11.9999 4.00016ZM6.99995 4.8335H8.99995C9.27328 4.8335 9.49995 5.06016 9.49995 5.3335C9.49995 5.60683 9.27328 5.8335 8.99995 5.8335H6.99995C6.72662 5.8335 6.49995 5.60683 6.49995 5.3335C6.49995 5.06016 6.72662 4.8335 6.99995 4.8335ZM7.99995 12.0802C6.75995 12.0802 5.74662 11.0735 5.74662 9.82683C5.74662 8.58016 6.75328 7.5735 7.99995 7.5735C9.24662 7.5735 10.2533 8.58016 10.2533 9.82683C10.2533 11.0735 9.23995 12.0802 7.99995 12.0802Z" fill="white"/>
</svg>
