<svg width="20" height="20" viewBox="0 0 20 20" fill="none" xmlns="http://www.w3.org/2000/svg">
<g clip-path="url(#clip0_119_1140)">
<path d="M7.08333 10H2.5V4.97083C2.5 4.69583 2.53 4.4275 2.58667 4.16667H8.33333V7.91667C8.33333 8.14667 8.52 8.33333 8.75 8.33333C8.98 8.33333 9.16667 8.14667 9.16667 7.91667V4.16667H14.9133C14.97 4.42667 15 4.69583 15 4.97083V6.25C15 6.48 15.1867 6.66667 15.4167 6.66667C15.6467 6.66667 15.8333 6.48 15.8333 6.25V4.97083C15.8333 2.91917 14.4708 1.1075 12.5192 0.565C11.1683 0.19 9.9 0 8.75 0C7.6 0 6.33167 0.19 4.98083 0.565C3.02917 1.1075 1.66667 2.91917 1.66667 4.97083V6.66667C0.7475 6.66667 0 7.41417 0 8.33333V9.16667C0 10.0858 0.7475 10.8333 1.66667 10.8333V13.75C1.66667 14.7558 2.38333 15.5975 3.33333 15.7917V16.6667C3.33333 17.5858 4.08083 18.3333 5 18.3333C5.705 18.3333 6.33667 17.8867 6.57167 17.2225C6.64833 17.0058 6.535 16.7675 6.3175 16.6908C6.1025 16.6133 5.8625 16.7275 5.78583 16.945C5.66833 17.2767 5.35167 17.5008 5 17.5008C4.54083 17.5008 4.16667 17.1267 4.16667 16.6675V15.8342H5.41667C5.64667 15.8342 5.83333 15.6475 5.83333 15.4175C5.83333 15.1875 5.64667 15.0008 5.41667 15.0008H3.75C3.06083 15.0008 2.5 14.44 2.5 13.7508V10.8342H7.08333C7.31333 10.8342 7.5 10.6475 7.5 10.4175C7.5 10.1875 7.31333 10.0008 7.08333 10.0008V10ZM5.20417 1.36833C6.4825 1.01333 7.675 0.833333 8.75 0.833333C9.825 0.833333 11.0183 1.01333 12.2958 1.36833C13.3367 1.6575 14.1725 2.39083 14.6258 3.33333H2.87333C3.3275 2.39083 4.16333 1.6575 5.20417 1.36833ZM0.833333 9.16667V8.33333C0.833333 7.87417 1.2075 7.5 1.66667 7.5V10C1.2075 10 0.833333 9.62583 0.833333 9.16667ZM20 16.1708C20 15.07 19.8125 13.985 19.4417 12.9475L18.6825 10.8217C18.1508 9.33333 16.7317 8.33333 15.1508 8.33333H12.3492C10.7692 8.33333 9.34917 9.33333 8.8175 10.8225L8.05833 12.9483C7.6875 13.9858 7.5 15.07 7.5 16.25C7.5 17.2558 8.21667 18.0975 9.16667 18.2917V18.75C9.16667 19.4392 9.7275 20 10.4167 20C11.1058 20 11.6667 19.4392 11.6667 18.75V18.3333H15.8333V18.75C15.8333 19.4392 16.3942 20 17.0833 20C17.7725 20 18.3333 19.4392 18.3333 18.75V18.2908C19.2833 18.0958 20 17.2458 20 16.1708ZM9.60167 11.1025C10.0158 9.94417 11.1192 9.16667 12.3483 9.16667H15.15C16.3792 9.16667 17.4833 9.945 17.8967 11.1025C17.8967 11.1025 18.68 13.2983 18.6925 13.3333H8.80667C8.81833 13.2983 9.60167 11.1025 9.60167 11.1025ZM17.9167 17.5H9.58333C8.89417 17.5 8.33333 16.9392 8.33333 16.1708C8.33333 15.4925 8.41167 14.8217 8.56583 14.1667H10.8333V15.4167C10.8333 15.6467 11.02 15.8333 11.25 15.8333C11.48 15.8333 11.6667 15.6467 11.6667 15.4167V14.1667H15.8333V15.4167C15.8333 15.6467 16.02 15.8333 16.25 15.8333C16.48 15.8333 16.6667 15.6467 16.6667 15.4167V14.1667H18.9333C19.0883 14.8292 19.1667 15.5175 19.1667 16.25C19.1667 16.9392 18.6058 17.5 17.9167 17.5Z" fill="#1E3350"/>
</g>
<defs>
<clipPath id="clip0_119_1140">
<rect width="20" height="20" fill="white"/>
</clipPath>
</defs>
</svg>
