<svg width="54" height="54" viewBox="0 0 54 54" fill="none" xmlns="http://www.w3.org/2000/svg">
<path d="M19.2948 28.3566H35.2454C35.3618 28.3566 35.477 28.3337 35.5845 28.2891C35.6921 28.2446 35.7897 28.1793 35.872 28.097C35.9543 28.0147 36.0196 27.9171 36.0641 27.8095C36.1087 27.702 36.1316 27.5868 36.1316 27.4704V7.97526C36.1316 7.85888 36.1087 7.74365 36.0641 7.63614C36.0196 7.52863 35.9543 7.43094 35.872 7.34865C35.7897 7.26636 35.6921 7.20109 35.5845 7.15656C35.477 7.11203 35.3618 7.08911 35.2454 7.08911H19.2948C19.1785 7.08911 19.0632 7.11203 18.9557 7.15656C18.8482 7.20109 18.7505 7.26636 18.6682 7.34865C18.5859 7.43094 18.5207 7.52863 18.4761 7.63614C18.4316 7.74365 18.4087 7.85888 18.4087 7.97526V27.4704C18.4087 27.5868 18.4316 27.702 18.4761 27.8095C18.5207 27.9171 18.5859 28.0147 18.6682 28.097C18.7505 28.1793 18.8482 28.2446 18.9557 28.2891C19.0632 28.3337 19.1785 28.3566 19.2948 28.3566ZM26.3385 18.3288L25.5888 16.0797C25.5285 15.899 25.4978 15.7097 25.4978 15.5192V14.1783C25.4978 13.7082 25.6846 13.2574 26.0169 12.9251C26.3493 12.5927 26.8001 12.406 27.2701 12.406C27.7402 12.406 28.191 12.5927 28.5233 12.9251C28.8557 13.2574 29.0424 13.7082 29.0424 14.1783V15.5192C29.0425 15.7097 29.0118 15.8989 28.9515 16.0796L28.2018 18.3288C28.1343 18.5311 28.1421 18.751 28.2237 18.9481C28.3054 19.1452 28.4553 19.3062 28.6461 19.4016L30.494 20.3255C30.8857 20.5209 31.223 20.8101 31.4758 21.1674C31.7287 21.5248 31.8891 21.9391 31.943 22.3735L32.4694 26.5843H22.0709L22.5973 22.3735C22.6511 21.9391 22.8116 21.5248 23.0644 21.1674C23.3173 20.8101 23.6546 20.5209 24.0463 20.3255L25.8941 19.4016C26.0849 19.3062 26.2349 19.1452 26.3165 18.9481C26.3982 18.751 26.406 18.5311 26.3385 18.3288ZM20.181 8.8614H34.3593V26.5843H34.2554L33.7015 22.1537C33.6118 21.4297 33.3444 20.7391 32.923 20.1435C32.5016 19.548 31.9394 19.0659 31.2866 18.7404L30.1261 18.1601L30.6329 16.6399C30.7534 16.2786 30.8148 15.9001 30.8147 15.5192V14.1783C30.8147 13.2382 30.4413 12.3366 29.7765 11.6719C29.1118 11.0071 28.2102 10.6337 27.2701 10.6337C26.3301 10.6337 25.4285 11.0071 24.7637 11.6719C24.099 12.3366 23.7256 13.2382 23.7256 14.1783V15.5192C23.7254 15.9001 23.7869 16.2786 23.9074 16.64L24.4141 18.1601L23.2537 18.7404C22.6008 19.0659 22.0386 19.548 21.6172 20.1435C21.1959 20.7391 20.9284 21.4297 20.8387 22.1537L20.2849 26.5843H20.181V8.8614Z" fill="#5FC1CF"/>
<path d="M22.8394 30.1289H31.7008V31.9012H22.8394V30.1289Z" fill="#5FC1CF"/>
<path d="M18.4087 33.6736H21.9533V35.4459H18.4087V33.6736Z" fill="#5FC1CF"/>
<path d="M23.7256 33.6736H30.8147V35.4459H23.7256V33.6736Z" fill="#5FC1CF"/>
<path d="M18.4087 38.1042H21.9533V39.8765H18.4087V38.1042Z" fill="#5FC1CF"/>
<path d="M23.7256 38.1042H29.0425V39.8765H23.7256V38.1042Z" fill="#5FC1CF"/>
<path d="M18.4087 42.5349H21.9533V44.3072H18.4087V42.5349Z" fill="#5FC1CF"/>
<path d="M23.7256 42.5349H29.0425V44.3072H23.7256V42.5349Z" fill="#5FC1CF"/>
<path d="M42.3346 30.1289V2.65843C42.3338 1.95362 42.0535 1.27791 41.5551 0.779527C41.0567 0.281149 40.381 0.000806213 39.6762 0H14.8642C14.1594 0.000806213 13.4836 0.281149 12.9853 0.779527C12.4869 1.27791 12.2065 1.95362 12.2057 2.65843V18.6099C12.0528 18.6096 11.9023 18.6491 11.7692 18.7243C11.636 18.7996 11.5246 18.9081 11.4459 19.0393L6.80049 26.7816C6.25903 27.6846 6.05657 28.7509 6.22935 29.7896L7.52303 37.5518C7.58522 37.9251 7.56702 38.3073 7.46964 38.673C7.37225 39.0387 7.19793 39.3794 6.95832 39.6723L0 48.1768L1.37173 49.2991L8.32999 40.7945C8.72937 40.3064 9.01992 39.7386 9.18224 39.1291C9.34455 38.5197 9.37488 37.8826 9.27119 37.2605L7.97751 29.4982C7.87383 28.875 7.99531 28.2353 8.3202 27.6935L12.5097 20.711L13.0853 21.0563C13.3882 21.238 13.6518 21.4783 13.8607 21.763C14.0697 22.0477 14.2198 22.3712 14.3024 22.7146C14.3849 23.058 14.3982 23.4144 14.3415 23.763C14.2847 24.1116 14.1591 24.4454 13.9719 24.7449L11.8534 28.1345C11.6647 28.4378 11.5388 28.7758 11.4831 29.1285C11.4273 29.4813 11.4428 29.8416 11.5287 30.1883L12.2057 32.8964V45.1933C12.2065 45.7821 12.4024 46.3541 12.7627 46.8197C13.123 47.2854 13.6275 47.6185 14.1973 47.767C13.5883 48.0539 13.053 48.4763 12.6321 49.0018L9.74147 52.6151L11.1254 53.7222L14.0161 50.1088C14.336 49.7085 14.765 49.4093 15.2513 49.2476L19.4386 47.8518H32.6312C33.7084 49.5368 35.2058 50.9123 36.9759 51.8429C38.7461 52.7735 40.7281 53.2272 42.7269 53.1594C44.7256 53.0915 46.6723 52.5044 48.3752 51.4558C50.0782 50.4072 51.4788 48.9333 52.4393 47.1791C53.3997 45.4249 53.8869 43.4509 53.8528 41.4513C53.8188 39.4517 53.2647 37.4954 52.2451 35.7749C51.2254 34.0544 49.7754 32.6291 48.0377 31.6391C46.3 30.6491 44.3345 30.1287 42.3346 30.1289ZM20.181 1.77229H34.3593V2.65843C34.3591 2.89337 34.2656 3.11861 34.0995 3.28473C33.9334 3.45086 33.7081 3.54431 33.4732 3.54458H21.0672C20.8322 3.54431 20.607 3.45086 20.4409 3.28473C20.2747 3.11861 20.1813 2.89337 20.181 2.65843V1.77229ZM14.8642 46.0795C14.6292 46.0792 14.404 45.9858 14.2379 45.8196C14.0717 45.6535 13.9783 45.4283 13.978 45.1933V32.7873C13.978 32.7149 13.9691 32.6427 13.9516 32.5724L13.2481 29.7584C13.2194 29.6429 13.2143 29.5227 13.2329 29.4052C13.2515 29.2876 13.2934 29.1749 13.3563 29.0738L15.4749 25.6842C15.7868 25.1851 15.9962 24.6287 16.0908 24.0477C16.1853 23.4668 16.1632 22.8727 16.0256 22.3004C15.888 21.7281 15.6378 21.1889 15.2895 20.7144C14.9412 20.2398 14.5019 19.8394 13.9971 19.5366L13.978 19.5251V2.65843C13.9783 2.42349 14.0717 2.19826 14.2379 2.03213C14.404 1.866 14.6292 1.77256 14.8642 1.77229H18.4087V2.65843C18.4095 3.36325 18.6899 4.03898 19.1883 4.53736C19.6866 5.03574 20.3624 5.31608 21.0672 5.31686H33.4732C34.178 5.31608 34.8537 5.03574 35.3521 4.53736C35.8505 4.03898 36.1308 3.36325 36.1316 2.65843V1.77229H39.6762C39.9111 1.77256 40.1364 1.866 40.3025 2.03213C40.4686 2.19826 40.5621 2.42349 40.5623 2.65843V30.2653C38.8369 30.5338 37.1951 31.1912 35.7611 32.1876C34.3271 33.184 33.1383 34.4934 32.2848 36.0168C31.4312 37.5402 30.9351 39.2377 30.8341 40.9809C30.733 42.7242 31.0296 44.4677 31.7014 46.0795H14.8642ZM42.3346 51.3964C40.4067 51.3964 38.5221 50.8247 36.9192 49.7536C35.3162 48.6825 34.0668 47.1601 33.329 45.379C32.5913 43.5979 32.3982 41.638 32.7743 39.7471C33.1505 37.8563 34.0788 36.1194 35.4421 34.7562C36.8053 33.393 38.5421 32.4646 40.433 32.0885C42.3238 31.7124 44.2837 31.9054 46.0649 32.6432C47.846 33.3809 49.3684 34.6303 50.4395 36.2333C51.5105 37.8363 52.0822 39.7209 52.0822 41.6488C52.0793 44.2331 51.0514 46.7107 49.224 48.5381C47.3966 50.3655 44.919 51.3934 42.3346 51.3964Z" fill="#5FC1CF"/>
<path d="M49.1643 38.3638L46.5058 35.7053C46.3397 35.5392 46.1143 35.4458 45.8793 35.4458C45.6442 35.4458 45.4189 35.5392 45.2527 35.7053L39.6763 41.2818L38.5306 40.1361C38.3644 39.9699 38.139 39.8765 37.904 39.8765C37.669 39.8765 37.4436 39.9699 37.2774 40.1361L34.6189 42.7945C34.5367 42.8768 34.4714 42.9745 34.4268 43.082C34.3823 43.1895 34.3594 43.3047 34.3594 43.4211C34.3594 43.5374 34.3823 43.6527 34.4268 43.7602C34.4714 43.8677 34.5367 43.9654 34.6189 44.0477L39.0497 48.4784C39.1319 48.5607 39.2296 48.6259 39.3371 48.6705C39.4447 48.715 39.5599 48.7379 39.6763 48.7379C39.7926 48.7379 39.9079 48.715 40.0154 48.6705C40.1229 48.6259 40.2206 48.5607 40.3028 48.4784L49.1643 39.6169C49.2466 39.5347 49.3119 39.437 49.3564 39.3295C49.4009 39.222 49.4239 39.1067 49.4239 38.9904C49.4239 38.874 49.4009 38.7588 49.3564 38.6512C49.3119 38.5437 49.2466 38.446 49.1643 38.3638ZM39.6763 46.5986L36.4987 43.4211L37.904 42.0158L39.0497 43.1615C39.2159 43.3277 39.4412 43.4211 39.6763 43.4211C39.9113 43.4211 40.1367 43.3277 40.3028 43.1615L45.8793 37.5851L47.2845 38.9904L39.6763 46.5986Z" fill="#5FC1CF"/>
</svg>
