<svg width="26" height="25" viewBox="0 0 26 25" fill="none" xmlns="http://www.w3.org/2000/svg">
<path d="M18.2084 10.4167H20.2917C22.375 10.4167 23.4167 9.37504 23.4167 7.29171V5.20837C23.4167 3.12504 22.375 2.08337 20.2917 2.08337H18.2084C16.125 2.08337 15.0834 3.12504 15.0834 5.20837V7.29171C15.0834 9.37504 16.125 10.4167 18.2084 10.4167Z" stroke="#1A138E" stroke-width="1.5" stroke-miterlimit="10" stroke-linecap="round" stroke-linejoin="round"/>
<path d="M5.70837 22.9167H7.79171C9.87504 22.9167 10.9167 21.875 10.9167 19.7917V17.7084C10.9167 15.625 9.87504 14.5834 7.79171 14.5834H5.70837C3.62504 14.5834 2.58337 15.625 2.58337 17.7084V19.7917C2.58337 21.875 3.62504 22.9167 5.70837 22.9167Z" stroke="#1A138E" stroke-width="1.5" stroke-miterlimit="10" stroke-linecap="round" stroke-linejoin="round"/>
<path d="M6.75004 10.4167C9.05123 10.4167 10.9167 8.55123 10.9167 6.25004C10.9167 3.94885 9.05123 2.08337 6.75004 2.08337C4.44885 2.08337 2.58337 3.94885 2.58337 6.25004C2.58337 8.55123 4.44885 10.4167 6.75004 10.4167Z" stroke="#1A138E" stroke-width="1.5" stroke-miterlimit="10" stroke-linecap="round" stroke-linejoin="round"/>
<path d="M19.25 22.9167C21.5512 22.9167 23.4167 21.0512 23.4167 18.75C23.4167 16.4489 21.5512 14.5834 19.25 14.5834C16.9489 14.5834 15.0834 16.4489 15.0834 18.75C15.0834 21.0512 16.9489 22.9167 19.25 22.9167Z" stroke="#1A138E" stroke-width="1.5" stroke-miterlimit="10" stroke-linecap="round" stroke-linejoin="round"/>
</svg>
