<svg width="20" height="20" viewBox="0 0 20 20" fill="none" xmlns="http://www.w3.org/2000/svg">
<g clip-path="url(#clip0_119_792)">
<path d="M0 2.08333V8.33333H8.33333V0H2.08333C0.935 0 0 0.935 0 2.08333ZM7.5 7.5H0.833333V2.08333C0.833333 1.39417 1.39417 0.833333 2.08333 0.833333H7.5V7.5ZM18.3333 2.08333C18.3333 0.935 17.3983 0 16.25 0H10V8.33333H18.3333V2.08333ZM17.5 7.5H10.8333V0.833333H16.25C16.9392 0.833333 17.5 1.39417 17.5 2.08333V7.5ZM0 16.25C0 17.3983 0.935 18.3333 2.08333 18.3333H8.33333V10H0V16.25ZM0.833333 10.8333H7.5V17.5H2.08333C1.39417 17.5 0.833333 16.9392 0.833333 16.25V10.8333ZM19.6708 19.0817L16.6667 16.0775C17.18 15.4358 17.5 14.6333 17.5 13.75C17.5 11.6825 15.8175 10 13.75 10C11.6825 10 10 11.6825 10 13.75C10 15.8175 11.6825 17.5 13.75 17.5C14.6333 17.5 15.4358 17.18 16.0775 16.6667L19.0817 19.6708L19.6708 19.0817ZM13.75 16.6667C12.1417 16.6667 10.8333 15.3583 10.8333 13.75C10.8333 12.1417 12.1417 10.8333 13.75 10.8333C15.3583 10.8333 16.6667 12.1417 16.6667 13.75C16.6667 15.3583 15.3583 16.6667 13.75 16.6667Z" fill="#1E3350"/>
</g>
<defs>
<clipPath id="clip0_119_792">
<rect width="20" height="20" fill="white"/>
</clipPath>
</defs>
</svg>
