<svg width="20" height="20" viewBox="0 0 20 20" fill="none" xmlns="http://www.w3.org/2000/svg">
<path d="M10 2V0H20V2H10ZM10 6V4H20V6H10ZM10 10V8H20V10H10ZM16.95 20C14.8667 20 12.8083 19.546 10.775 18.638C8.74167 17.73 6.89167 16.4423 5.225 14.775C3.55833 13.1077 2.271 11.2577 1.363 9.225C0.455 7.19233 0.000666667 5.134 0 3.05C0 2.75 0.0999999 2.5 0.3 2.3C0.5 2.1 0.75 2 1.05 2H5.1C5.33333 2 5.54167 2.07933 5.725 2.238C5.90833 2.39667 6.01667 2.584 6.05 2.8L6.7 6.3C6.73333 6.56667 6.725 6.79167 6.675 6.975C6.625 7.15833 6.53333 7.31667 6.4 7.45L3.975 9.9C4.30833 10.5167 4.704 11.1127 5.162 11.688C5.62 12.2633 6.12433 12.8173 6.675 13.35C7.19167 13.8667 7.73333 14.346 8.3 14.788C8.86667 15.23 9.46667 15.634 10.1 16L12.45 13.65C12.6 13.5 12.796 13.3877 13.038 13.313C13.28 13.2383 13.5173 13.2173 13.75 13.25L17.2 13.95C17.4333 14.0167 17.625 14.1377 17.775 14.313C17.925 14.4883 18 14.684 18 14.9V18.95C18 19.25 17.9 19.5 17.7 19.7C17.5 19.9 17.25 20 16.95 20Z" fill="black"/>
</svg>
