<svg width="51" height="55" viewBox="0 0 51 55" fill="none" xmlns="http://www.w3.org/2000/svg">
<path fill-rule="evenodd" clip-rule="evenodd" d="M34.9736 46.1724C34.741 46.1724 34.5203 46.1565 34.3158 46.1246C34.1579 46.1 34.0182 46.0119 33.9263 45.8821L33.5993 45.4166C28.3243 37.9088 25.8723 34.4232 23.5122 34.558C22.0292 35.3136 20.0853 35.4839 18.2837 35.0111C16.4331 34.526 15.3431 32.7428 15.6064 31.4728C15.7693 30.6852 16.4918 29.9271 18.0302 30.1611C19.3823 30.3679 23.7278 29.8549 24.3022 29.5046C28.3783 27.0109 32.2276 27.5584 34.8621 31.0061C35.5738 31.9369 36.7739 31.6149 37.6594 31.0025C37.9266 30.8175 38.2926 30.8849 38.4776 31.1519C38.6627 31.4188 38.5951 31.7851 38.3281 31.9701C36.6551 33.1261 34.9282 33.0282 33.9288 31.7202C31.6692 28.7648 28.4688 28.3337 24.9157 30.5077C23.9924 31.0723 19.31 31.5463 17.8513 31.3234C17.4045 31.2547 16.8495 31.267 16.7576 31.7116C16.6266 32.3472 17.2867 33.534 18.5825 33.8745C19.7915 34.1917 21.6052 34.2505 23.0664 33.4642C23.1339 33.4275 23.2073 33.4055 23.2843 33.3969C26.3661 33.0785 28.7664 36.4918 34.562 44.7418L34.736 44.9892C36.4126 45.1056 39.4341 43.9494 40.8021 42.8667C41.0557 42.6646 41.4256 42.7075 41.6276 42.9623C41.8287 43.217 41.7856 43.5869 41.5321 43.7878C40.0124 44.9917 37.0189 46.1724 34.9736 46.1724Z" fill="#5FC1CF"/>
<path fill-rule="evenodd" clip-rule="evenodd" d="M33.2016 48.9501C32.5794 48.9501 31.907 48.7065 31.3239 48.1235C29.7639 46.7664 27.9117 44.372 25.6607 40.8055C25.4881 40.531 25.57 40.1686 25.8444 39.9947C26.1189 39.822 26.4825 39.9041 26.6551 40.1784C28.8206 43.6089 30.6565 45.9887 32.1103 47.2502C32.1214 47.2599 32.1323 47.2698 32.1433 47.2808C32.7717 47.9164 33.4844 47.8651 33.88 47.5503C34.3334 47.1888 34.3455 46.5411 33.9119 45.8601C33.7368 45.5857 33.8176 45.222 34.0919 45.0481C34.3665 44.8742 34.7288 44.955 34.9039 45.2281C35.781 46.6071 35.389 47.8503 34.6124 48.4688C34.2367 48.77 33.7368 48.9502 33.2016 48.9501Z" fill="#5FC1CF"/>
<path fill-rule="evenodd" clip-rule="evenodd" d="M30.5196 51.0996C29.8974 51.0996 29.2248 50.8559 28.6406 50.2741C27.302 49.108 25.6853 47.0934 23.8347 44.2851C23.6559 44.0132 23.7317 43.6494 24.0025 43.4706C24.2732 43.2917 24.6381 43.3665 24.8169 43.6372C26.6161 46.3683 28.1679 48.306 29.4281 49.3997C29.4394 49.4094 29.4502 49.4192 29.46 49.4303C30.0897 50.0659 30.8023 50.0157 31.1979 49.6997C31.65 49.3383 31.6621 48.6905 31.2285 48.0096C31.0548 47.7352 31.1355 47.3727 31.4098 47.1975C31.6842 47.0235 32.0467 47.1044 32.2206 47.3788C33.0976 48.7578 32.7069 49.9998 31.9303 50.6195C31.5544 50.9195 31.0546 51.0996 30.5196 51.0996Z" fill="#5FC1CF"/>
<path fill-rule="evenodd" clip-rule="evenodd" d="M27.4993 52.9437C26.8757 52.9437 26.2046 52.7001 25.6203 52.1171C24.4471 51.0956 23.0594 49.4214 21.4966 47.1433C21.313 46.8751 21.3814 46.5089 21.6484 46.3252C21.9168 46.1415 22.2829 46.21 22.4666 46.4783C23.9806 48.6853 25.3068 50.2885 26.4079 51.2438C26.4191 51.2536 26.4299 51.2635 26.4397 51.2745C27.0694 51.9088 27.7808 51.8599 28.1764 51.5439C28.6297 51.1825 28.6418 50.5347 28.2082 49.8525C28.0345 49.5794 28.1152 49.2156 28.3895 49.0417C28.6628 48.8665 29.0264 48.9474 29.2003 49.2218C30.0773 50.6008 29.6865 51.8428 28.9101 52.4625C28.5341 52.7638 28.0343 52.9438 27.4993 52.9437Z" fill="#5FC1CF"/>
<path fill-rule="evenodd" clip-rule="evenodd" d="M24.109 54.4257C23.4895 54.4257 22.8205 54.1833 22.2388 53.6076C21.8422 53.2866 21.417 52.8801 20.9749 52.4C20.7558 52.161 20.7703 51.7901 21.0092 51.5696C21.248 51.3503 21.6203 51.3651 21.8395 51.6039C22.2511 52.0508 22.6418 52.4233 22.9994 52.7111C23.0177 52.7244 23.0336 52.7392 23.0496 52.7552C23.6791 53.3908 24.3907 53.3406 24.7863 53.0258C25.2397 52.6645 25.2517 52.0166 24.8182 51.3345C24.6444 51.0612 24.7251 50.6976 24.9994 50.5236C25.2728 50.3497 25.6363 50.4294 25.8102 50.7037C26.6872 52.0828 26.2964 53.3247 25.5199 53.9444C25.1441 54.2444 24.6442 54.4257 24.109 54.4257Z" fill="#5FC1CF"/>
<path fill-rule="evenodd" clip-rule="evenodd" d="M20.4972 49.7632C20.2401 49.7632 19.9986 49.8624 19.8185 50.0424L18.7777 51.0834C18.4029 51.4582 18.4027 52.0682 18.7775 52.4418C19.1525 52.8165 19.761 52.8166 20.1358 52.4418L21.1768 51.4018C21.5516 51.0271 21.5516 50.4173 21.1768 50.0424C20.9968 49.8623 20.7555 49.7632 20.4972 49.7632ZM19.4572 53.898C18.9099 53.898 18.3623 53.6898 17.9459 53.2734C17.1132 52.4405 17.113 51.0859 17.9459 50.2519L18.9871 49.212C19.3889 48.8091 19.9251 48.5874 20.4971 48.5874C21.069 48.5874 21.6054 48.8091 22.0084 49.212C22.8415 50.0449 22.8413 51.3995 22.0084 52.2323L20.9673 53.2733C20.5509 53.6898 20.0035 53.898 19.4572 53.898Z" fill="#5FC1CF"/>
<path fill-rule="evenodd" clip-rule="evenodd" d="M17.2661 51.7082C16.6954 51.7082 16.1577 51.4866 15.756 51.0837C14.9232 50.2508 14.9231 48.8962 15.756 48.0622L16.7971 47.0211C17.6299 46.1882 18.9857 46.1883 19.8185 47.0211C20.6515 47.8551 20.6514 49.2098 19.8185 50.0426C19.5884 50.2728 19.2159 50.2729 18.9869 50.0426C18.7581 49.8135 18.7579 49.4413 18.9869 49.2122C19.3618 48.8374 19.3616 48.2275 18.9869 47.8527C18.6123 47.4791 18.0022 47.4792 17.6286 47.8527L16.5876 48.8938C16.2129 49.2685 16.2128 49.8785 16.5876 50.252C16.7676 50.4333 17.0089 50.5325 17.2661 50.5325C17.5246 50.5324 17.7658 50.4333 17.9458 50.252C18.1763 50.0229 18.5472 50.023 18.7774 50.252C19.0066 50.4823 19.0065 50.8546 18.7774 51.0837C18.3747 51.4866 17.8381 51.7083 17.2661 51.7082Z" fill="#5FC1CF"/>
<path fill-rule="evenodd" clip-rule="evenodd" d="M15.0766 49.5183C14.5046 49.5183 13.968 49.2967 13.5663 48.8938C13.1633 48.4919 12.9429 47.9556 12.9429 47.3837C12.9429 46.8116 13.1633 46.2752 13.5663 45.8723L14.6076 44.8311C15.4404 43.9983 16.796 43.9984 17.6288 44.8312C18.0308 45.2341 18.2522 45.7706 18.2522 46.3426C18.2523 46.9144 18.0305 47.451 17.6288 47.8527C17.3986 48.0828 17.0262 48.0829 16.7972 47.8527C16.5672 47.6236 16.5669 47.2514 16.7972 47.0211C16.9772 46.841 17.0764 46.5998 17.0764 46.3426C17.0764 46.0841 16.9772 45.8429 16.7972 45.6628C16.4225 45.288 15.8137 45.2881 15.4389 45.6628L14.3979 46.7038C14.2179 46.8839 14.1187 47.1252 14.1187 47.3837C14.1187 47.6407 14.2178 47.8821 14.3979 48.0621C14.5781 48.2421 14.8192 48.3426 15.0764 48.3426C15.3349 48.3426 15.5762 48.2422 15.7562 48.0621C15.9855 47.8331 16.3575 47.8331 16.5878 48.0621C16.8169 48.2923 16.8168 48.6647 16.5878 48.8938C16.185 49.2966 15.6484 49.5184 15.0766 49.5183Z" fill="#5FC1CF"/>
<path fill-rule="evenodd" clip-rule="evenodd" d="M12.8868 47.3284C12.3406 47.3284 11.793 47.1202 11.3765 46.7038C10.5439 45.8709 10.5437 44.5151 11.3765 43.6823L12.4178 42.6412C13.2505 41.8084 14.605 41.8084 15.439 42.6412C15.8409 43.0441 16.0625 43.5806 16.0625 44.1526C16.0625 44.7245 15.8408 45.261 15.439 45.6627C15.209 45.8929 14.8365 45.893 14.6075 45.6627C14.3774 45.4337 14.3772 45.0614 14.6075 44.8311C14.9822 44.4575 14.9822 43.8476 14.6075 43.4728C14.2327 43.0981 13.6228 43.0981 13.2492 43.4728L12.2083 44.5138C11.8335 44.8886 11.8334 45.4974 12.2082 45.8722C12.5831 46.2469 13.1916 46.247 13.5664 45.8722C13.7956 45.6431 14.1678 45.6432 14.398 45.8722C14.6273 46.1024 14.627 46.4748 14.398 46.7038C13.9816 47.1202 13.4341 47.3284 12.8868 47.3284Z" fill="#5FC1CF"/>
<path fill-rule="evenodd" clip-rule="evenodd" d="M16.1715 32.2481C16.1605 32.2481 16.1493 32.2481 16.1383 32.2469C15.0778 32.1892 14.0048 32.0423 12.9466 31.8096C12.6296 31.7398 12.4297 31.4263 12.4983 31.1091C12.5681 30.7918 12.8817 30.591 13.1989 30.6608C14.1948 30.88 15.205 31.0184 16.202 31.0736C16.5267 31.0907 16.7752 31.3687 16.7568 31.6921C16.7398 32.0055 16.4813 32.2481 16.1715 32.2481Z" fill="#5FC1CF"/>
<path fill-rule="evenodd" clip-rule="evenodd" d="M11.4942 45.1053C11.4327 45.1053 11.3702 45.0955 11.309 45.0747C10.666 44.8616 10.0242 44.39 9.4008 43.6748C9.18649 43.4297 9.21217 43.0575 9.45716 42.8444C9.70208 42.6312 10.0732 42.657 10.2863 42.902C10.7702 43.4567 11.2392 43.8132 11.68 43.9589C11.9877 44.0617 12.1541 44.3937 12.0524 44.7024C11.9706 44.9485 11.7413 45.1053 11.4942 45.1053Z" fill="#5FC1CF"/>
<path fill-rule="evenodd" clip-rule="evenodd" d="M1.54758 44.0057L8.53994 45.8795L13.112 28.8174L6.1196 26.9435L1.54758 44.0057ZM8.95632 47.1877C8.90619 47.1877 8.85451 47.1816 8.80428 47.1681L0.67566 44.9904C0.524916 44.95 0.396301 44.8508 0.319117 44.7161C0.240843 44.5813 0.219981 44.4209 0.260297 44.2703L5.13637 26.0715C5.17658 25.9208 5.27572 25.7923 5.41045 25.7151C5.5453 25.6368 5.70561 25.616 5.85625 25.6564L13.9838 27.8339C14.1346 27.8744 14.2631 27.9724 14.3414 28.1071C14.4198 28.243 14.4406 28.4035 14.4002 28.5542L9.52454 46.7516C9.45344 47.0149 9.21581 47.1877 8.95632 47.1877Z" fill="#5FC1CF"/>
<path fill-rule="evenodd" clip-rule="evenodd" d="M37.8878 28.8172L42.4601 45.8794L49.4522 44.0055L44.8802 26.9433L37.8878 28.8172ZM42.0437 47.1875C41.7838 47.1875 41.5462 47.0148 41.4764 46.7515L36.6006 28.5539C36.5604 28.4033 36.581 28.2429 36.6594 28.1069C36.7368 27.9722 36.8652 27.8742 37.0158 27.8338L45.1433 25.6561C45.457 25.5716 45.7802 25.7578 45.8635 26.0714L50.7407 44.27C50.781 44.4207 50.7588 44.5812 50.6817 44.7159C50.6035 44.8506 50.4747 44.9499 50.3241 44.9903L42.1966 47.1678C42.1451 47.1813 42.0937 47.1875 42.0437 47.1875Z" fill="#5FC1CF"/>
<path fill-rule="evenodd" clip-rule="evenodd" d="M9.26511 33.0708C9.21498 33.0708 9.16327 33.0648 9.11184 33.0513C8.79832 32.9668 8.61211 32.6447 8.69665 32.3312L9.2001 30.4536C9.28471 30.14 9.60667 29.9539 9.92022 30.0372C10.2337 30.1217 10.4199 30.4438 10.3354 30.7574L9.83227 32.6361C9.76223 32.8982 9.5246 33.0709 9.26511 33.0708Z" fill="#5FC1CF"/>
<path fill-rule="evenodd" clip-rule="evenodd" d="M41.735 33.0708C41.4765 33.0708 41.2387 32.8983 41.1677 32.6362L40.6644 30.7573C40.5812 30.4438 40.7671 30.1217 41.0807 30.0372C41.3944 29.9539 41.7163 30.1401 41.8009 30.4536L42.3032 32.3311C42.3875 32.6447 42.2013 32.9669 41.8878 33.0514C41.8364 33.0648 41.7861 33.0709 41.735 33.0708Z" fill="#5FC1CF"/>
<path fill-rule="evenodd" clip-rule="evenodd" d="M42.7613 27.4908C42.4366 27.4908 42.1733 27.2276 42.1733 26.903L42.1735 1.75005H8.82686V26.903C8.82686 27.2275 8.56452 27.4909 8.23876 27.4909C7.91444 27.4908 7.65088 27.2276 7.65088 26.903L7.65098 1.16214C7.65098 0.837501 7.9142 0.574289 8.23876 0.574289L42.7613 0.574219C43.0859 0.574219 43.3491 0.837642 43.3491 1.16221L43.3491 26.903C43.3491 27.2275 43.0857 27.4909 42.7613 27.4908Z" fill="#5FC1CF"/>
<path fill-rule="evenodd" clip-rule="evenodd" d="M28.7902 5.60179H22.2095C21.8849 5.60179 21.6216 5.33978 21.6216 5.01398C21.6218 4.68938 21.8849 4.4261 22.2094 4.4261L28.7902 4.42603C29.1148 4.42603 29.378 4.68941 29.378 5.01398C29.378 5.3397 29.1147 5.6019 28.7902 5.60179Z" fill="#5FC1CF"/>
<path fill-rule="evenodd" clip-rule="evenodd" d="M31.8487 8.79975H19.1514C18.8271 8.79975 18.5635 8.53651 18.5635 8.21194C18.5636 7.88734 18.8269 7.62406 19.1514 7.62406L31.8487 7.62402C32.1733 7.62402 32.4364 7.88741 32.4364 8.21194C32.4365 8.53644 32.1731 8.79986 31.8487 8.79975Z" fill="#5FC1CF"/>
<path fill-rule="evenodd" clip-rule="evenodd" d="M38.5356 19.2861H34.5611C34.2367 19.2861 33.9731 19.0228 33.9731 18.6982C33.9733 18.3737 34.2365 18.1104 34.561 18.1104H38.5356C38.8599 18.1104 39.1233 18.3737 39.1233 18.6982C39.1234 19.0228 38.8599 19.2861 38.5356 19.2861Z" fill="#5FC1CF"/>
<path fill-rule="evenodd" clip-rule="evenodd" d="M31.7378 19.2861H23.9507C23.6261 19.2861 23.3628 19.0228 23.3628 18.6982C23.363 18.3737 23.6261 18.1104 23.9506 18.1104H31.7378C32.0625 18.1104 32.3256 18.3737 32.3256 18.6982C32.3257 19.0228 32.0623 19.2861 31.7378 19.2861Z" fill="#5FC1CF"/>
<path fill-rule="evenodd" clip-rule="evenodd" d="M21.1293 19.2861H12.4654C12.1397 19.2861 11.8774 19.0228 11.8774 18.6982C11.8776 18.3737 12.1395 18.1104 12.4653 18.1104H21.1293C21.454 18.1104 21.7172 18.3737 21.7172 18.6982C21.7172 19.0228 21.4539 19.2861 21.1293 19.2861Z" fill="#5FC1CF"/>
<path fill-rule="evenodd" clip-rule="evenodd" d="M38.5356 24.1032H30.8943C30.5696 24.1032 30.3062 23.8398 30.3062 23.5153C30.3062 23.1907 30.5695 22.9274 30.8941 22.9274L38.5356 22.9272C38.8599 22.9272 39.1232 23.1907 39.1232 23.5153C39.1234 23.8398 38.8599 24.1032 38.5356 24.1032Z" fill="#5FC1CF"/>
<path fill-rule="evenodd" clip-rule="evenodd" d="M28.0726 24.1032H18.3712C18.0466 24.1032 17.7832 23.8398 17.7832 23.5153C17.7833 23.1907 18.0466 22.9274 18.3711 22.9274L28.0726 22.9272C28.397 22.9272 28.6603 23.1907 28.6603 23.5153C28.6604 23.8398 28.397 24.1032 28.0726 24.1032Z" fill="#5FC1CF"/>
<path fill-rule="evenodd" clip-rule="evenodd" d="M15.5482 24.1032H12.4654C12.1397 24.1032 11.8774 23.8398 11.8774 23.5153C11.8776 23.1907 12.1395 22.9274 12.4653 22.9274L15.5482 22.9272C15.8728 22.9272 16.1359 23.1907 16.1359 23.5153C16.136 23.8398 15.8726 24.1032 15.5482 24.1032Z" fill="#5FC1CF"/>
<path fill-rule="evenodd" clip-rule="evenodd" d="M38.5357 14.4691H28.6553C28.3307 14.4691 28.0674 14.2058 28.0674 13.8812C28.0675 13.5567 28.3307 13.2934 28.6553 13.2934L38.5357 13.2932C38.86 13.2932 39.1233 13.5567 39.1233 13.8812C39.1235 14.2058 38.86 14.4692 38.5357 14.4691Z" fill="#5FC1CF"/>
<path fill-rule="evenodd" clip-rule="evenodd" d="M25.8335 14.4691H20.545C20.2204 14.4691 19.957 14.2058 19.957 13.8812C19.9572 13.5567 20.2204 13.2934 20.545 13.2934L25.8335 13.2932C26.1581 13.2932 26.4214 13.5567 26.4214 13.8812C26.4216 14.2058 26.158 14.4692 25.8335 14.4691Z" fill="#5FC1CF"/>
<path fill-rule="evenodd" clip-rule="evenodd" d="M17.7222 14.4691H12.4654C12.1397 14.4691 11.8774 14.2058 11.8774 13.8812C11.8776 13.5567 12.1395 13.2934 12.4653 13.2934L17.7222 13.2932C18.0466 13.2932 18.3099 13.5567 18.3099 13.8812C18.31 14.2058 18.0466 14.4692 17.7222 14.4691Z" fill="#5FC1CF"/>
</svg>
