<svg width="42" height="42" viewBox="0 0 42 42" fill="none" xmlns="http://www.w3.org/2000/svg">
<path d="M17.4936 13.6534L14.0912 10.2503C13.9623 10.1214 13.7874 10.049 13.6051 10.049C13.4228 10.049 13.248 10.1214 13.1191 10.2503L11.6602 11.7085C11.4687 11.9001 11.2413 12.052 10.991 12.1557C10.7408 12.2594 10.4725 12.3127 10.2017 12.3127C9.93078 12.3127 9.66255 12.2594 9.4123 12.1557C9.16204 12.052 8.93466 11.9001 8.74313 11.7085L8.57676 11.5421C8.3852 11.3506 8.23324 11.1232 8.12957 10.873C8.0259 10.6227 7.97254 10.3545 7.97254 10.0836C7.97254 9.81271 8.0259 9.54448 8.12957 9.29423C8.23324 9.04397 8.3852 8.81659 8.57676 8.62506L10.0349 7.16619C10.1638 7.03726 10.2362 6.86242 10.2362 6.68012C10.2362 6.49782 10.1638 6.32299 10.0349 6.19406L6.63113 2.79162C6.50221 2.66274 6.32737 2.59033 6.14507 2.59033C5.96277 2.59033 5.78793 2.66274 5.65901 2.79162L4.20082 4.24981C3.0421 5.41109 2.39136 6.98458 2.39136 8.62506C2.39136 10.2655 3.0421 11.839 4.20082 13.0003L7.28426 16.0837C8.44553 17.2425 10.019 17.8932 11.6595 17.8932C13.3 17.8932 14.8735 17.2425 16.0348 16.0837L17.4936 14.6256C17.6225 14.4966 17.6949 14.3218 17.6949 14.1395C17.6949 13.9572 17.6225 13.7824 17.4936 13.6534ZM13.6051 11.7085L16.0354 14.1395L15.5494 14.6256L13.1191 12.1946L13.6051 11.7085ZM6.14576 4.24981L8.57607 6.68012L8.09001 7.16687L5.65901 4.73587L6.14576 4.24981ZM8.25638 15.1123L5.17294 12.0282C4.35606 11.2091 3.86098 10.1235 3.77805 8.96964C3.69513 7.81578 4.0299 6.67058 4.72126 5.74306L7.16601 8.18781C6.73029 8.84932 6.53594 9.64081 6.61571 10.4289C6.69548 11.217 7.0445 11.9535 7.60394 12.5142L7.77032 12.6806C8.33129 13.2397 9.06775 13.5885 9.85573 13.6683C10.6437 13.748 11.4351 13.5539 12.0968 13.1186L14.5415 15.5633C13.6139 16.2545 12.4688 16.5892 11.3149 16.5063C10.1611 16.4234 9.07558 15.9284 8.25638 15.1116V15.1123Z" fill="#5FC1CF"/>
<path d="M17.5625 21H2.4375C1.89049 21 1.36589 20.7827 0.979092 20.3959C0.592299 20.0091 0.375 19.4845 0.375 18.9375V2.4375C0.375 1.89049 0.592299 1.36589 0.979092 0.979092C1.36589 0.592299 1.89049 0.375 2.4375 0.375H17.5625C18.1095 0.375 18.6341 0.592299 19.0209 0.979092C19.4077 1.36589 19.625 1.89049 19.625 2.4375V18.9375C19.625 19.4845 19.4077 20.0091 19.0209 20.3959C18.6341 20.7827 18.1095 21 17.5625 21ZM2.4375 1.75C2.25516 1.75 2.0803 1.82243 1.95136 1.95136C1.82243 2.0803 1.75 2.25516 1.75 2.4375V18.9375C1.75 19.1198 1.82243 19.2947 1.95136 19.4236C2.0803 19.5526 2.25516 19.625 2.4375 19.625H17.5625C17.7448 19.625 17.9197 19.5526 18.0486 19.4236C18.1776 19.2947 18.25 19.1198 18.25 18.9375V2.4375C18.25 2.25516 18.1776 2.0803 18.0486 1.95136C17.9197 1.82243 17.7448 1.75 17.5625 1.75H2.4375Z" fill="#5FC1CF"/>
<path d="M17.5625 41.625H2.4375C1.89049 41.625 1.36589 41.4077 0.979092 41.0209C0.592299 40.6341 0.375 40.1095 0.375 39.5625V24.4375C0.375 23.8905 0.592299 23.3659 0.979092 22.9791C1.36589 22.5923 1.89049 22.375 2.4375 22.375H17.5625C18.1095 22.375 18.6341 22.5923 19.0209 22.9791C19.4077 23.3659 19.625 23.8905 19.625 24.4375V39.5625C19.625 40.1095 19.4077 40.6341 19.0209 41.0209C18.6341 41.4077 18.1095 41.625 17.5625 41.625ZM2.4375 23.75C2.25516 23.75 2.0803 23.8224 1.95136 23.9514C1.82243 24.0803 1.75 24.2552 1.75 24.4375V39.5625C1.75 39.7448 1.82243 39.9197 1.95136 40.0486C2.0803 40.1776 2.25516 40.25 2.4375 40.25H17.5625C17.7448 40.25 17.9197 40.1776 18.0486 40.0486C18.1776 39.9197 18.25 39.7448 18.25 39.5625V24.4375C18.25 24.2552 18.1776 24.0803 18.0486 23.9514C17.9197 23.8224 17.7448 23.75 17.5625 23.75H2.4375Z" fill="#5FC1CF"/>
<path d="M16.1875 27.1875H3.8125C3.63016 27.1875 3.4553 27.2599 3.32636 27.3889C3.19743 27.5178 3.125 27.6927 3.125 27.875V36.125C3.125 36.3073 3.19743 36.4822 3.32636 36.6111C3.4553 36.7401 3.63016 36.8125 3.8125 36.8125H16.1875C16.3698 36.8125 16.5447 36.7401 16.6736 36.6111C16.8026 36.4822 16.875 36.3073 16.875 36.125V27.875C16.875 27.6927 16.8026 27.5178 16.6736 27.3889C16.5447 27.2599 16.3698 27.1875 16.1875 27.1875ZM10 32.4469L5.622 28.5625H14.3766L10 32.4469ZM7.43287 32.0062L4.5 34.5987V29.4047L7.43287 32.0062ZM8.46825 32.9254L9.087 33.4754C9.33836 33.7032 9.66528 33.8296 10.0045 33.8302C10.3437 33.8309 10.6711 33.7056 10.9233 33.4788L11.5421 32.9288L14.3732 35.4375H5.62681L8.46825 32.9254ZM12.574 32.0062L15.5 29.4047V34.5987L12.574 32.0062Z" fill="#5FC1CF"/>
<path d="M39.5625 0.375H24.4375C23.8905 0.375 23.3659 0.592299 22.9791 0.979092C22.5923 1.36589 22.375 1.89049 22.375 2.4375V18.9375C22.375 19.4845 22.5923 20.0091 22.9791 20.3959C23.3659 20.7827 23.8905 21 24.4375 21H27.875V29.6199L27.0706 27.9156C26.9219 27.4124 26.5848 26.9861 26.1294 26.7255C25.6547 26.4516 25.0907 26.3774 24.5613 26.5192L23.9281 26.6898C23.7474 26.7385 23.5786 26.8235 23.4319 26.9397C23.2853 27.056 23.1639 27.2009 23.0752 27.3656C22.9865 27.5304 22.9324 27.7115 22.9161 27.898C22.8999 28.0844 22.9218 28.2721 22.9807 28.4497L25.8503 36.785C25.8779 36.8655 25.9203 36.9402 25.9754 37.005L27.8379 39.205L27.875 40.9519C27.8788 41.1318 27.9529 41.3029 28.0814 41.4288C28.2099 41.5546 28.3826 41.625 28.5625 41.625H38.1875C38.3698 41.625 38.5447 41.5526 38.6736 41.4236C38.8026 41.2947 38.875 41.1198 38.875 40.9375V39.0812L40.1345 37.192C40.2092 37.0795 40.2494 36.9476 40.25 36.8125V27.875C40.252 27.6055 40.1999 27.3383 40.0967 27.0894C39.9934 26.8404 39.8413 26.6147 39.6491 26.4257C39.3626 26.1433 39.0011 25.949 38.6075 25.8659C38.2139 25.7828 37.8047 25.8144 37.4285 25.9569C37.3372 25.6125 37.1542 25.2994 36.8991 25.0507C36.6125 24.7685 36.251 24.5743 35.8575 24.4912C35.4639 24.4081 35.0547 24.4395 34.6785 24.5819C34.5872 24.2375 34.4042 23.9244 34.1491 23.6757C33.8722 23.4018 33.5245 23.2104 33.1449 23.1229C32.7654 23.0353 32.3689 23.0551 32 23.1801V21H39.5625C40.1095 21 40.6341 20.7827 41.0209 20.3959C41.4077 20.0091 41.625 19.4845 41.625 18.9375V2.4375C41.625 1.89049 41.4077 1.36589 41.0209 0.979092C40.6341 0.592299 40.1095 0.375 39.5625 0.375ZM32.6875 24.4375C32.7791 24.4372 32.8699 24.4557 32.9541 24.4919C33.0383 24.5281 33.1141 24.5812 33.177 24.6479C33.2405 24.7099 33.2908 24.7842 33.3248 24.8662C33.3588 24.9482 33.3759 25.0362 33.375 25.125V29.9375C33.375 30.1198 33.4474 30.2947 33.5764 30.4236C33.7053 30.5526 33.8802 30.625 34.0625 30.625C34.2448 30.625 34.4197 30.5526 34.5486 30.4236C34.6776 30.2947 34.75 30.1198 34.75 29.9375V26.5C34.75 26.3177 34.8224 26.1428 34.9514 26.0139C35.0803 25.8849 35.2552 25.8125 35.4375 25.8125C35.5291 25.8122 35.6199 25.8307 35.7041 25.8669C35.7883 25.9031 35.8641 25.9562 35.927 26.0229C35.9905 26.0849 36.0408 26.1592 36.0748 26.2412C36.1088 26.3232 36.1259 26.4112 36.125 26.5V29.9375C36.125 30.1198 36.1974 30.2947 36.3264 30.4236C36.4553 30.5526 36.6302 30.625 36.8125 30.625C36.9948 30.625 37.1697 30.5526 37.2986 30.4236C37.4276 30.2947 37.5 30.1198 37.5 29.9375V27.875C37.5 27.6927 37.5724 27.5178 37.7014 27.3889C37.8303 27.2599 38.0052 27.1875 38.1875 27.1875C38.2791 27.1872 38.3699 27.2057 38.4541 27.2419C38.5383 27.2781 38.6141 27.3312 38.677 27.3979C38.7405 27.4599 38.7908 27.5342 38.8248 27.6162C38.8588 27.6982 38.8759 27.7862 38.875 27.875V36.6063L37.6155 38.4955C37.5408 38.608 37.5006 38.7399 37.5 38.875V40.25H29.2356L29.2074 38.9293C29.2043 38.7715 29.147 38.6195 29.0451 38.4989L27.1077 36.2123L24.2856 28.0125L24.9139 27.8434C25.0921 27.7958 25.2819 27.8205 25.4419 27.9121C25.5196 27.9564 25.5877 28.0156 25.6422 28.0865C25.6967 28.1573 25.7366 28.2382 25.7596 28.3246C25.7699 28.3652 27.941 32.9742 27.941 32.9742C28.0075 33.1148 28.1197 33.2287 28.2593 33.2974C28.3989 33.366 28.5577 33.3852 28.7096 33.3519C28.8616 33.3186 28.9978 33.2348 29.0959 33.1141C29.1941 32.9934 29.2484 32.843 29.25 32.6875V19.0145C29.2426 18.8329 29.3019 18.6549 29.4168 18.514C29.5317 18.3732 29.6942 18.2792 29.8736 18.25C29.9754 18.2398 30.0783 18.2531 30.1742 18.2888C30.2702 18.3246 30.3567 18.3818 30.427 18.4562C30.491 18.5188 30.5416 18.5937 30.5756 18.6765C30.6096 18.7592 30.6265 18.848 30.625 18.9375V29.9375C30.625 30.1198 30.6974 30.2947 30.8264 30.4236C30.9553 30.5526 31.1302 30.625 31.3125 30.625C31.4948 30.625 31.6697 30.5526 31.7986 30.4236C31.9276 30.2947 32 30.1198 32 29.9375V25.125C32 24.9427 32.0724 24.7678 32.2014 24.6389C32.3303 24.5099 32.5052 24.4375 32.6875 24.4375ZM40.25 18.9375C40.25 19.1198 40.1776 19.2947 40.0486 19.4236C39.9197 19.5526 39.7448 19.625 39.5625 19.625H32V18.9375C32.002 18.668 31.9499 18.4008 31.8467 18.1519C31.7434 17.9029 31.5913 17.6772 31.3991 17.4883C31.1877 17.2719 30.9307 17.1053 30.6468 17.0005C30.363 16.8957 30.0594 16.8554 29.7581 16.8826C29.2353 16.9403 28.7529 17.1906 28.4047 17.5848C28.0566 17.9789 27.8677 18.4887 27.875 19.0145V19.625H24.4375C24.2552 19.625 24.0803 19.5526 23.9514 19.4236C23.8224 19.2947 23.75 19.1198 23.75 18.9375V2.4375C23.75 2.25516 23.8224 2.0803 23.9514 1.95136C24.0803 1.82243 24.2552 1.75 24.4375 1.75H39.5625C39.7448 1.75 39.9197 1.82243 40.0486 1.95136C40.1776 2.0803 40.25 2.25516 40.25 2.4375V18.9375Z" fill="#5FC1CF"/>
<path d="M32 4.5C30.5413 4.5 29.1424 5.07946 28.1109 6.11091C27.0795 7.14236 26.5 8.54131 26.5 10C26.5 11.4587 27.0795 12.8576 28.1109 13.8891C29.1424 14.9205 30.5413 15.5 32 15.5H34.75C34.9323 15.5 35.1072 15.4276 35.2361 15.2986C35.3651 15.1697 35.4375 14.9948 35.4375 14.8125C35.4375 14.6302 35.3651 14.4553 35.2361 14.3264C35.1072 14.1974 34.9323 14.125 34.75 14.125H32C31.1842 14.125 30.3866 13.8831 29.7083 13.4298C29.0299 12.9766 28.5012 12.3323 28.189 11.5786C27.8768 10.8248 27.7951 9.99542 27.9543 9.19525C28.1134 8.39508 28.5063 7.66008 29.0832 7.08318C29.6601 6.50629 30.3951 6.11343 31.1953 5.95426C31.9954 5.7951 32.8248 5.87679 33.5786 6.189C34.3323 6.50121 34.9766 7.02992 35.4298 7.70827C35.8831 8.38663 36.125 9.18415 36.125 10V10.6875C36.125 10.8698 36.0526 11.0447 35.9236 11.1736C35.7947 11.3026 35.6198 11.375 35.4375 11.375C35.2552 11.375 35.0803 11.3026 34.9514 11.1736C34.8224 11.0447 34.75 10.8698 34.75 10.6875V10C34.7552 9.36187 34.5401 8.74148 34.1411 8.2435C33.742 7.74552 33.1834 7.40043 32.5595 7.26646C31.9356 7.13249 31.2845 7.21784 30.7162 7.50811C30.1479 7.79838 29.6971 8.2758 29.4399 8.85982C29.1827 9.44383 29.1348 10.0987 29.3043 10.7139C29.4739 11.3291 29.8504 11.867 30.3705 12.2369C30.8905 12.6067 31.5222 12.7859 32.159 12.7441C32.7958 12.7023 33.3986 12.4421 33.8659 12.0075C34.1361 12.3332 34.5003 12.5675 34.9087 12.6783C35.3171 12.7892 35.7498 12.7711 36.1475 12.6266C36.5453 12.4821 36.8887 12.2183 37.1308 11.8712C37.3729 11.5241 37.5018 11.1107 37.5 10.6875V10C37.4984 8.54181 36.9184 7.14382 35.8873 6.11272C34.8562 5.08163 33.4582 4.50164 32 4.5ZM32 11.375C31.7281 11.375 31.4622 11.2944 31.2361 11.1433C31.01 10.9922 30.8337 10.7774 30.7297 10.5262C30.6256 10.2749 30.5984 9.99847 30.6514 9.73175C30.7045 9.46503 30.8354 9.22003 31.0277 9.02773C31.22 8.83543 31.465 8.70447 31.7317 8.65142C31.9985 8.59837 32.2749 8.6256 32.5262 8.72967C32.7774 8.83374 32.9922 9.00997 33.1433 9.23609C33.2944 9.46221 33.375 9.72805 33.375 10C33.375 10.3647 33.2301 10.7144 32.9723 10.9723C32.7144 11.2301 32.3647 11.375 32 11.375Z" fill="#5FC1CF"/>
</svg>
