<svg width="24" height="25" viewBox="0 0 24 25" fill="none" xmlns="http://www.w3.org/2000/svg">
<path d="M12 22.58C11.7 22.58 11.4 22.51 11.15 22.37C9.28 21.35 5.99 20.27 3.93 20L3.64 19.96C2.33 19.8 1.25 18.57 1.25 17.24V5.16001C1.25 4.37001 1.56 3.65001 2.13 3.13001C2.7 2.61001 3.44 2.36001 4.22 2.43001C6.42 2.60001 9.74 3.70001 11.62 4.88001L11.86 5.02001C11.93 5.06001 12.08 5.06001 12.14 5.03001L12.3 4.93001C14.18 3.75001 17.5 2.63001 19.71 2.44001C19.73 2.44001 19.81 2.44001 19.83 2.44001C20.56 2.37001 21.31 2.63001 21.87 3.15001C22.44 3.67001 22.75 4.39001 22.75 5.18001V17.25C22.75 18.59 21.67 19.81 20.35 19.97L20.02 20.01C17.96 20.28 14.66 21.37 12.83 22.38C12.59 22.52 12.3 22.58 12 22.58ZM3.98 3.92001C3.66 3.92001 3.37 4.03001 3.14 4.24001C2.89 4.47001 2.75 4.80001 2.75 5.16001V17.24C2.75 17.83 3.26 18.4 3.83 18.48L4.13 18.52C6.38 18.82 9.83 19.95 11.83 21.04C11.92 21.08 12.05 21.09 12.1 21.07C14.1 19.96 17.57 18.82 19.83 18.52L20.17 18.48C20.74 18.41 21.25 17.83 21.25 17.24V5.17001C21.25 4.80001 21.11 4.48001 20.86 4.24001C20.6 4.01001 20.27 3.90001 19.9 3.92001C19.88 3.92001 19.8 3.92001 19.78 3.92001C17.87 4.09001 14.79 5.12001 13.11 6.17001L12.95 6.28001C12.4 6.62001 11.62 6.62001 11.09 6.29001L10.85 6.15001C9.14 5.10001 6.06 4.08001 4.1 3.92001C4.06 3.92001 4.02 3.92001 3.98 3.92001Z" fill="#ABABAB"/>
<path d="M12 21.7402C11.59 21.7402 11.25 21.4002 11.25 20.9902V5.99023C11.25 5.58023 11.59 5.24023 12 5.24023C12.41 5.24023 12.75 5.58023 12.75 5.99023V20.9902C12.75 21.4102 12.41 21.7402 12 21.7402Z" fill="#ABABAB"/>
<path d="M7.75 9.74023H5.5C5.09 9.74023 4.75 9.40023 4.75 8.99023C4.75 8.58023 5.09 8.24023 5.5 8.24023H7.75C8.16 8.24023 8.5 8.58023 8.5 8.99023C8.5 9.40023 8.16 9.74023 7.75 9.74023Z" fill="#ABABAB"/>
<path d="M8.5 12.7402H5.5C5.09 12.7402 4.75 12.4002 4.75 11.9902C4.75 11.5802 5.09 11.2402 5.5 11.2402H8.5C8.91 11.2402 9.25 11.5802 9.25 11.9902C9.25 12.4002 8.91 12.7402 8.5 12.7402Z" fill="#ABABAB"/>
</svg>
