<svg width="23" height="24" viewBox="0 0 23 24" fill="none" xmlns="http://www.w3.org/2000/svg">
<path d="M22.4438 6.05559C22.3007 3.67583 20.3136 1.81142 17.9203 1.81142H16.7551V0.905712C16.7551 0.665502 16.6596 0.435131 16.4898 0.265277C16.3199 0.0954229 16.0896 0 15.8493 0C15.6091 0 15.3788 0.0954229 15.2089 0.265277C15.0391 0.435131 14.9436 0.665502 14.9436 0.905712V1.81142H7.69794V0.905712C7.69794 0.665502 7.60251 0.435131 7.43266 0.265277C7.26281 0.0954229 7.03243 0 6.79223 0C6.55202 0 6.32164 0.0954229 6.15179 0.265277C5.98194 0.435131 5.88651 0.665502 5.88651 0.905712V1.81142H4.72132C2.32752 1.81142 0.340389 3.67583 0.19774 6.05559C-0.0708039 10.5316 -0.0658225 15.0719 0.212684 19.5502C0.353975 21.8245 2.17581 23.6463 4.45005 23.7876C6.72928 23.9294 9.02481 24 11.3203 24C13.6154 24 15.9114 23.9294 18.1906 23.7876C20.4648 23.6463 22.2867 21.8245 22.428 19.5502C22.7069 15.0742 22.7119 10.5343 22.4438 6.05559ZM20.6206 19.4379C20.5787 20.0983 20.2974 20.7208 19.8295 21.1887C19.3616 21.6566 18.7391 21.9378 18.0788 21.9798C13.5946 22.2583 9.04699 22.2583 4.56282 21.9798C3.90243 21.9378 3.27999 21.6566 2.81209 21.1887C2.34418 20.7208 2.0629 20.0983 2.02094 19.4379C1.80865 15.9819 1.76074 12.5177 1.87738 9.05712H20.7646C20.8788 12.5169 20.8348 15.9962 20.6206 19.4379ZM6.79223 5.43427C7.03243 5.43427 7.26281 5.33885 7.43266 5.16899C7.60251 4.99914 7.69794 4.76877 7.69794 4.52856V3.62285H14.9436V4.52856C14.9436 4.76877 15.0391 4.99914 15.2089 5.16899C15.3788 5.33885 15.6091 5.43427 15.8493 5.43427C16.0896 5.43427 16.3199 5.33885 16.4898 5.16899C16.6596 4.99914 16.7551 4.76877 16.7551 4.52856V3.62285H17.9203C19.3572 3.62285 20.55 4.73914 20.6356 6.16382C20.6569 6.52339 20.6659 6.88522 20.6836 7.24569H1.95799C1.9761 6.88522 1.98471 6.52339 2.00599 6.16382C2.09158 4.73914 3.28395 3.62285 4.72132 3.62285H5.88651V4.52856C5.88651 4.76877 5.98194 4.99914 6.15179 5.16899C6.32164 5.33885 6.55202 5.43427 6.79223 5.43427Z" fill="black" fill-opacity="0.6"/>
<path d="M6.79216 14.4913C7.54248 14.4913 8.15073 13.8831 8.15073 13.1327C8.15073 12.3824 7.54248 11.7742 6.79216 11.7742C6.04185 11.7742 5.43359 12.3824 5.43359 13.1327C5.43359 13.8831 6.04185 14.4913 6.79216 14.4913Z" fill="black" fill-opacity="0.6"/>
<path d="M11.3205 14.4913C12.0708 14.4913 12.679 13.8831 12.679 13.1327C12.679 12.3824 12.0708 11.7742 11.3205 11.7742C10.5702 11.7742 9.96191 12.3824 9.96191 13.1327C9.96191 13.8831 10.5702 14.4913 11.3205 14.4913Z" fill="black" fill-opacity="0.6"/>
<path d="M6.79216 19.0199C7.54248 19.0199 8.15073 18.4116 8.15073 17.6613C8.15073 16.911 7.54248 16.3027 6.79216 16.3027C6.04185 16.3027 5.43359 16.911 5.43359 17.6613C5.43359 18.4116 6.04185 19.0199 6.79216 19.0199Z" fill="black" fill-opacity="0.6"/>
<path d="M15.8498 14.4913C16.6001 14.4913 17.2083 13.8831 17.2083 13.1327C17.2083 12.3824 16.6001 11.7742 15.8498 11.7742C15.0995 11.7742 14.4912 12.3824 14.4912 13.1327C14.4912 13.8831 15.0995 14.4913 15.8498 14.4913Z" fill="black" fill-opacity="0.6"/>
<path d="M15.8498 19.0199C16.6001 19.0199 17.2083 18.4116 17.2083 17.6613C17.2083 16.911 16.6001 16.3027 15.8498 16.3027C15.0995 16.3027 14.4912 16.911 14.4912 17.6613C14.4912 18.4116 15.0995 19.0199 15.8498 19.0199Z" fill="black" fill-opacity="0.6"/>
<path d="M11.3205 19.0199C12.0708 19.0199 12.679 18.4116 12.679 17.6613C12.679 16.911 12.0708 16.3027 11.3205 16.3027C10.5702 16.3027 9.96191 16.911 9.96191 17.6613C9.96191 18.4116 10.5702 19.0199 11.3205 19.0199Z" fill="black" fill-opacity="0.6"/>
</svg>
