<svg width="20" height="20" viewBox="0 0 20 20" fill="none" xmlns="http://www.w3.org/2000/svg">
<g clip-path="url(#clip0_82_345)">
<path d="M10.1664 9.83335L8.99142 11.0084C8.34142 11.6584 8.34142 12.7167 8.99142 13.3667C9.64142 14.0167 10.6998 14.0167 11.3498 13.3667L13.1998 11.5167C14.4998 10.2167 14.4998 8.10835 13.1998 6.80001C11.8998 5.50001 9.79142 5.50001 8.48309 6.80001L6.46641 8.81669C5.34974 9.93335 5.34974 11.7417 6.46641 12.8584" stroke="#1E3350" stroke-width="1.5" stroke-linecap="round" stroke-linejoin="round"/>
<path d="M9.99984 18.3334C14.6022 18.3334 18.3332 14.6024 18.3332 10C18.3332 5.39765 14.6022 1.66669 9.99984 1.66669C5.39746 1.66669 1.6665 5.39765 1.6665 10C1.6665 14.6024 5.39746 18.3334 9.99984 18.3334Z" stroke="#1E3350" stroke-width="1.5" stroke-linecap="round" stroke-linejoin="round"/>
</g>
<defs>
<clipPath id="clip0_82_345">
<rect width="20" height="20" fill="white"/>
</clipPath>
</defs>
</svg>
