<svg width="16" height="24" viewBox="0 0 16 24" fill="none" xmlns="http://www.w3.org/2000/svg">
<path d="M13.9989 19.1552V18.3576C13.9989 17.0873 13.2928 15.9452 12.1566 15.3769L9.99969 14.2985V10.2706C9.99969 9.20868 9.50603 8.23634 8.68001 7.61391C8.72311 7.37926 8.86663 7.18188 9.05325 7.11981C10.4169 6.66605 11.3327 5.39521 11.3327 3.95734C11.3327 1.89762 9.49235 0.337244 7.44511 0.670141C5.86194 0.927322 4.66748 2.40216 4.66748 4.10001V6.3528C3.00624 8.1105 2.00146 10.4921 2.00146 13.0596V16.8242C2.00146 17.8219 2.27971 18.7767 2.79905 19.6004C1.55362 20.0835 0.668457 21.2948 0.668457 22.7087V23.3752H13.3322C14.4347 23.3752 15.3319 22.478 15.3319 21.3757C15.3323 20.9194 15.2084 20.4716 14.9736 20.0804C14.7388 19.6892 14.4018 19.3693 13.9989 19.1552ZM11.6895 16.6398C12.2952 16.9993 12.6657 17.645 12.6657 18.3576V18.6736L11.1559 18.1702L11.6895 16.6398ZM6.00067 4.10001C6.00067 3.04872 6.71369 2.13956 7.65928 1.98578C8.9383 1.77751 9.99969 2.76181 9.99969 3.95734C10.0002 4.37723 9.86836 4.78661 9.62292 5.1273C9.37748 5.46799 9.03091 5.72266 8.63247 5.85514C8.10637 6.03012 7.69745 6.43767 7.4883 6.95541L6.00067 6.2115V4.10001ZM3.33447 13.0596C3.33447 10.9661 4.09264 8.9886 5.47857 7.44107L7.56122 8.48214C8.24319 8.82282 8.66668 9.50856 8.66668 10.2706V15.1223L10.489 16.0337L9.89123 17.7489L7.33363 16.8962V10.6226H6.00062V17.8569L8.0196 18.53C7.13061 19.5169 5.72327 19.9142 4.41114 19.477L4.36893 19.4628C3.70105 18.7424 3.33447 17.8119 3.33447 16.8241V13.0596ZM13.3322 22.0422H2.11566C2.38004 21.2961 3.07551 20.7527 3.901 20.7118C3.96019 20.7267 4.58537 20.9869 5.49679 20.9869C7.01673 20.9869 8.46846 20.2528 9.36429 18.978L13.19 20.2532C13.4257 20.3316 13.6307 20.4822 13.7759 20.6837C13.9211 20.8852 13.9991 21.1273 13.9989 21.3757C13.9989 21.7431 13.6999 22.0422 13.3323 22.0422H13.3322Z" fill="black"/>
</svg>
