<svg width="35" height="24" viewBox="0 0 35 24" fill="none" xmlns="http://www.w3.org/2000/svg">
<path d="M24.0392 12.465L33.0094 4.67168V20.1694L24.0392 12.465ZM12.4804 13.7848L15.6304 16.5192C16.1248 16.9392 16.7694 17.1929 17.4738 17.1929H17.4985H17.5175C18.2233 17.1929 18.8679 16.9377 19.3681 16.5148L19.3638 16.5177L22.5138 13.7833L32.0892 22.0069H2.90938L12.4804 13.7848ZM2.89625 2.82397H32.1067L18.076 15.0098C17.9183 15.1346 17.723 15.2024 17.5219 15.2023H17.5015H17.4825C17.2807 15.2026 17.0847 15.1342 16.9269 15.0083L16.9283 15.0098L2.89625 2.82397ZM1.99063 4.67022L10.9594 12.4636L1.99063 20.1635V4.67022ZM33.4906 1.11043C33.1406 0.935427 32.7294 0.833344 32.2933 0.833344H2.71104C2.28836 0.833444 1.87149 0.931797 1.49333 1.12064L1.50937 1.11334C1.05667 1.33663 0.675424 1.68206 0.408704 2.11062C0.141984 2.53917 0.00041905 3.03378 0 3.53855L0 21.2894C0.000772047 22.0078 0.286493 22.6965 0.794471 23.2045C1.30245 23.7125 1.99119 23.9982 2.70958 23.999H32.289C33.0074 23.9982 33.6961 23.7125 34.2041 23.2045C34.7121 22.6965 34.9978 22.0078 34.9985 21.2894V3.53855C34.9985 2.47834 34.3875 1.55959 33.4979 1.11772L33.4819 1.11043H33.4906Z" fill="#D11317"/>
</svg>
