<svg width="16" height="16" viewBox="0 0 16 16" fill="none" xmlns="http://www.w3.org/2000/svg">
<path d="M7.99998 14.4336C7.79331 14.4336 7.59331 14.4069 7.42665 14.3469C4.87998 13.4736 0.833313 10.3736 0.833313 5.79356C0.833313 3.46023 2.71998 1.56689 5.03998 1.56689C6.16665 1.56689 7.21998 2.00689 7.99998 2.79356C8.77998 2.00689 9.83331 1.56689 10.96 1.56689C13.28 1.56689 15.1666 3.46689 15.1666 5.79356C15.1666 10.3802 11.12 13.4736 8.57331 14.3469C8.40665 14.4069 8.20665 14.4336 7.99998 14.4336ZM5.03998 2.56689C3.27331 2.56689 1.83331 4.01356 1.83331 5.79356C1.83331 10.3469 6.21331 12.8802 7.75331 13.4069C7.87331 13.4469 8.13331 13.4469 8.25331 13.4069C9.78665 12.8802 14.1733 10.3536 14.1733 5.79356C14.1733 4.01356 12.7333 2.56689 10.9666 2.56689C9.95331 2.56689 9.01331 3.04023 8.40665 3.86023C8.21998 4.11356 7.79331 4.11356 7.60665 3.86023C6.98665 3.03356 6.05331 2.56689 5.03998 2.56689Z" fill="#606CBF"/>
</svg>
