<svg width="22" height="23" viewBox="0 0 22 23" fill="none" xmlns="http://www.w3.org/2000/svg">
<path d="M0.75 18.2055H11.8086C12.1539 16.6102 13.5746 15.411 15.2717 15.411C16.9688 15.411 18.3894 16.6102 18.7348 18.2055H20.9524C21.1513 18.2055 21.3421 18.2845 21.4827 18.4252C21.6234 18.5658 21.7024 18.7566 21.7024 18.9555C21.7024 19.1544 21.6234 19.3452 21.4827 19.4858C21.3421 19.6265 21.1513 19.7055 20.9524 19.7055H18.7348C18.3894 21.3008 16.9688 22.5 15.2717 22.5C13.5746 22.5 12.1539 21.3008 11.8086 19.7055H0.75C0.551088 19.7055 0.360322 19.6265 0.21967 19.4858C0.0790177 19.3452 0 19.1544 0 18.9555C0 18.7566 0.0790177 18.5658 0.21967 18.4252C0.360322 18.2845 0.551088 18.2055 0.75 18.2055ZM15.2717 21C16.3991 21 17.3162 20.0828 17.3162 18.9555C17.3162 17.8282 16.3989 16.911 15.2717 16.911C14.1444 16.911 13.2272 17.8282 13.2272 18.9555C13.2272 20.0828 14.1442 21 15.2717 21ZM20.9524 12H9.89381C9.54844 13.5953 8.12775 14.7945 6.43069 14.7945C4.73363 14.7945 3.31294 13.5953 2.96756 12H0.75C0.551088 12 0.360322 11.921 0.21967 11.7803C0.0790177 11.6397 0 11.4489 0 11.25C0 11.0511 0.0790177 10.8603 0.21967 10.7197C0.360322 10.579 0.551088 10.5 0.75 10.5H2.96756C3.31294 8.90475 4.73363 7.7055 6.43069 7.7055C8.12775 7.7055 9.54844 8.90475 9.89381 10.5H20.9524C21.1513 10.5 21.3421 10.579 21.4827 10.7197C21.6234 10.8603 21.7024 11.0511 21.7024 11.25C21.7024 11.4489 21.6234 11.6397 21.4827 11.7803C21.3421 11.921 21.1513 12 20.9524 12ZM6.43069 9.2055C5.30325 9.2055 4.38619 10.1228 4.38619 11.25C4.38619 12.3772 5.30344 13.2945 6.43069 13.2945C7.55794 13.2945 8.47519 12.3774 8.47519 11.25C8.47519 10.1226 7.55813 9.2055 6.43069 9.2055ZM20.9524 4.2945H18.7348C18.3894 5.88975 16.9688 7.089 15.2717 7.089C13.5746 7.089 12.1539 5.88975 11.8086 4.2945H0.75C0.551088 4.2945 0.360322 4.21548 0.21967 4.07483C0.0790177 3.93418 0 3.74341 0 3.5445C0 3.34559 0.0790177 3.15482 0.21967 3.01417C0.360322 2.87352 0.551088 2.7945 0.75 2.7945H11.8086C12.1539 1.19925 13.5746 0 15.2717 0C16.9688 0 18.3894 1.19925 18.7348 2.7945H20.9524C21.1513 2.7945 21.3421 2.87352 21.4827 3.01417C21.6234 3.15482 21.7024 3.34559 21.7024 3.5445C21.7024 3.74341 21.6234 3.93418 21.4827 4.07483C21.3421 4.21548 21.1513 4.2945 20.9524 4.2945ZM15.2717 1.5C14.1442 1.5 13.2272 2.41725 13.2272 3.5445C13.2272 4.67175 14.1444 5.589 15.2717 5.589C16.3989 5.589 17.3162 4.67175 17.3162 3.5445C17.3162 2.41725 16.3991 1.5 15.2717 1.5Z" fill="#D11317"/>
</svg>
