<svg width="62" height="63" viewBox="0 0 62 63" fill="none" xmlns="http://www.w3.org/2000/svg">
<path d="M53.113 3.60875C48.3952 3.60875 44.5599 7.45037 44.5599 12.1741C44.5599 16.6896 48.0706 20.3902 52.5065 20.7027V54.9092C52.5065 57.262 50.5949 59.1796 48.2421 59.1796C45.8832 59.1796 43.9717 57.2619 43.9717 54.9092V51.852C43.9717 48.0655 40.896 44.9899 37.1096 44.9899C33.3294 44.9899 30.2536 48.0655 30.2536 51.852V54.4682C30.2536 58.2179 27.2025 61.2691 23.4466 61.2691C19.697 61.2691 16.6457 58.2179 16.6457 54.4682V41.1482C18.2142 40.8541 19.409 39.4816 19.409 37.8275V36.1242C24.5372 35.242 28.826 32.3991 31.5402 28.0735C32.5206 26.5234 32.0916 24.477 30.5967 23.4049C31.1665 21.7996 31.479 20.0717 31.479 18.2705V6.81312C31.479 4.4665 29.5674 2.56112 27.2207 2.56112H26.0076V2.37112C26.0076 1.06 24.9476 0 23.6426 0C22.3315 0 21.2715 1.06 21.2715 2.37112V3.97637C21.2715 5.28137 22.3315 6.3475 23.6426 6.3475C24.9476 6.3475 26.0076 5.28137 26.0076 3.97637V3.7865H27.2207C28.8934 3.7865 30.2536 5.14663 30.2536 6.81312V18.2704C30.2536 19.8879 29.9656 21.4319 29.4632 22.8839C27.9989 22.4795 26.4242 23.0616 25.6034 24.3544C22.6502 29.0354 17.5342 29.4029 16.0331 29.4029C14.5321 29.4029 9.40999 29.0352 6.45074 24.3482C5.67874 23.129 4.17149 22.4366 2.57849 22.8839C2.07611 21.438 1.80036 19.8879 1.80036 18.2704V6.81312C1.80036 5.14663 3.16061 3.7865 4.83324 3.7865H6.04024V3.97637C6.04024 5.28137 7.10636 6.3475 8.41136 6.3475C9.71636 6.3475 10.7825 5.28137 10.7825 3.97637V2.37112C10.7825 1.06 9.71636 0 8.41136 0C7.10636 0 6.04024 1.06 6.04024 2.37112V2.56112H4.83324C2.48661 2.56112 0.574988 4.4665 0.574988 6.81312V18.2704C0.574988 20.0716 0.887488 21.7995 1.45724 23.4109C-0.0316371 24.4892 -0.454387 26.5356 0.538238 28.0857C3.24024 32.3071 7.63324 35.2114 12.6511 36.112V37.8275C12.6511 39.4695 13.8214 40.8481 15.4205 41.1421V54.4681C15.4205 58.8917 19.0231 62.4944 23.4467 62.4944C27.8765 62.4944 31.4791 58.8917 31.4791 54.4681V51.8519C31.4791 48.7455 34.0034 46.2151 37.1097 46.2151C40.2161 46.2151 42.7465 48.7455 42.7465 51.8519V54.9091C42.7465 57.9357 45.2095 60.4049 48.2422 60.4049C51.2689 60.4049 53.732 57.9357 53.732 54.9091V20.7027C58.1679 20.3841 61.6846 16.6835 61.6846 12.1741C61.6845 7.45037 57.843 3.60875 53.113 3.60875ZM24.7822 3.97637C24.7822 4.60737 24.2737 5.12212 23.6426 5.12212C23.0115 5.12212 22.4969 4.60737 22.4969 3.97637V2.37112C22.4969 1.74 23.0115 1.22537 23.6426 1.22537C24.2736 1.22537 24.7822 1.74 24.7822 2.37112V3.97637ZM7.26549 2.37112C7.26549 1.74 7.78011 1.22537 8.41124 1.22537C9.04236 1.22537 9.55699 1.74 9.55699 2.37112V3.97637C9.55699 4.60737 9.04236 5.12212 8.41124 5.12212C7.78024 5.12212 7.26549 4.60737 7.26549 3.97637V2.37112ZM53.113 19.508C49.0754 19.508 45.7852 16.2179 45.7852 12.1741C45.7852 8.12425 49.0754 4.83412 53.113 4.83412C57.1629 4.83412 60.4591 8.12412 60.4591 12.1741C60.4591 16.2179 57.1629 19.508 53.113 19.508Z" fill="#5FC1CF"/>
<path d="M56.7096 12.1741C56.7096 14.1531 55.0982 15.7645 53.1192 15.7645C51.1402 15.7645 49.5288 14.1531 49.5288 12.1741C49.5288 10.189 51.1402 8.57764 53.1192 8.57764C55.0982 8.57764 56.7096 10.189 56.7096 12.1741Z" fill="#5FC1CF"/>
<path d="M8.81787 17.2192C8.81787 17.5578 9.09187 17.8319 9.43062 17.8319H12.8495C13.1157 17.8319 13.3515 17.6602 13.4329 17.4072L14.5685 13.8753L16.4382 22.0461C16.4999 22.3171 16.7369 22.5128 17.015 22.5217C17.0216 22.5223 17.0287 22.5223 17.0354 22.5223C17.3052 22.5223 17.544 22.3458 17.6224 22.0862L19.2104 16.8042L19.5849 17.5072C19.6914 17.7071 19.8996 17.8321 20.1257 17.8321H22.634C22.9726 17.8321 23.2467 17.5581 23.2467 17.2193C23.2467 16.8806 22.9727 16.6066 22.634 16.6066H20.4937L19.5926 14.9151C19.476 14.6961 19.2437 14.5728 18.9912 14.5932C18.7441 14.6177 18.5365 14.7888 18.4647 15.0264L17.1155 19.5139L15.2655 11.4282C15.2039 11.1589 14.9705 10.9644 14.6947 10.9526C14.4087 10.9316 14.17 11.1147 14.085 11.3768L12.4031 16.6068H9.43062C9.09187 16.6064 8.81787 16.8804 8.81787 17.2192Z" fill="#5FC1CF"/>
</svg>
