<svg width="24" height="25" viewBox="0 0 24 25" fill="none" xmlns="http://www.w3.org/2000/svg">
<path d="M12 19.25C11.59 19.25 11.25 18.91 11.25 18.5V15.5C11.25 15.09 11.59 14.75 12 14.75C12.41 14.75 12.75 15.09 12.75 15.5V18.5C12.75 18.91 12.41 19.25 12 19.25Z" fill="#ABABAB"/>
<path d="M17.6 23.0598H6.40002C4.58002 23.0598 2.92002 21.6598 2.62002 19.8698L1.29002 11.8998C1.07002 10.6598 1.68002 9.06982 2.67002 8.27982L9.60002 2.72982C10.94 1.64982 13.05 1.65982 14.4 2.73982L21.33 8.27982C22.31 9.06982 22.91 10.6598 22.71 11.8998L21.38 19.8598C21.08 21.6298 19.38 23.0598 17.6 23.0598ZM11.99 3.42982C11.46 3.42982 10.93 3.58982 10.54 3.89982L3.61002 9.45982C3.05002 9.90982 2.65002 10.9498 2.77002 11.6598L4.10002 19.6198C4.28002 20.6698 5.33002 21.5598 6.40002 21.5598H17.6C18.67 21.5598 19.72 20.6698 19.9 19.6098L21.23 11.6498C21.34 10.9498 20.94 9.88982 20.39 9.44982L13.46 3.90982C13.06 3.58982 12.52 3.42982 11.99 3.42982Z" fill="#ABABAB"/>
</svg>
