<svg width="20" height="20" viewBox="0 0 20 20" fill="none" xmlns="http://www.w3.org/2000/svg">
<g clip-path="url(#clip0_119_1142)">
<path d="M15 11.25C15 11.02 15.1867 10.8333 15.4167 10.8333H16.25C16.48 10.8333 16.6667 11.02 16.6667 11.25C16.6667 11.48 16.48 11.6667 16.25 11.6667H15.4167C15.1867 11.6667 15 11.48 15 11.25ZM15.4167 15H16.25C16.48 15 16.6667 14.8133 16.6667 14.5833C16.6667 14.3533 16.48 14.1667 16.25 14.1667H15.4167C15.1867 14.1667 15 14.3533 15 14.5833C15 14.8133 15.1867 15 15.4167 15ZM12.0833 5H12.9167C13.1467 5 13.3333 4.81333 13.3333 4.58333C13.3333 4.35333 13.1467 4.16667 12.9167 4.16667H12.0833C11.8533 4.16667 11.6667 4.35333 11.6667 4.58333C11.6667 4.81333 11.8533 5 12.0833 5ZM15.4167 5H16.25C16.48 5 16.6667 4.81333 16.6667 4.58333C16.6667 4.35333 16.48 4.16667 16.25 4.16667H15.4167C15.1867 4.16667 15 4.35333 15 4.58333C15 4.81333 15.1867 5 15.4167 5ZM15.4167 8.33333H16.25C16.48 8.33333 16.6667 8.14667 16.6667 7.91667C16.6667 7.68667 16.48 7.5 16.25 7.5H15.4167C15.1867 7.5 15 7.68667 15 7.91667C15 8.14667 15.1867 8.33333 15.4167 8.33333ZM12.9167 7.5H12.0833C11.8533 7.5 11.6667 7.68667 11.6667 7.91667C11.6667 8.14667 11.8533 8.33333 12.0833 8.33333H12.9167C13.1467 8.33333 13.3333 8.14667 13.3333 7.91667C13.3333 7.68667 13.1467 7.5 12.9167 7.5ZM16.25 0H12.0833C10.0158 0 8.33333 1.6825 8.33333 3.75V6.25C8.33333 6.48 8.52 6.66667 8.75 6.66667C8.98 6.66667 9.16667 6.48 9.16667 6.25V3.75C9.16667 2.14167 10.475 0.833333 12.0833 0.833333H16.25C17.8583 0.833333 19.1667 2.14167 19.1667 3.75V16.25C19.1667 17.8583 17.8583 19.1667 16.25 19.1667H13.75C13.52 19.1667 13.3333 19.3533 13.3333 19.5833C13.3333 19.8133 13.52 20 13.75 20H16.25C18.3175 20 20 18.3175 20 16.25V3.75C20 1.6825 18.3175 0 16.25 0ZM12.5 13.2067V16.6667C12.5 18.505 11.005 20 9.16667 20H3.33333C1.495 20 0 18.505 0 16.6667V13.2067C0 12.0458 0.525 10.9692 1.43917 10.2533L3.93917 8.29667C5.3 7.2325 7.20167 7.2325 8.56083 8.29667L11.0617 10.2533C11.9758 10.9692 12.5008 12.0458 12.5008 13.2067H12.5ZM11.6667 13.2067C11.6667 12.3042 11.2592 11.4667 10.5467 10.9092L8.04667 8.9525C7.5175 8.53917 6.88333 8.33167 6.25 8.33167C5.61667 8.33167 4.9825 8.53917 4.4525 8.9525L1.95333 10.9092C1.24167 11.4667 0.833333 12.3042 0.833333 13.2067V16.6667C0.833333 18.045 1.955 19.1667 3.33333 19.1667H9.16667C10.545 19.1667 11.6667 18.045 11.6667 16.6667V13.2067ZM8.33333 13.75V15.4167C8.33333 16.1058 7.7725 16.6667 7.08333 16.6667H5.41667C4.7275 16.6667 4.16667 16.1058 4.16667 15.4167V13.75C4.16667 13.0608 4.7275 12.5 5.41667 12.5H7.08333C7.7725 12.5 8.33333 13.0608 8.33333 13.75ZM7.5 13.75C7.5 13.5208 7.3125 13.3333 7.08333 13.3333H5.41667C5.1875 13.3333 5 13.5208 5 13.75V15.4167C5 15.6458 5.1875 15.8333 5.41667 15.8333H7.08333C7.3125 15.8333 7.5 15.6458 7.5 15.4167V13.75Z" fill="#1E3350"/>
</g>
<defs>
<clipPath id="clip0_119_1142">
<rect width="20" height="20" fill="white"/>
</clipPath>
</defs>
</svg>
