<svg width="44" height="44" viewBox="0 0 44 44" fill="none" xmlns="http://www.w3.org/2000/svg">
<g clip-path="url(#clip0_230_303)">
<path d="M40.4004 6.93241C40.0635 5.15565 38.6302 3.76217 36.8326 3.487C36.4526 1.50373 34.7057 0 32.6133 0H11.1289C9.01871 0 7.26026 1.52934 6.90052 3.53762C5.2293 3.90363 3.9197 5.24468 3.59958 6.93241C1.56088 7.26662 0 9.04002 0 11.1719V43.1406C0 43.6152 0.384828 44 0.859375 44H43.1406C43.6152 44 44 43.6152 44 43.1406V11.1719C44 9.04002 42.4391 7.26662 40.4004 6.93241ZM11.1289 1.71875H32.6133C33.7337 1.71875 34.6894 2.4371 35.0441 3.4375H8.69808C9.05274 2.4371 10.0085 1.71875 11.1289 1.71875ZM7.82031 5.15625H36.1797C37.3001 5.15625 38.2559 5.8746 38.6105 6.875H5.38948C5.74415 5.8746 6.69995 5.15625 7.82031 5.15625ZM42.2812 42.2812H1.71875V11.1719C1.71875 9.7503 2.8753 8.59375 4.29688 8.59375H39.7031C41.1247 8.59375 42.2812 9.7503 42.2812 11.1719V42.2812Z" fill="#5FC1CF"/>
<path d="M18.7366 23.9859C18.2647 23.6454 17.7317 23.3595 17.1439 23.1248C17.7141 22.1819 18.0469 21.0581 18.0469 19.8516C18.0469 16.5345 15.541 13.8359 12.4609 13.8359C9.38085 13.8359 6.875 16.5345 6.875 19.8516C6.875 21.057 7.20723 22.1799 7.7764 23.1222C7.18841 23.3573 6.65732 23.6453 6.18527 23.986C4.36202 25.3016 3.4375 27.3514 3.4375 30.0781V36.3516C3.4375 36.8261 3.82233 37.2109 4.29688 37.2109H20.625C21.0995 37.2109 21.4844 36.8261 21.4844 36.3516V30.0781C21.4844 27.3514 20.5599 25.3016 18.7366 23.9859ZM12.4609 15.5547C14.5933 15.5547 16.3281 17.4823 16.3281 19.8516C16.3281 22.2209 14.5933 24.1484 12.4609 24.1484C10.3286 24.1484 8.59375 22.2209 8.59375 19.8516C8.59375 17.4823 10.3286 15.5547 12.4609 15.5547ZM19.7656 35.4922H18.0469V30.4219C18.0469 29.9473 17.662 29.5625 17.1875 29.5625C16.713 29.5625 16.3281 29.9473 16.3281 30.4219V35.4922H8.59375V30.4219C8.59375 29.9473 8.20892 29.5625 7.73438 29.5625C7.25983 29.5625 6.875 29.9473 6.875 30.4219V35.4922H5.15625V30.0781C5.15625 27.1556 6.40389 25.3189 8.94678 24.5231C9.90739 25.3627 11.1303 25.8672 12.4609 25.8672C13.7919 25.8672 15.015 25.3626 15.9756 24.5226C18.5184 25.3186 19.7656 27.1556 19.7656 30.0781V35.4922Z" fill="#5FC1CF"/>
<path d="M39.7128 17.1875H24.0625C23.588 17.1875 23.2031 17.5723 23.2031 18.0469C23.2031 18.5214 23.588 18.9062 24.0625 18.9062H39.7128C40.1874 18.9062 40.5722 18.5214 40.5722 18.0469C40.5722 17.5723 40.1875 17.1875 39.7128 17.1875Z" fill="#5FC1CF"/>
<path d="M37.9941 13.75H25.7812C25.3067 13.75 24.9219 14.1348 24.9219 14.6094C24.9219 15.0839 25.3067 15.4688 25.7812 15.4688H37.9941C38.4686 15.4688 38.8535 15.0839 38.8535 14.6094C38.8535 14.1348 38.4686 13.75 37.9941 13.75Z" fill="#5FC1CF"/>
<path d="M39.7031 25.0938H27.5C27.0255 25.0938 26.6406 25.4786 26.6406 25.9531C26.6406 26.4277 27.0255 26.8125 27.5 26.8125H39.7031C40.1777 26.8125 40.5625 26.4277 40.5625 25.9531C40.5625 25.4786 40.1777 25.0938 39.7031 25.0938Z" fill="#5FC1CF"/>
<path d="M31.9688 28.5312C31.4952 28.5312 31.1094 28.9171 31.1094 29.3906C31.1094 29.8641 31.4952 30.25 31.9688 30.25C32.4423 30.25 32.8281 29.8641 32.8281 29.3906C32.8281 28.9171 32.4423 28.5312 31.9688 28.5312Z" fill="#5FC1CF"/>
<path d="M28.5312 28.5312H24.2344C23.7609 28.5312 23.375 28.9171 23.375 29.3906C23.375 29.8641 23.7609 30.25 24.2344 30.25H28.5312C29.0048 30.25 29.3906 29.8641 29.3906 29.3906C29.3906 28.9171 29.0048 28.5312 28.5312 28.5312Z" fill="#5FC1CF"/>
<path d="M39.7031 28.5312H35.4062C34.9327 28.5312 34.5469 28.9171 34.5469 29.3906C34.5469 29.8641 34.9327 30.25 35.4062 30.25H39.7031C40.1766 30.25 40.5625 29.8641 40.5625 29.3906C40.5625 28.9171 40.1766 28.5312 39.7031 28.5312Z" fill="#5FC1CF"/>
<path d="M39.7031 31.9688C39.2287 31.9688 38.8438 32.3546 38.8438 32.8281C38.8438 33.3016 39.2287 33.6875 39.7031 33.6875C40.1766 33.6875 40.5625 33.3016 40.5625 32.8281C40.5625 32.3546 40.1766 31.9688 39.7031 31.9688Z" fill="#5FC1CF"/>
<path d="M36.2656 31.9688H24.0625C23.589 31.9688 23.2031 32.3546 23.2031 32.8281C23.2031 33.3016 23.589 33.6875 24.0625 33.6875H36.2656C36.7391 33.6875 37.125 33.3016 37.125 32.8281C37.125 32.3546 36.7391 31.9688 36.2656 31.9688Z" fill="#5FC1CF"/>
<path d="M36.2656 35.4062H24.0625C23.588 35.4062 23.2031 35.7911 23.2031 36.2656C23.2031 36.7402 23.588 37.125 24.0625 37.125H36.2656C36.7402 37.125 37.125 36.7402 37.125 36.2656C37.125 35.7911 36.7402 35.4062 36.2656 35.4062Z" fill="#5FC1CF"/>
</g>
<defs>
<clipPath id="clip0_230_303">
<rect width="44" height="44" fill="white"/>
</clipPath>
</defs>
</svg>
