<svg width="54" height="54" viewBox="0 0 54 54" fill="none" xmlns="http://www.w3.org/2000/svg">
<g clip-path="url(#clip0_207_1997)">
<path d="M48.18 15H5.82C5.07209 15 4.35481 15.2971 3.82596 15.826C3.29711 16.3548 3 17.0721 3 17.82V45.18C3 45.9279 3.29711 46.6452 3.82596 47.174C4.35481 47.7029 5.07209 48 5.82 48H48.18C48.9279 48 49.6452 47.7029 50.174 47.174C50.7029 46.6452 51 45.9279 51 45.18V17.82C51 17.0721 50.7029 16.3548 50.174 15.826C49.6452 15.2971 48.9279 15 48.18 15ZM48 45H6V18H48V45Z" fill="#5FC1CF"/>
<path d="M12.8398 29.1751C13.7299 29.1751 14.5999 28.9111 15.3399 28.4167C16.0799 27.9222 16.6567 27.2194 16.9973 26.3971C17.3379 25.5749 17.427 24.6701 17.2534 23.7971C17.0797 22.9242 16.6512 22.1224 16.0218 21.4931C15.3925 20.8637 14.5907 20.4352 13.7178 20.2615C12.8448 20.0879 11.94 20.177 11.1178 20.5176C10.2955 20.8582 9.5927 21.435 9.09823 22.175C8.60376 22.915 8.33984 23.785 8.33984 24.6751C8.33984 25.8685 8.81395 27.0131 9.65786 27.857C10.5018 28.7009 11.6464 29.1751 12.8398 29.1751ZM12.8398 22.2751C13.3169 22.2631 13.7867 22.3937 14.1892 22.65C14.5917 22.9064 14.9086 23.2769 15.0995 23.7143C15.2904 24.1516 15.3465 24.636 15.2608 25.1054C15.1751 25.5748 14.9514 26.0081 14.6182 26.3497C14.2851 26.6914 13.8577 26.926 13.3906 27.0236C12.9235 27.1212 12.4379 27.0773 11.9958 26.8975C11.5538 26.7178 11.1753 26.4103 10.9089 26.0144C10.6424 25.6186 10.5 25.1523 10.4998 24.6751C10.4996 24.0488 10.7443 23.4473 11.1814 22.9989C11.6186 22.5505 12.2138 22.2907 12.8398 22.2751Z" fill="#5FC1CF"/>
<path d="M11.8499 42L20.8499 33L25.6199 37.77L21.3899 42H24.3899L35.5799 30.81L44.9999 40.155V37.155L36.2999 28.5C36.1004 28.3022 35.8308 28.1912 35.5499 28.1912C35.2689 28.1912 34.9994 28.3022 34.7999 28.5L27.0599 36.24L21.5549 30.75C21.3554 30.5522 21.0858 30.4412 20.8049 30.4412C20.5239 30.4412 20.2544 30.5522 20.0549 30.75L8.87988 42H11.8499Z" fill="#5FC1CF"/>
<path d="M45.21 4.5C45.21 4.10218 45.0519 3.72064 44.7706 3.43934C44.4893 3.15804 44.1078 3 43.71 3H10.71C10.3121 3 9.93061 3.15804 9.6493 3.43934C9.368 3.72064 9.20996 4.10218 9.20996 4.5V6H45.21V4.5Z" fill="#5FC1CF"/>
<path d="M48.1802 10.5C48.1802 10.1022 48.0221 9.72064 47.7408 9.43934C47.4595 9.15804 47.078 9 46.6802 9H7.68018C7.28235 9 6.90082 9.15804 6.61952 9.43934C6.33821 9.72064 6.18018 10.1022 6.18018 10.5V12H48.1802V10.5Z" fill="#5FC1CF"/>
</g>
<defs>
<clipPath id="clip0_207_1997">
<rect width="54" height="54" fill="white"/>
</clipPath>
</defs>
</svg>
