<svg width="94" height="94" viewBox="0 0 94 94" fill="none" xmlns="http://www.w3.org/2000/svg">
<path d="M68.1249 56.179C67.8609 55.301 66.7779 54.89 65.6659 54.89C65.1772 54.8266 64.6809 54.9166 64.2456 55.1475C63.8103 55.3784 63.4574 55.7389 63.2359 56.179L57.5849 74.595C57.557 74.6908 57.5376 74.7888 57.5269 74.888C57.5269 75.825 58.9029 76.469 59.9269 76.469C60.5709 76.469 61.0689 76.269 61.2149 75.708L62.3269 71.814H69.0319L70.1449 75.708C70.2909 76.265 70.7889 76.469 71.4329 76.469C72.4579 76.469 73.8329 75.796 73.8329 74.888C73.8249 74.7884 73.8055 74.6901 73.7749 74.595L68.1249 56.179ZM63.1179 68.826L65.6649 59.838L68.2129 68.826H63.1179Z" fill="#5FC1CF"/>
<path d="M83.246 38.06H55.237V26.1L64.337 19.6C64.691 19.3472 64.9796 19.0134 65.1786 18.6266C65.3777 18.2398 65.4816 17.811 65.4816 17.376C65.4816 16.941 65.3777 16.5122 65.1786 16.1254C64.9796 15.7386 64.691 15.4048 64.337 15.152L55.125 8.572C54.7672 6.19055 53.5676 4.01625 51.7439 2.44353C49.9202 0.87082 47.5932 0.00388365 45.185 0L10.053 0C7.38767 0.00291163 4.83234 1.063 2.94767 2.94767C1.063 4.83234 0.00291163 7.38767 0 10.053L0 45.186C0.00317626 47.8512 1.06338 50.4062 2.94802 52.2907C4.83267 54.1751 7.38785 55.2351 10.053 55.238H38.061V67.2L28.961 73.7C28.607 73.9528 28.3184 74.2866 28.1194 74.6734C27.9203 75.0602 27.8164 75.489 27.8164 75.924C27.8164 76.359 27.9203 76.7878 28.1194 77.1746C28.3184 77.5614 28.607 77.8952 28.961 78.148L38.173 84.728C38.5308 87.1094 39.7304 89.2838 41.5541 90.8565C43.3778 92.4292 45.7048 93.2961 48.113 93.3H83.246C85.9118 93.2974 88.4677 92.2371 90.3527 90.352C92.2376 88.4668 93.2976 85.9109 93.3 83.245V48.113C93.2971 45.4475 92.2369 42.892 90.352 41.0073C88.4671 39.1226 85.9115 38.0626 83.246 38.06ZM10.053 49.771C8.83712 49.7697 7.67142 49.2861 6.81167 48.4263C5.95191 47.5666 5.46832 46.4009 5.467 45.185V10.052C5.46859 8.8363 5.9523 7.67086 6.81202 6.81132C7.67175 5.95178 8.8373 5.46832 10.053 5.467H45.185C46.4005 5.46859 47.5658 5.95216 48.4253 6.81167C49.2848 7.67118 49.7684 8.83647 49.77 10.052C49.77 10.4871 49.8739 10.9159 50.073 11.3027C50.2722 11.6896 50.5608 12.0233 50.915 12.276L58.048 17.376L50.915 22.476C50.561 22.7289 50.2724 23.0626 50.0732 23.4494C49.8741 23.8362 49.7701 24.2649 49.77 24.7V38.06H48.113C45.4478 38.0629 42.8925 39.123 41.008 41.0077C39.1235 42.8924 38.0636 45.4478 38.061 48.113V49.772L10.053 49.771ZM87.832 83.245C87.8307 84.4607 87.3472 85.6263 86.4877 86.486C85.6281 87.3457 84.4627 87.8294 83.247 87.831H48.113C46.8973 87.8294 45.7319 87.3457 44.8723 86.486C44.0128 85.6263 43.5293 84.4607 43.528 83.245C43.528 82.8099 43.4241 82.3811 43.225 81.9943C43.0258 81.6074 42.7372 81.2738 42.383 81.021L35.25 75.921L42.383 70.821C42.737 70.5681 43.0256 70.2344 43.2248 69.8476C43.4239 69.4608 43.5279 69.0321 43.528 68.597V48.113C43.5293 46.8973 44.0128 45.7318 44.8723 44.872C45.7319 44.0123 46.8973 43.5286 48.113 43.527H83.246C84.4617 43.5286 85.6272 44.0123 86.4867 44.872C87.3462 45.7318 87.8297 46.8973 87.831 48.113L87.832 83.245Z" fill="#5FC1CF"/>
<path d="M23.0551 28.6C22.3471 27.9111 21.7862 27.0858 21.4061 26.174C20.9752 25.2054 20.7628 24.1539 20.7841 23.094C20.7408 22.0745 20.9377 21.059 21.3592 20.1297C21.7806 19.2003 22.4146 18.3831 23.2101 17.744C24.632 16.6195 26.4063 16.0352 28.2181 16.095C29.461 16.0918 30.6977 16.27 31.8891 16.624V19.61C30.8979 19.3887 29.8875 19.2638 28.8721 19.237C26.0101 19.237 24.5791 20.6263 24.5791 23.405C24.5367 24.511 24.9208 25.5911 25.6521 26.422C25.9971 26.8078 26.4223 27.1135 26.8978 27.3176C27.3734 27.5218 27.8878 27.6195 28.4051 27.604H34.4401V28.848L32.9161 30.777H27.5631C25.6965 30.8597 24.4418 31.4506 23.7991 32.55C23.3829 33.2323 23.1773 34.0223 23.2081 34.821C23.2081 37.8483 25.2081 39.3623 29.2081 39.363C30.4399 39.3528 31.6645 39.1749 32.8481 38.834V40.141L31.1991 42.163C30.2642 42.4049 29.3029 42.5302 28.3371 42.536C26.2668 42.6195 24.2221 42.0538 22.4891 40.918C21.4804 40.2372 20.666 39.3057 20.126 38.215C19.586 37.1244 19.339 35.912 19.4091 34.697C19.3244 33.03 19.8808 31.3938 20.9641 30.124C21.5497 29.4784 22.2613 28.9597 23.0551 28.6Z" fill="black"/>
</svg>
