<svg width="22" height="20" viewBox="0 0 22 20" fill="none" xmlns="http://www.w3.org/2000/svg">
<path d="M21.4217 18.3251L17.203 8.10634C17.1251 7.91763 16.9929 7.75629 16.8232 7.64277C16.6535 7.52924 16.4539 7.46864 16.2498 7.46864C16.0456 7.46864 15.846 7.52924 15.6763 7.64277C15.5067 7.75629 15.3745 7.91763 15.2966 8.10634L11.0778 18.3251C11.0254 18.4504 10.9982 18.5849 10.9978 18.7207C10.9975 18.8566 11.024 18.9911 11.0758 19.1167C11.1276 19.2423 11.2038 19.3564 11.2998 19.4525C11.3959 19.5485 11.51 19.6247 11.6356 19.6765C11.7611 19.7284 11.8957 19.7549 12.0316 19.7546C12.1674 19.7542 12.3019 19.7271 12.4272 19.6746C12.5525 19.6222 12.6662 19.5455 12.7618 19.4489C12.8574 19.3524 12.933 19.238 12.9842 19.1121L13.8434 17.0313H18.6561L19.5153 19.1121C19.5932 19.3009 19.7254 19.4623 19.8951 19.5759C20.0649 19.6895 20.2645 19.7501 20.4688 19.7501C20.6382 19.75 20.805 19.7081 20.9545 19.6282C21.1039 19.5483 21.2313 19.4328 21.3255 19.2919C21.4197 19.151 21.4777 18.9891 21.4944 18.8205C21.5111 18.6519 21.486 18.4817 21.4212 18.3251H21.4217ZM14.6952 14.9688L16.25 11.2024L17.8048 14.9688H14.6952ZM11.555 14.0745C11.7152 13.8532 11.7811 13.5773 11.7381 13.3075C11.6951 13.0377 11.5468 12.796 11.3258 12.6354C11.3164 12.6284 10.6227 12.1137 9.61531 11.0074C11.4739 8.49119 12.5267 5.62853 12.9561 4.28134H14.4688C14.7423 4.28134 15.0046 4.17269 15.198 3.9793C15.3913 3.7859 15.5 3.5236 15.5 3.25009C15.5 2.97659 15.3913 2.71428 15.198 2.52089C15.0046 2.32749 14.7423 2.21884 14.4688 2.21884H9.03125V1.28134C9.03125 1.00784 8.9226 0.745534 8.7292 0.552138C8.53581 0.358741 8.2735 0.250092 8 0.250092C7.7265 0.250092 7.46419 0.358741 7.2708 0.552138C7.0774 0.745534 6.96875 1.00784 6.96875 1.28134V2.21884H1.53125C1.25775 2.21884 0.995443 2.32749 0.802046 2.52089C0.608649 2.71428 0.5 2.97659 0.5 3.25009C0.5 3.5236 0.608649 3.7859 0.802046 3.9793C0.995443 4.17269 1.25775 4.28134 1.53125 4.28134H10.7773C10.3311 5.54462 9.50938 7.53915 8.25594 9.36072C6.78359 7.40697 6.23656 6.14275 6.23234 6.13244C6.12456 5.88334 5.92291 5.68677 5.67114 5.58538C5.41937 5.48399 5.13778 5.48594 4.88743 5.59081C4.63709 5.69569 4.43819 5.89503 4.33387 6.1456C4.22954 6.39617 4.22821 6.67776 4.33016 6.92931C4.35734 6.994 5.01219 8.53384 6.80797 10.8635C6.85109 10.9193 6.89375 10.9737 6.93641 11.0281C5.09703 13.107 3.29234 14.3965 2.53719 14.8127C2.29706 14.9437 2.1188 15.1647 2.04162 15.4271C1.96444 15.6895 1.99465 15.9718 2.12563 16.212C2.2566 16.4521 2.47759 16.6304 2.74 16.7075C3.0024 16.7847 3.28472 16.7545 3.52484 16.6235C3.62609 16.5682 5.80297 15.3631 8.28875 12.6115C9.34438 13.7402 10.07 14.2727 10.1136 14.3037C10.2233 14.3834 10.3476 14.4406 10.4794 14.4722C10.6113 14.5038 10.748 14.509 10.8819 14.4877C11.0158 14.4664 11.1442 14.4189 11.2597 14.3479C11.3751 14.2769 11.4755 14.1838 11.555 14.074V14.0745Z" fill="#D11317"/>
</svg>
