<svg width="28" height="27" viewBox="0 0 28 27" fill="none" xmlns="http://www.w3.org/2000/svg">
<path d="M27.9438 25.3493L23.0889 11.8855C22.748 10.9997 21.9848 10.4522 21.108 10.4522C20.2312 10.4522 19.4843 10.9997 19.1109 11.9177L14.2723 25.3493C14.2126 25.4996 14.1839 25.6602 14.1879 25.8216C14.1918 25.9831 14.2284 26.1421 14.2954 26.2893C14.3624 26.4364 14.4585 26.5688 14.578 26.6785C14.6975 26.7882 14.838 26.873 14.9911 26.928C15.1442 26.9829 15.3068 27.0068 15.4694 26.9983C15.632 26.9898 15.7912 26.949 15.9377 26.8784C16.0841 26.8078 16.2148 26.7088 16.322 26.5873C16.4291 26.4657 16.5107 26.324 16.5617 26.1707L17.5684 23.3845H24.6315L25.6381 26.1707C25.8168 26.6699 26.2876 26.9759 26.791 26.9759C26.9209 26.9759 27.067 26.9598 27.1969 26.9115C27.5004 26.8025 27.7479 26.5784 27.8849 26.2885C28.0219 25.9986 28.0372 25.6666 27.9276 25.3654L27.9438 25.3493ZM18.4614 20.9526L21.1243 13.5604L23.7871 20.9526H18.4614ZM14.321 6.79632C10.6514 12.5458 7.3391 16.0245 3.31234 18.3436C3.17481 18.423 3.02288 18.4746 2.86521 18.4957C2.70755 18.5168 2.54724 18.5069 2.39344 18.4665C2.23965 18.4261 2.09538 18.3561 1.96888 18.2604C1.84237 18.1647 1.73612 18.0452 1.65617 17.9088C1.57444 17.7728 1.52092 17.6221 1.49874 17.4653C1.47656 17.3086 1.48617 17.149 1.52701 16.996C1.56784 16.843 1.63908 16.6996 1.73654 16.5742C1.83401 16.4489 1.95573 16.3441 2.09457 16.2661C5.50433 14.3013 8.29708 11.4829 11.4308 6.81243H1.21777C0.552056 6.81243 0 6.26486 0 5.60455C0 4.94424 0.552056 4.39667 1.21777 4.39667H7.30663V1.20788C7.30663 0.547571 7.85869 0 8.5244 0C9.19011 0 9.74217 0.547571 9.74217 1.20788V4.39667H15.831C16.4967 4.39667 17.0488 4.94424 17.0488 5.60455C17.0488 6.26486 16.4967 6.81243 15.831 6.81243H14.3048L14.321 6.79632ZM14.3859 18.5047C14.1749 18.5047 13.9638 18.4564 13.7689 18.3436C12.7135 17.7316 11.6906 17.0552 10.7326 16.3466C10.4742 16.1544 10.3034 15.8683 10.2578 15.5511C10.2121 15.234 10.2953 14.9119 10.4891 14.6556C10.6829 14.3993 10.9713 14.2299 11.2911 14.1846C11.6108 14.1393 11.9356 14.2218 12.194 14.414C13.0707 15.0743 14.0287 15.6863 15.0029 16.25C15.2336 16.3847 15.4132 16.5909 15.5142 16.8367C15.6152 17.0826 15.6319 17.3546 15.5618 17.6108C15.4917 17.8671 15.3386 18.0933 15.1261 18.2548C14.9137 18.4163 14.6536 18.5041 14.3859 18.5047Z" fill="black"/>
</svg>
