<svg width="65" height="59" viewBox="0 0 65 59" fill="none" xmlns="http://www.w3.org/2000/svg">
<path d="M58.375 12.25H36.5537L46.0125 2.79125L44 0.75L32.5 12.25L21 0.75L18.9587 2.79125L28.4463 12.25H6.625C5.10001 12.25 3.63747 12.8558 2.55914 13.9341C1.4808 15.0125 0.875 16.475 0.875 18V52.5C0.875 55.6625 3.4625 58.25 6.625 58.25H58.375C61.5375 58.25 64.125 55.6625 64.125 52.5V18C64.125 16.475 63.5192 15.0125 62.4409 13.9341C61.3625 12.8558 59.9 12.25 58.375 12.25ZM58.375 52.5H6.625V18H58.375V52.5ZM23.875 23.75V46.75L44 35.25L23.875 23.75Z" fill="#5FC1CF"/>
</svg>
