<svg width="55" height="53" viewBox="0 0 55 53" fill="none" xmlns="http://www.w3.org/2000/svg">
<path d="M17.9393 7.37158H12.6826V12.0508H42.3171V7.37158H21.6991" stroke="#5FC1CF" stroke-width="1.5" stroke-miterlimit="10" stroke-linecap="round" stroke-linejoin="round"/>
<path d="M41.3161 30.3773H13.6836C13.1308 30.3773 12.6826 29.9291 12.6826 29.3763V1.74363C12.6826 1.19084 13.1308 0.742676 13.6836 0.742676H41.3161C41.8689 0.742676 42.3171 1.19084 42.3171 1.74363V29.3762C42.3171 29.9291 41.8689 30.3773 41.3161 30.3773Z" stroke="#5FC1CF" stroke-width="1.5" stroke-miterlimit="10" stroke-linecap="round" stroke-linejoin="round"/>
<path d="M19.3233 22.8674H12.6826V26.6224H19.3233V22.8674Z" stroke="#5FC1CF" stroke-width="1.5" stroke-miterlimit="10" stroke-linecap="round" stroke-linejoin="round"/>
<path d="M42.3172 22.8674H26.6021V26.6224H42.3172V22.8674Z" stroke="#5FC1CF" stroke-width="1.5" stroke-miterlimit="10" stroke-linecap="round" stroke-linejoin="round"/>
<path d="M30.1699 22.8674H26.6021V26.6224H30.1699V22.8674Z" stroke="#5FC1CF" stroke-width="1.5" stroke-miterlimit="10" stroke-linecap="round" stroke-linejoin="round"/>
<path d="M42.3173 22.8674H36.7456V26.6224H42.3173V22.8674Z" stroke="#5FC1CF" stroke-width="1.5" stroke-miterlimit="10" stroke-linecap="round" stroke-linejoin="round"/>
<path d="M26.6021 26.6223V30.3772H41.3163C41.8691 30.3772 42.3172 29.9291 42.3172 29.3763V26.6223H26.6021Z" stroke="#5FC1CF" stroke-width="1.5" stroke-miterlimit="10" stroke-linecap="round" stroke-linejoin="round"/>
<path d="M34.0526 26.6223H26.6021V30.3772H34.0526V26.6223Z" stroke="#5FC1CF" stroke-width="1.5" stroke-miterlimit="10" stroke-linecap="round" stroke-linejoin="round"/>
<path d="M19.3232 30.3774H26.6019V17.7502C26.6019 17.4738 26.3779 17.2498 26.1015 17.2498H19.8237C19.5473 17.2498 19.3232 17.4738 19.3232 17.7502V30.3774Z" stroke="#5FC1CF" stroke-width="1.5" stroke-miterlimit="10" stroke-linecap="round" stroke-linejoin="round"/>
<path d="M12.1169 44.7604C12.1169 43.3675 11.3472 42.1551 10.2102 41.5234L6.19438 45.5393C5.87619 45.8575 5.44468 46.0362 4.99469 46.0362H0.805664V50.5607C0.805664 51.4978 1.56524 52.2574 2.50229 52.2574H10.4201C11.3572 52.2574 12.1168 51.4978 12.1168 50.5607L12.1169 44.7604Z" stroke="#5FC1CF" stroke-width="1.5" stroke-miterlimit="10" stroke-linecap="round" stroke-linejoin="round"/>
<path d="M26.1426 44.7604C26.1426 43.3675 25.373 42.1551 24.236 41.5234L20.2201 45.5393C19.902 45.8575 19.4705 46.0362 19.0205 46.0362H14.8315V50.5607C14.8315 51.4978 15.5911 52.2574 16.5282 52.2574H24.446C25.3831 52.2574 26.1426 51.4978 26.1426 50.5607V44.7604Z" stroke="#5FC1CF" stroke-width="1.5" stroke-miterlimit="10" stroke-linecap="round" stroke-linejoin="round"/>
<path d="M48.7696 52.2575H52.4978C53.4348 52.2575 54.1944 51.4978 54.1944 50.5608V44.7604C54.1944 43.3675 53.4247 42.1551 52.2878 41.5234L48.2719 45.5393C47.9537 45.8575 47.5222 46.0362 47.0722 46.0362H42.8833V50.5607C42.8833 51.4978 43.6429 52.2574 44.5799 52.2574H45.0098" stroke="#5FC1CF" stroke-width="1.5" stroke-miterlimit="10" stroke-linecap="round" stroke-linejoin="round"/>
<path d="M52.2872 41.5241C51.9085 41.3139 51.4893 41.168 51.044 41.1013C51.9974 40.356 52.611 39.1962 52.611 37.8923C52.611 35.5472 50.6285 33.665 48.2481 33.8304C46.2532 33.969 44.6331 35.576 44.4794 37.5698C44.3689 39.0033 45.0021 40.2943 46.0328 41.1005C44.2505 41.3668 42.8833 42.9039 42.8833 44.7604V46.0364" stroke="#5FC1CF" stroke-width="1.5" stroke-miterlimit="10" stroke-linecap="round" stroke-linejoin="round"/>
<path d="M34.246 45.5393L38.2613 41.5239C37.8826 41.3137 37.4634 41.1678 37.0182 41.1011C37.9715 40.3558 38.5851 39.196 38.5851 37.8921C38.5851 35.6432 36.7621 33.8201 34.5131 33.8201C32.2642 33.8201 30.441 35.6431 30.441 37.8921C30.441 39.1956 31.0542 40.355 32.0069 41.1003C30.2246 41.3666 28.8574 42.9037 28.8574 44.7601V46.0361H33.0463C33.4962 46.0363 33.9278 45.8575 34.246 45.5393Z" stroke="#5FC1CF" stroke-width="1.5" stroke-miterlimit="10" stroke-linecap="round" stroke-linejoin="round"/>
<path d="M40.1685 44.7604C40.1685 43.3675 39.3988 42.1551 38.2619 41.5234L34.246 45.5393C33.9278 45.8575 33.4963 46.0362 33.0463 46.0362H28.8574V50.5607C28.8574 51.4978 29.617 52.2574 30.554 52.2574H38.4719C39.4089 52.2574 40.1685 51.4978 40.1685 50.5607V44.7604Z" stroke="#5FC1CF" stroke-width="1.5" stroke-miterlimit="10" stroke-linecap="round" stroke-linejoin="round"/>
<path d="M20.2201 45.5394L24.2355 41.5241C23.8567 41.3139 23.4375 41.168 22.9923 41.1013C23.9456 40.356 24.5592 39.1962 24.5592 37.8923C24.5592 35.5472 22.5768 33.665 20.1963 33.8304C18.2015 33.969 16.5813 35.576 16.4276 37.5698C16.3172 39.0033 16.9504 40.2943 17.981 41.1005C16.1987 41.3668 14.8315 42.9039 14.8315 44.7604V46.0364H19.0205C19.4705 46.0365 19.902 45.8577 20.2201 45.5394Z" stroke="#5FC1CF" stroke-width="1.5" stroke-miterlimit="10" stroke-linecap="round" stroke-linejoin="round"/>
<path d="M2.72035 39.4981C2.99267 40.1308 3.41956 40.6815 3.95517 41.1005C2.17271 41.3668 0.805664 42.9038 0.805664 44.7604V46.0364H4.99458C5.44457 46.0364 5.87608 45.8576 6.19427 45.5394L10.2096 41.5241C9.83082 41.3139 9.41166 41.168 8.9664 41.1013C9.91977 40.356 10.5334 39.1962 10.5334 37.8923C10.5334 35.5472 8.55089 33.665 6.17042 33.8304C4.84344 33.9226 3.68285 34.665 3.00889 35.7384" stroke="#5FC1CF" stroke-width="1.5" stroke-miterlimit="10" stroke-linecap="round" stroke-linejoin="round"/>
</svg>
