<svg width="16" height="21" viewBox="0 0 16 21" fill="none" xmlns="http://www.w3.org/2000/svg">
<path d="M8 16.0001C7.46957 16.0001 6.96086 15.7894 6.58579 15.4143C6.21071 15.0392 6 14.5305 6 14.0001C6 12.8901 6.89 12.0001 8 12.0001C8.53043 12.0001 9.03914 12.2108 9.41421 12.5859C9.78929 12.961 10 13.4697 10 14.0001C10 14.5305 9.78929 15.0392 9.41421 15.4143C9.03914 15.7894 8.53043 16.0001 8 16.0001ZM14 19.0001V9.00011H2V19.0001H14ZM14 7.00011C14.5304 7.00011 15.0391 7.21082 15.4142 7.58589C15.7893 7.96097 16 8.46967 16 9.00011V19.0001C16 19.5305 15.7893 20.0392 15.4142 20.4143C15.0391 20.7894 14.5304 21.0001 14 21.0001H2C1.46957 21.0001 0.960859 20.7894 0.585786 20.4143C0.210714 20.0392 0 19.5305 0 19.0001V9.00011C0 7.89011 0.89 7.00011 2 7.00011H3V5.00011C3 3.67402 3.52678 2.40225 4.46447 1.46457C5.40215 0.526891 6.67392 0.000106812 8 0.000106812C8.65661 0.000106812 9.30679 0.129436 9.91342 0.380709C10.52 0.631983 11.0712 1.00028 11.5355 1.46457C11.9998 1.92887 12.3681 2.48006 12.6194 3.08669C12.8707 3.69332 13 4.3435 13 5.00011V7.00011H14ZM8 2.00011C7.20435 2.00011 6.44129 2.31618 5.87868 2.87879C5.31607 3.4414 5 4.20446 5 5.00011V7.00011H11V5.00011C11 4.20446 10.6839 3.4414 10.1213 2.87879C9.55871 2.31618 8.79565 2.00011 8 2.00011Z" fill="#D11317"/>
</svg>
