<svg width="24" height="24" viewBox="0 0 24 24" fill="none" xmlns="http://www.w3.org/2000/svg">
<path d="M5 5.00021H11C11.55 5.00021 12 4.55021 12 4.00021C12 3.45021 11.55 3.00021 11 3.00021H5C3.9 3.00021 3 3.90021 3 5.00021V19.0002C3 20.1002 3.9 21.0002 5 21.0002H11C11.55 21.0002 12 20.5502 12 20.0002C12 19.4502 11.55 19.0002 11 19.0002H5V5.00021Z" fill="#D11317"/>
<path d="M20.65 11.6502L17.86 8.86022C17.7905 8.78877 17.7012 8.7397 17.6036 8.71929C17.506 8.69888 17.4045 8.70805 17.3121 8.74564C17.2198 8.78322 17.1408 8.84751 17.0851 8.93028C17.0295 9.01304 16.9999 9.11051 17 9.21022V11.0002H10C9.45 11.0002 9 11.4502 9 12.0002C9 12.5502 9.45 13.0002 10 13.0002H17V14.7902C17 15.2402 17.54 15.4602 17.85 15.1402L20.64 12.3502C20.84 12.1602 20.84 11.8402 20.65 11.6502Z" fill="#D11317"/>
</svg>
