<svg width="20" height="20" viewBox="0 0 20 20" fill="none" xmlns="http://www.w3.org/2000/svg">
<g id="more 2">
<path id="Vector" d="M4.16667 8.33331C3.25 8.33331 2.5 9.08331 2.5 9.99998C2.5 10.9166 3.25 11.6666 4.16667 11.6666C5.08333 11.6666 5.83333 10.9166 5.83333 9.99998C5.83333 9.08331 5.08333 8.33331 4.16667 8.33331Z" stroke="#1A138E" stroke-width="1.5"/>
<path id="Vector_2" d="M15.8334 8.33331C14.9167 8.33331 14.1667 9.08331 14.1667 9.99998C14.1667 10.9166 14.9167 11.6666 15.8334 11.6666C16.7501 11.6666 17.5001 10.9166 17.5001 9.99998C17.5001 9.08331 16.7501 8.33331 15.8334 8.33331Z" stroke="#1A138E" stroke-width="1.5"/>
<path id="Vector_3" d="M9.99992 8.33331C9.08325 8.33331 8.33325 9.08331 8.33325 9.99998C8.33325 10.9166 9.08325 11.6666 9.99992 11.6666C10.9166 11.6666 11.6666 10.9166 11.6666 9.99998C11.6666 9.08331 10.9166 8.33331 9.99992 8.33331Z" stroke="#1A138E" stroke-width="1.5"/>
</g>
</svg>
