<svg width="26" height="23" viewBox="0 0 26 23" fill="none" xmlns="http://www.w3.org/2000/svg">
<path d="M0.5 2.5C0.5 1.83696 0.763392 1.20107 1.23223 0.732233C1.70107 0.263392 2.33696 0 3 0H23C23.663 0 24.2989 0.263392 24.7678 0.732233C25.2366 1.20107 25.5 1.83696 25.5 2.5V16.25C25.5 16.913 25.2366 17.5489 24.7678 18.0178C24.2989 18.4866 23.663 18.75 23 18.75H17.2675L13.8837 22.1338C13.6493 22.3681 13.3315 22.4997 13 22.4997C12.6685 22.4997 12.3507 22.3681 12.1163 22.1338L8.7325 18.75H3C2.33696 18.75 1.70107 18.4866 1.23223 18.0178C0.763392 17.5489 0.5 16.913 0.5 16.25V2.5ZM23 2.5H3V16.25H9.25C9.58149 16.2501 9.89938 16.3818 10.1337 16.6162L13 19.4825L15.8663 16.6162C16.1006 16.3818 16.4185 16.2501 16.75 16.25H23V2.5ZM5.5 6.875C5.5 6.54348 5.6317 6.22554 5.86612 5.99112C6.10054 5.7567 6.41848 5.625 6.75 5.625H19.25C19.5815 5.625 19.8995 5.7567 20.1339 5.99112C20.3683 6.22554 20.5 6.54348 20.5 6.875C20.5 7.20652 20.3683 7.52446 20.1339 7.75888C19.8995 7.9933 19.5815 8.125 19.25 8.125H6.75C6.41848 8.125 6.10054 7.9933 5.86612 7.75888C5.6317 7.52446 5.5 7.20652 5.5 6.875ZM5.5 11.875C5.5 11.5435 5.6317 11.2255 5.86612 10.9911C6.10054 10.7567 6.41848 10.625 6.75 10.625H14.25C14.5815 10.625 14.8995 10.7567 15.1339 10.9911C15.3683 11.2255 15.5 11.5435 15.5 11.875C15.5 12.2065 15.3683 12.5245 15.1339 12.7589C14.8995 12.9933 14.5815 13.125 14.25 13.125H6.75C6.41848 13.125 6.10054 12.9933 5.86612 12.7589C5.6317 12.5245 5.5 12.2065 5.5 11.875Z" fill="black"/>
</svg>
