<svg width="16" height="16" viewBox="0 0 16 16" fill="none" xmlns="http://www.w3.org/2000/svg">
<path d="M5.33331 14.8798C5.14665 14.8798 4.9533 14.8331 4.77997 14.7398C4.39997 14.5398 4.16665 14.1398 4.16665 13.7131V12.7665C2.15331 12.5598 0.833313 11.0798 0.833313 8.95976V4.9598C0.833313 2.66646 2.37331 1.12646 4.66665 1.12646H11.3333C13.6266 1.12646 15.1666 2.66646 15.1666 4.9598V8.95976C15.1666 11.2531 13.6266 12.7931 11.3333 12.7931H8.81997L5.97996 14.6865C5.78663 14.8131 5.55998 14.8798 5.33331 14.8798ZM4.66665 2.11979C2.94665 2.11979 1.83331 3.23313 1.83331 4.95312V8.95317C1.83331 10.6732 2.94665 11.7865 4.66665 11.7865C4.93998 11.7865 5.16665 12.0132 5.16665 12.2865V13.7065C5.16665 13.7932 5.21998 13.8331 5.25332 13.8531C5.28665 13.8731 5.35332 13.8931 5.42666 13.8465L8.39333 11.8732C8.47333 11.8198 8.57332 11.7865 8.67332 11.7865H11.34C13.06 11.7865 14.1733 10.6732 14.1733 8.95317V4.95312C14.1733 3.23313 13.06 2.11979 11.34 2.11979H4.66665Z" fill="#606CBF"/>
<path d="M7.9999 8.07324C7.72656 8.07324 7.4999 7.84658 7.4999 7.57324V7.43327C7.4999 6.65993 8.06655 6.27993 8.27989 6.13326C8.52655 5.96659 8.60655 5.85326 8.60655 5.67993C8.60655 5.3466 8.33323 5.07324 7.9999 5.07324C7.66656 5.07324 7.39325 5.3466 7.39325 5.67993C7.39325 5.95326 7.16658 6.17993 6.89325 6.17993C6.61992 6.17993 6.39325 5.95326 6.39325 5.67993C6.39325 4.79326 7.11323 4.07324 7.9999 4.07324C8.88656 4.07324 9.60655 4.79326 9.60655 5.67993C9.60655 6.43993 9.04657 6.81992 8.8399 6.95992C8.5799 7.13325 8.4999 7.2466 8.4999 7.43327V7.57324C8.4999 7.85324 8.27323 8.07324 7.9999 8.07324Z" fill="#606CBF"/>
<path d="M8 9.7334C7.72 9.7334 7.5 9.50673 7.5 9.2334C7.5 8.96007 7.72667 8.7334 8 8.7334C8.27333 8.7334 8.5 8.96007 8.5 9.2334C8.5 9.50673 8.28 9.7334 8 9.7334Z" fill="#606CBF"/>
</svg>
