<svg width="36" height="36" viewBox="0 0 36 36" fill="none" xmlns="http://www.w3.org/2000/svg">
<circle cx="18" cy="18" r="18" fill="white" fill-opacity="0.5"/>
<path d="M12.1667 16.3333C11.25 16.3333 10.5 17.0833 10.5 18C10.5 18.9166 11.25 19.6666 12.1667 19.6666C13.0833 19.6666 13.8333 18.9166 13.8333 18C13.8333 17.0833 13.0833 16.3333 12.1667 16.3333Z" stroke="#1A138E" stroke-width="1.5"/>
<path d="M23.8333 16.3333C22.9166 16.3333 22.1666 17.0833 22.1666 18C22.1666 18.9166 22.9166 19.6666 23.8333 19.6666C24.75 19.6666 25.5 18.9166 25.5 18C25.5 17.0833 24.75 16.3333 23.8333 16.3333Z" stroke="#1A138E" stroke-width="1.5"/>
<path d="M18 16.3333C17.0834 16.3333 16.3334 17.0833 16.3334 18C16.3334 18.9166 17.0834 19.6666 18 19.6666C18.9167 19.6666 19.6667 18.9166 19.6667 18C19.6667 17.0833 18.9167 16.3333 18 16.3333Z" stroke="#1A138E" stroke-width="1.5"/>
</svg>
