<svg width="26" height="25" viewBox="0 0 26 25" fill="none" xmlns="http://www.w3.org/2000/svg">
<path d="M13.0001 9.70837C14.2397 9.70837 15.2501 8.69796 15.2501 7.45837C15.2501 6.21879 14.2397 5.20837 13.0001 5.20837C11.7605 5.20837 10.7501 6.21879 10.7501 7.45837C10.7501 8.69796 11.7605 9.70837 13.0001 9.70837Z" stroke="#B1B1B1" stroke-linecap="round" stroke-linejoin="round"/>
<path d="M7.57281 19.7915C8.8124 19.7915 9.82281 18.7811 9.82281 17.5415C9.82281 16.3019 8.8124 15.2915 7.57281 15.2915C6.33323 15.2915 5.32281 16.3019 5.32281 17.5415C5.32281 18.7811 6.32281 19.7915 7.57281 19.7915Z" stroke="#B1B1B1" stroke-linecap="round" stroke-linejoin="round"/>
<path d="M18.4271 19.7915C19.6666 19.7915 20.6771 18.7811 20.6771 17.5415C20.6771 16.3019 19.6666 15.2915 18.4271 15.2915C17.1875 15.2915 16.1771 16.3019 16.1771 17.5415C16.1771 18.7811 17.1875 19.7915 18.4271 19.7915Z" stroke="#B1B1B1" stroke-linecap="round" stroke-linejoin="round"/>
</svg>
