<svg width="34" height="35" viewBox="0 0 34 35" fill="none" xmlns="http://www.w3.org/2000/svg">
<path fill-rule="evenodd" clip-rule="evenodd" d="M24.2741 2.1157L24.3758 2.14345C26.0717 2.59824 27.4144 2.95745 28.4705 3.33978C29.5512 3.72982 30.433 4.17537 31.1592 4.85524C32.216 5.8458 32.9553 7.12752 33.2836 8.53828C33.5102 9.50645 33.4562 10.4931 33.2527 11.6232C33.0569 12.7301 32.6977 14.0729 32.2429 15.7672L31.4166 18.8489C30.9634 20.5432 30.6026 21.886 30.2218 22.9436C29.8302 24.0228 29.3847 24.9046 28.7048 25.6307C27.7466 26.6539 26.5149 27.3805 25.1559 27.7243C24.7577 28.6372 24.1775 29.4592 23.4508 30.1401C22.7247 30.82 21.8429 31.2655 20.7622 31.6571C19.7061 32.0395 18.3633 32.3987 16.669 32.8535L16.5657 32.8812C14.8699 33.3344 13.5287 33.6937 12.4217 33.8925C11.2917 34.0945 10.305 34.1485 9.33532 33.9234C7.92475 33.5939 6.64356 32.8535 5.65382 31.7959C4.97549 31.0713 4.52841 30.1895 4.13682 29.1087C3.75603 28.0527 3.39682 26.7099 2.94203 25.0141L2.1157 21.9338C1.66245 20.238 1.3017 18.8967 1.10437 17.7898C0.902408 16.6598 0.848449 15.6731 1.07353 14.7034C1.40297 13.2928 2.14336 12.0116 3.20103 11.0219C3.92562 10.3436 4.80745 9.89649 5.88816 9.50491C6.9442 9.12412 8.28699 8.76491 9.98128 8.31012L10.0337 8.2947L11.1915 7.98637C11.7958 5.82957 12.3262 4.30487 13.3622 3.19949C14.3521 2.14238 15.6333 1.40255 17.0437 1.07353C18.0134 0.848449 18.9985 0.902408 20.1301 1.10437C21.2354 1.3017 22.5782 1.66245 24.2741 2.1157ZM10.4931 10.5671C8.80807 11.0188 7.60095 11.3457 6.67287 11.6802C5.73245 12.0194 5.18207 12.3339 4.78124 12.71C4.05766 13.3873 3.5512 14.264 3.32591 15.2291C3.20257 15.7656 3.20412 16.4008 3.38141 17.3828C3.5587 18.3803 3.89324 19.629 4.36345 21.3865L5.16203 24.365C5.63224 26.1225 5.96832 27.3713 6.31212 28.3225C6.65128 29.2629 6.96578 29.8148 7.34195 30.2157C8.01922 30.9392 8.89588 31.4457 9.86103 31.671C10.396 31.7943 11.0327 31.7912 12.0147 31.6155C13.0122 31.4382 14.2609 31.1037 16.0184 30.6335C17.7759 30.1617 19.0247 29.8272 19.9774 29.4818C20.9163 29.1427 21.4682 28.8282 21.8691 28.4535C22.0818 28.2531 22.2745 28.0373 22.4487 27.8076C22.1627 27.7667 21.8779 27.7179 21.5947 27.6611C20.5587 27.4545 19.313 27.1215 17.779 26.7099L17.6896 26.6868C15.9953 26.232 14.6525 25.8728 13.5965 25.4905C12.5158 25.1004 11.6339 24.6549 10.9078 23.975C9.85045 22.9846 9.1106 21.7029 8.78187 20.292C8.55678 19.3238 8.61074 18.3371 8.8127 17.2071C9.01003 16.1002 9.37078 14.7574 9.82403 13.0631L10.4931 10.5671ZM19.7231 3.38141C18.7395 3.20412 18.1043 3.20103 17.5694 3.32591C16.6042 3.5512 15.7276 4.05766 15.0503 4.78124C14.3781 5.49812 13.9634 6.60812 13.245 9.24128C13.1278 9.66987 13.0045 10.1308 12.8704 10.6319L12.0718 13.6104C11.6016 15.3679 11.267 16.6166 11.0897 17.6141C10.9124 18.5961 10.9094 19.2328 11.0342 19.7678C11.2595 20.7329 11.766 21.6096 12.4896 22.2869C12.8904 22.663 13.4423 22.976 14.3812 23.3167C15.3339 23.6605 16.5827 23.995 18.3402 24.4668C19.9204 24.8907 21.0921 25.2037 22.0448 25.3918C22.9929 25.5814 23.6374 25.6277 24.1646 25.5629C24.2802 25.5475 24.3897 25.529 24.4976 25.5043C25.4628 25.279 26.3394 24.7726 27.0167 24.049C27.3929 23.6482 27.7074 23.0962 28.0465 22.1574C28.3903 21.2046 28.7249 19.9559 29.1966 18.1984L29.9952 15.2199C30.4654 13.4624 30.8 12.2136 30.9772 11.2162C31.153 10.2341 31.1576 9.59741 31.0327 9.06245C30.8075 8.0973 30.301 7.22064 29.5774 6.54337C29.1766 6.1672 28.6247 5.85424 27.6858 5.51353C26.7315 5.16974 25.4843 4.8352 23.7268 4.36345C21.9693 3.89324 20.7205 3.5587 19.7231 3.38141ZM16.0385 14.1176C16.0778 13.9709 16.1457 13.8334 16.2382 13.7129C16.3307 13.5925 16.446 13.4914 16.5776 13.4155C16.7092 13.3396 16.8544 13.2904 17.005 13.2707C17.1556 13.251 17.3086 13.2611 17.4553 13.3005L24.9015 15.2954C25.1895 15.382 25.4324 15.5774 25.5788 15.8401C25.7251 16.1028 25.7633 16.4122 25.6853 16.7027C25.6072 16.9931 25.4191 17.2417 25.1608 17.3957C24.9026 17.5498 24.5944 17.5971 24.3018 17.5277L16.8556 15.5328C16.5597 15.4533 16.3074 15.2596 16.1542 14.9943C16.001 14.7289 15.9594 14.4136 16.0385 14.1176ZM14.8406 18.5853C14.88 18.4385 14.9479 18.3008 15.0405 18.1802C15.1331 18.0596 15.2486 17.9585 15.3803 17.8826C15.5121 17.8067 15.6575 17.7575 15.8082 17.7379C15.959 17.7183 16.1122 17.7286 16.2589 17.7682L20.7252 18.9646C21.0214 19.0439 21.274 19.2376 21.4274 19.5032C21.5807 19.7688 21.6223 20.0844 21.543 20.3806C21.4637 20.6768 21.2699 20.9294 21.0044 21.0828C20.7388 21.2362 20.4232 21.2778 20.127 21.1985L15.6592 20.0006C15.3633 19.9211 15.111 19.7274 14.9578 19.462C14.8046 19.1967 14.763 18.8813 14.8422 18.5853" fill="black"/>
</svg>
