<svg width="18" height="19" viewBox="0 0 18 19" fill="none" xmlns="http://www.w3.org/2000/svg">
<path fill-rule="evenodd" clip-rule="evenodd" d="M2.00017 7C2.00017 5.14348 2.73767 3.36301 4.05043 2.05025C5.36318 0.737498 7.14366 0 9.00017 0C10.8567 0 12.6372 0.737498 13.9499 2.05025C15.2627 3.36301 16.0002 5.14348 16.0002 7V10.764L17.8222 14.408C17.906 14.5757 17.9457 14.7621 17.9372 14.9494C17.9288 15.1368 17.8726 15.3188 17.774 15.4783C17.6754 15.6379 17.5377 15.7695 17.3739 15.8608C17.2101 15.9521 17.0257 16 16.8382 16H12.8742C12.6517 16.8582 12.1506 17.6183 11.4494 18.1609C10.7483 18.7035 9.88677 18.9979 9.00017 18.9979C8.11358 18.9979 7.25208 18.7035 6.55091 18.1609C5.84975 17.6183 5.34861 16.8582 5.12617 16H1.16217C0.974652 16 0.790236 15.9521 0.626441 15.8608C0.462647 15.7695 0.324912 15.6379 0.22632 15.4783C0.127727 15.3188 0.0715494 15.1368 0.063123 14.9494C0.0546966 14.7621 0.0943009 14.5757 0.178175 14.408L2.00017 10.764V7ZM7.26817 16C7.44372 16.304 7.69619 16.5565 8.00022 16.732C8.30425 16.9075 8.64912 16.9999 9.00017 16.9999C9.35123 16.9999 9.6961 16.9075 10.0001 16.732C10.3042 16.5565 10.5566 16.304 10.7322 16H7.26817ZM9.00017 2C7.67409 2 6.40232 2.52678 5.46464 3.46447C4.52696 4.40215 4.00017 5.67392 4.00017 7V10.764C4.00015 11.0743 3.92792 11.3804 3.78917 11.658L2.61917 14H15.3822L14.2122 11.658C14.0731 11.3805 14.0005 11.0744 14.0002 10.764V7C14.0002 5.67392 13.4734 4.40215 12.5357 3.46447C11.598 2.52678 10.3263 2 9.00017 2Z" fill="#D11317"/>
</svg>
