<svg width="19" height="20" viewBox="0 0 19 20" fill="none" xmlns="http://www.w3.org/2000/svg">
<path d="M17.839 12.661L16.0625 10.8846V8.53125C16.0605 6.90496 15.4555 5.33718 14.3645 4.13108C13.2736 2.92498 11.7742 2.16624 10.1562 2.00156V0.65625H8.84375V2.00156C7.22581 2.16624 5.72641 2.92498 4.63546 4.13108C3.54452 5.33718 2.93954 6.90496 2.9375 8.53125V10.8846L1.16103 12.661C1.03795 12.7841 0.968787 12.951 0.96875 13.125V15.0938C0.96875 15.2678 1.03789 15.4347 1.16096 15.5578C1.28403 15.6809 1.45095 15.75 1.625 15.75H6.21875V16.2599C6.20447 17.0924 6.49792 17.901 7.04286 18.5306C7.58779 19.1601 8.34589 19.5665 9.17188 19.6717C9.62809 19.717 10.0887 19.6662 10.5241 19.5228C10.9596 19.3793 11.3601 19.1463 11.7001 18.8387C12.0401 18.5312 12.3119 18.1558 12.4981 17.7369C12.6843 17.318 12.7807 16.8647 12.7812 16.4062V15.75H17.375C17.549 15.75 17.716 15.6809 17.839 15.5578C17.9621 15.4347 18.0312 15.2678 18.0312 15.0938V13.125C18.0312 12.951 17.962 12.7841 17.839 12.661ZM11.4688 16.4062C11.4688 16.9284 11.2613 17.4292 10.8921 17.7984C10.5229 18.1676 10.0221 18.375 9.5 18.375C8.97785 18.375 8.4771 18.1676 8.10788 17.7984C7.73867 17.4292 7.53125 16.9284 7.53125 16.4062V15.75H11.4688V16.4062ZM16.7188 14.4375H2.28125V13.3967L4.05772 11.6202C4.1808 11.4972 4.24996 11.3303 4.25 11.1562V8.53125C4.25 7.13886 4.80312 5.80351 5.78769 4.81894C6.77225 3.83437 8.10761 3.28125 9.5 3.28125C10.8924 3.28125 12.2277 3.83437 13.2123 4.81894C14.1969 5.80351 14.75 7.13886 14.75 8.53125V11.1562C14.75 11.3303 14.8192 11.4972 14.9423 11.6202L16.7188 13.3967V14.4375Z" fill="black"/>
</svg>
