<svg width="33" height="33" viewBox="0 0 33 33" fill="none" xmlns="http://www.w3.org/2000/svg">
<g clip-path="url(#clip0_82_217)">
<path d="M12.7868 7.22798C9.55927 8.4411 7.92223 12.0499 9.13534 15.2774L10.1945 18.0953C10.4181 18.6901 10.5054 19.6922 10.3937 20.3128L9.9724 22.5967C9.71258 24.0074 10.6705 25.1052 12.0993 25.0578C16.8296 24.8823 21.3637 23.178 25.0384 20.1943C26.0717 19.3609 26.0644 17.7723 25.0177 16.9416L23.1963 15.5007C22.7132 15.1036 22.1189 14.2921 21.8953 13.6973L20.8361 10.8794C19.6267 7.66166 16.0045 6.01853 12.7868 7.22798Z" stroke="#1E3350" stroke-width="1.5" stroke-miterlimit="10" stroke-linecap="round"/>
<path d="M14.6969 6.8328C14.3616 6.85866 14.024 6.90769 13.6875 6.98963C12.7075 7.22446 11.8361 7.62989 11.0892 8.18885C11.1007 7.36101 11.6122 6.5901 12.4312 6.28224C13.2503 5.97439 14.1429 6.21754 14.6969 6.8328Z" stroke="#1E3350" stroke-width="1.5" stroke-miterlimit="10" stroke-linecap="round" stroke-linejoin="round"/>
<path d="M21.6309 21.876C22.2357 23.4848 21.4141 25.2959 19.8052 25.9007C19.0057 26.2012 18.14 26.1482 17.4156 25.8196C16.6912 25.4909 16.0811 24.8745 15.7806 24.075" stroke="#1E3350" stroke-width="1.5" stroke-miterlimit="10"/>
<circle cx="19.2522" cy="7.43529" r="2.5" transform="rotate(-20.5998 19.2522 7.43529)" fill="#FF0000"/>
</g>
<defs>
<clipPath id="clip0_82_217">
<rect width="25" height="25" fill="white" transform="translate(0 8.79596) rotate(-20.5998)"/>
</clipPath>
</defs>
</svg>
