<svg width="200" height="155" viewBox="0 0 200 155" fill="none" xmlns="http://www.w3.org/2000/svg">
<path d="M26.0375 114.381C10.6211 89.1755 5.06476 34.1579 55.5785 25.3964C93.3403 18.8468 113.261 49.517 121.481 49.517C139.91 49.517 141.13 27.3838 164.392 35.3337C204.162 48.9252 187.384 109.502 174.284 125.086C135.15 171.642 52.6424 157.879 26.0375 114.381Z" fill="#F6F7FF"/>
<path d="M31.054 48.913C32.6237 46.9753 47.195 29.5967 71.1245 30.1301C93.2134 30.6225 114.635 46.1843 116.411 61.2466C117.918 74.0314 104.644 81.1289 109.345 89.2654C113.768 96.9212 126.568 92.4498 137.967 102.136C145.72 108.724 150.779 120.126 147.605 129.513C143.134 142.738 124.084 146.75 117.256 148.188C93.0422 153.288 59.4843 146.553 39.0852 123.398C21.2441 103.148 13.5896 70.477 31.054 48.9121V48.913Z" fill="#F6F7FF"/>
<path d="M87.1548 136.367L87.1529 135.414C87.8987 135.412 88.6548 135.402 89.4006 135.383L89.4223 136.335C88.6702 136.355 87.9073 136.365 87.1548 136.367ZM84.9315 136.347C84.179 136.332 83.4161 136.307 82.664 136.275L82.701 135.323C83.4463 135.355 84.2029 135.379 84.9487 135.394L84.9315 136.347V136.347ZM91.6442 136.253L91.6026 135.301C92.3493 135.265 93.1045 135.22 93.8475 135.166L93.9094 136.117C93.1601 136.171 92.398 136.217 91.6442 136.254V136.253ZM80.4489 136.154C79.6986 136.104 78.9388 136.045 78.1913 135.978L78.2672 135.029C79.0084 135.095 79.7614 135.154 80.5053 135.202L80.4489 136.154ZM96.1259 135.93L96.0441 134.981C96.7881 134.909 97.5406 134.828 98.2805 134.739L98.383 135.686C97.6364 135.776 96.8766 135.858 96.1259 135.93ZM75.9825 135.756C75.2345 135.672 74.4779 135.579 73.733 135.478L73.8482 134.533C74.5863 134.633 75.3366 134.726 76.0778 134.809L75.9825 135.756ZM100.59 135.393L100.466 134.449C101.209 134.341 101.957 134.222 102.689 134.097L102.834 135.037C102.095 135.164 101.34 135.283 100.59 135.392V135.393ZM71.5346 135.153C70.7902 135.035 70.0377 134.906 69.2983 134.77L69.4532 133.831C70.1863 133.966 70.9321 134.094 71.6697 134.211L71.5346 135.153ZM105.025 134.634L104.859 133.697C105.596 133.552 106.337 133.394 107.062 133.231L107.252 134.163C106.519 134.328 105.77 134.487 105.026 134.634H105.025ZM67.1143 134.343C66.3745 134.189 65.6278 134.024 64.8956 133.853L65.0907 132.923C65.8162 133.092 66.5556 133.255 67.2891 133.408L67.1143 134.343ZM109.421 133.641L109.209 132.715C109.938 132.529 110.67 132.331 111.385 132.127L111.621 133.047C110.898 133.253 110.158 133.454 109.421 133.641ZM62.7324 133.321C62.0002 133.131 61.2617 132.93 60.5367 132.723L60.773 131.803C61.4907 132.009 62.2225 132.208 62.9479 132.396L62.7324 133.321V133.321ZM113.761 132.401L113.5 131.489C114.221 131.259 114.941 131.018 115.639 130.77L115.926 131.673C115.22 131.924 114.491 132.168 113.761 132.401L113.761 132.401ZM58.3988 132.084C57.6761 131.858 56.9471 131.619 56.2325 131.375L56.5103 130.469C57.2181 130.71 57.9399 130.946 58.6554 131.17L58.3988 132.084ZM118.027 130.891L117.713 129.998C118.419 129.722 119.122 129.432 119.802 129.137L120.145 130.018C119.456 130.317 118.743 130.611 118.027 130.891ZM54.1253 130.627C53.413 130.363 52.6962 130.087 51.9942 129.806L52.3149 128.915C53.0097 129.194 53.7193 129.467 54.4244 129.727L54.1253 130.627ZM122.192 129.086L121.819 128.218C122.505 127.89 123.185 127.547 123.84 127.199L124.246 128.05C123.58 128.404 122.889 128.752 122.192 129.086V129.086ZM49.9259 128.946C49.2271 128.644 48.5243 128.33 47.8373 128.011L48.2013 127.138C48.8811 127.454 49.5763 127.765 50.2679 128.064L49.9259 128.946ZM45.8141 127.037C45.1312 126.697 44.4455 126.343 43.7756 125.986L44.184 125.136C44.8466 125.489 45.5246 125.839 46.1999 126.176L45.8141 127.038V127.037ZM126.219 126.947L125.779 126.115C126.437 125.728 127.086 125.325 127.706 124.918L128.183 125.727C127.551 126.142 126.89 126.552 126.219 126.948V126.947ZM41.8053 124.897C41.1413 124.518 40.4751 124.124 39.8255 123.728L40.2781 122.903C40.9204 123.295 41.579 123.684 42.2353 124.059L41.8053 124.897ZM130.051 124.437L129.542 123.65C130.168 123.198 130.78 122.737 131.36 122.278L131.902 123.041C131.311 123.508 130.688 123.977 130.051 124.437ZM37.9171 122.523C37.2748 122.105 36.6311 121.671 36.0046 121.236L36.5019 120.44C37.1212 120.871 37.7572 121.299 38.3918 121.713L37.9171 122.523ZM133.654 121.587L133.078 120.853C133.66 120.345 134.224 119.825 134.754 119.307L135.367 120.007C134.825 120.536 134.249 121.068 133.654 121.587ZM34.1667 119.916C33.5497 119.459 32.9322 118.986 32.3305 118.51L32.8721 117.748C33.4661 118.217 34.0763 118.685 34.6857 119.136L34.1662 119.916H34.1667ZM136.959 118.354L136.305 117.697C136.822 117.124 137.317 116.536 137.776 115.948L138.473 116.554C138 117.159 137.49 117.765 136.958 118.354H136.959ZM30.5725 117.076C29.9835 116.58 29.395 116.069 28.8227 115.555L29.4081 114.829C29.9731 115.336 30.5549 115.841 31.1362 116.331L30.573 117.076H30.5725ZM139.83 114.676L139.09 114.129C139.515 113.49 139.917 112.83 140.282 112.167L141.063 112.646C140.684 113.332 140.269 114.016 139.83 114.676ZM27.1532 114.009C26.5931 113.475 26.0348 112.923 25.4936 112.372L26.1215 111.687C26.6559 112.231 27.2069 112.775 27.7598 113.303L27.1532 114.01V114.009ZM23.9168 110.713C23.3915 110.142 22.8688 109.556 22.3625 108.969L23.0305 108.327C23.5301 108.907 24.0464 109.486 24.5645 110.048L23.9163 110.712L23.9168 110.713ZM142.106 110.553L141.289 110.146C141.6 109.452 141.888 108.729 142.145 107.997L142.992 108.328C142.726 109.085 142.428 109.833 142.106 110.553L142.106 110.553ZM20.8909 107.196C20.4157 106.591 19.9432 105.952 19.4865 105.295L20.2151 104.731C20.6614 105.373 21.1226 105.998 21.5865 106.588L20.8909 107.196ZM143.687 106.082L142.818 105.821C143.014 105.096 143.192 104.331 143.349 103.547L144.233 103.743C144.072 104.549 143.888 105.336 143.687 106.082V106.082ZM18.2123 103.356C17.804 102.699 17.3992 102.011 17.009 101.313L17.7873 100.829C18.1703 101.514 18.5673 102.189 18.9675 102.833L18.2123 103.356ZM144.631 101.426L143.738 101.28C143.845 100.547 143.941 99.7813 144.031 98.9412L144.929 99.0482C144.837 99.9015 144.74 100.679 144.63 101.425L144.631 101.426ZM15.9181 99.2574C15.5681 98.5636 15.2216 97.8427 14.8892 97.1145L15.7031 96.7008C16.0306 97.4172 16.3712 98.1268 16.7158 98.8093L15.9186 99.2569L15.9181 99.2574ZM145.149 96.7125L144.25 96.6285C144.315 95.8484 144.375 95.0629 144.435 94.2598L145.336 94.3352C145.275 95.1406 145.215 95.9284 145.149 96.7125ZM13.9582 94.9771C13.6592 94.2562 13.3647 93.5113 13.0828 92.7624L13.9225 92.4105C14.2008 93.1491 14.4912 93.884 14.7862 94.5945L13.9587 94.9766L13.9582 94.9771ZM145.515 92.0122L144.615 91.9308C144.688 91.0261 144.756 90.2695 144.828 89.5509L145.726 89.6511C145.655 90.3635 145.588 91.1133 145.515 92.0117V92.0122ZM12.2937 90.5645C12.0403 89.8228 11.7919 89.0599 11.5556 88.2969L12.4143 88.0015C12.6474 88.7554 12.8927 89.5093 13.1434 90.2415L12.2937 90.5649V90.5645ZM145.991 87.3515L145.096 87.2201C145.205 86.3876 145.324 85.6121 145.458 84.85L146.346 85.0235C146.215 85.7715 146.098 86.5331 145.991 87.3511V87.3515ZM10.8957 86.0534C10.6839 85.2963 10.4788 84.5208 10.285 83.7484L11.1582 83.5049C11.3497 84.2687 11.5529 85.0352 11.7621 85.7842L10.8957 86.0538V86.0534ZM146.8 82.7691L145.922 82.5455C146.103 81.7559 146.306 80.9754 146.525 80.2247L147.389 80.5056C147.174 81.2374 146.977 81.9989 146.8 82.7691ZM9.74479 81.4732C9.57225 80.7035 9.40647 79.9171 9.25244 79.1361L10.1369 78.9414C10.2895 79.7143 10.4535 80.4921 10.6242 81.2536L9.74525 81.4727L9.74479 81.4732ZM148.098 78.3339L147.254 77.9937C147.525 77.2457 147.824 76.4995 148.141 75.7755L148.961 76.1761C148.652 76.8803 148.362 77.6062 148.098 78.3339ZM8.82649 76.8329C8.69189 76.0524 8.56451 75.2578 8.44842 74.471L9.34098 74.3246C9.45571 75.1033 9.58173 75.8897 9.71498 76.6621L8.82604 76.8329H8.82649ZM149.941 74.1268L149.149 73.6692C149.51 72.9749 149.9 72.278 150.31 71.5986L151.073 72.1099C150.673 72.7721 150.293 73.4506 149.942 74.1268H149.941ZM8.13359 72.147C8.03602 71.3574 7.94749 70.5566 7.86935 69.7665L8.76777 69.6681C8.84501 70.45 8.93309 71.2427 9.02931 72.0241L8.13359 72.147ZM152.298 70.2101L151.566 69.6509C152.003 69.0145 152.471 68.3744 152.956 67.7479L153.656 68.3505C153.182 68.963 152.725 69.5886 152.298 70.2101H152.298ZM7.66654 67.4263C7.60736 66.6304 7.55723 65.825 7.51838 65.0328L8.42042 64.9831C8.45926 65.7668 8.5085 66.5636 8.56722 67.3513L7.66654 67.4258V67.4263ZM155.08 66.6038L154.41 65.9642C154.907 65.3842 155.434 64.7992 155.976 64.2251L156.616 64.8973C156.085 65.4605 155.568 66.0346 155.08 66.6033V66.6038ZM158.193 63.2964L157.58 62.5963C158.124 62.066 158.695 61.5308 159.278 61.0054L159.865 61.7295C159.291 62.2471 158.729 62.7738 158.193 63.296V63.2964ZM7.43211 62.6867C7.41449 61.9563 7.40546 61.2191 7.40546 60.4968C7.40546 60.4282 7.40546 60.3595 7.40546 60.2913L8.30885 60.2936C8.30885 60.3613 8.30885 60.4291 8.30885 60.4968C8.30885 61.2114 8.31788 61.94 8.33505 62.6627L7.43211 62.6871V62.6867ZM161.556 60.257L160.993 59.5121C161.571 59.0252 162.175 58.5333 162.788 58.0495L163.329 58.8124C162.724 59.2903 162.127 59.7759 161.556 60.257ZM8.34589 57.9723L7.44295 57.9429C7.46644 57.1403 7.50167 56.3349 7.54774 55.5485L8.44933 55.6072C8.40371 56.3841 8.36893 57.18 8.34589 57.9727V57.9723ZM165.106 57.4506L164.585 56.6719C165.19 56.2215 165.819 55.7662 166.454 55.3186L166.956 56.1108C166.327 56.554 165.705 57.0048 165.106 57.4501V57.4506ZM8.61917 53.2941L7.71984 53.2051C7.79121 52.4029 7.87567 51.6007 7.97098 50.8206L8.86715 50.9425C8.77319 51.7118 8.68963 52.5027 8.61917 53.2941ZM9.18785 48.6506L8.29665 48.4939C8.42268 47.6957 8.56406 46.9012 8.71673 46.1333L9.60115 46.3289C9.45119 47.0846 9.31207 47.8656 9.18785 48.6511V48.6506ZM10.098 44.0749L9.22308 43.8382C9.41505 43.0496 9.62419 42.2704 9.84507 41.5229L10.7074 41.8065C10.491 42.5387 10.2859 43.3021 10.098 44.0749ZM11.4161 39.6235L10.57 39.2888C10.8429 38.5213 11.136 37.7706 11.4418 37.0574L12.2648 37.4499C11.9671 38.1442 11.6817 38.875 11.4156 39.623L11.4161 39.6235ZM13.2346 35.392L12.4414 34.9353C12.8163 34.2103 13.2156 33.512 13.6285 32.8598L14.3801 33.3887C13.9822 34.0175 13.5969 34.6914 13.2346 35.3915V35.392ZM15.6367 31.492L14.9068 30.9306C15.3544 30.2833 15.8188 29.641 16.2872 29.0203L16.9936 29.6143C16.5333 30.2241 16.0767 30.8556 15.6367 31.492ZM18.3966 27.8364L17.715 27.2113C18.2127 26.6074 18.7286 26.0093 19.2476 25.4339L19.9021 26.0906C19.3921 26.6557 18.8858 27.2434 18.397 27.8364H18.3966ZM85.0494 27.0943C84.7314 26.6833 84.4116 26.2772 84.0999 25.8874L84.7906 25.2731C85.1054 25.6669 85.4279 26.0766 85.7491 26.4917L85.0494 27.0948V27.0943ZM21.4478 24.4514L20.8222 23.7644C21.3692 23.2102 21.9343 22.6636 22.5021 22.1401L23.0969 22.8574C22.54 23.3714 21.9853 23.9076 21.4483 24.4514H21.4478ZM82.659 24.133C82.1495 23.53 81.6386 22.9441 81.1404 22.3917L81.7949 21.7349C82.2999 22.2946 82.8176 22.8886 83.3339 23.4993L82.6595 24.133H82.659ZM24.7791 21.3758L24.2167 20.6301C24.8098 20.1323 25.4209 19.644 26.0339 19.1783L26.5619 19.9516C25.9607 20.4083 25.3608 20.8875 24.7795 21.3758H24.7791ZM79.5974 20.7439C79.0504 20.182 78.4993 19.6413 77.96 19.1363L78.5594 18.4235C79.1091 18.938 79.6706 19.4891 80.2275 20.0609L79.5974 20.7439ZM28.3696 18.6458L27.8768 17.8472C28.511 17.4117 29.1637 16.9871 29.8168 16.5847L30.2726 17.4077C29.6316 17.8025 28.9916 18.2189 28.3696 18.6458ZM76.286 17.6498C75.6934 17.152 75.0926 16.6782 74.5005 16.2423L75.0177 15.4609C75.6252 15.908 76.2413 16.3936 76.8488 16.904L76.286 17.6493V17.6498ZM32.1905 16.2897L31.7727 15.445C32.443 15.076 33.1314 14.7192 33.8184 14.384L34.1974 15.249C33.5235 15.5774 32.8482 15.9275 32.191 16.2897H32.1905ZM72.6707 14.9915C72.0279 14.5859 71.372 14.2088 70.7211 13.8695L71.1213 13.0154C71.7935 13.3659 72.471 13.7557 73.1341 14.174L72.6707 14.992V14.9915ZM36.2074 14.3289L35.8673 13.4458C36.567 13.1459 37.2843 12.8595 37.9993 12.5944L38.2988 13.4933C37.5973 13.7534 36.8936 14.0344 36.207 14.3285L36.2074 14.3289ZM68.7341 12.9404C68.048 12.6558 67.3429 12.4006 66.6382 12.182L66.893 11.2678C67.6234 11.4945 68.3538 11.7588 69.0648 12.0533L68.7341 12.9399V12.9404ZM40.3856 12.7769L40.1259 11.864C40.8495 11.6345 41.5899 11.42 42.3252 11.2258L42.5443 12.1504C41.822 12.341 41.0957 12.5515 40.3856 12.7764V12.7769ZM44.6849 11.64L44.5056 10.7058C45.2459 10.5478 46.0011 10.4055 46.7505 10.2826L46.8892 11.2244C46.1533 11.345 45.4117 11.485 44.6849 11.64ZM64.5284 11.6309C64.4556 11.6151 64.3825 11.6002 64.3093 11.5848C63.6539 11.4507 62.9863 11.3283 62.325 11.2217L62.4619 10.2799C63.1353 10.3888 63.8147 10.513 64.4814 10.6498C64.5573 10.6652 64.6327 10.681 64.7081 10.6973L64.5284 11.6309ZM60.1496 10.9204C59.4111 10.835 58.6608 10.7659 57.9196 10.7149L57.9783 9.76406C58.7326 9.816 59.4965 9.88647 60.2481 9.97319L60.1496 10.9204ZM49.065 10.92L48.9661 9.97274C49.7172 9.88557 50.4815 9.81465 51.2376 9.7627L51.2964 10.7135C50.5538 10.7646 49.8031 10.8341 49.0654 10.92H49.065ZM55.728 10.6137C55.3508 10.6047 54.9691 10.6002 54.5924 10.6002H54.5897C54.2247 10.6002 53.8548 10.6042 53.4894 10.6128L53.4699 9.66017C53.8417 9.65159 54.2184 9.64752 54.5897 9.64752H54.5924C54.9754 9.64752 55.3643 9.65204 55.7478 9.66107L55.7275 10.6137H55.728Z" fill="#FAA530"/>
<path d="M190.373 119.77C195.69 114.454 195.69 105.833 190.373 100.516C185.056 95.1996 176.436 95.1996 171.119 100.516C165.802 105.833 165.802 114.454 171.119 119.77C176.436 125.087 185.056 125.087 190.373 119.77Z" fill="#7ADCE1"/>
<path d="M179.097 118.877C178.315 118.754 177.704 118.425 177.265 117.889C176.824 117.353 176.653 116.772 176.751 116.148C176.852 115.506 177.191 115.01 177.77 114.659C178.35 114.309 179.03 114.195 179.811 114.317C180.593 114.44 181.196 114.755 181.622 115.263C182.047 115.77 182.21 116.345 182.109 116.987C182.011 117.612 181.68 118.113 181.116 118.492C180.551 118.871 179.879 118.999 179.097 118.877H179.097ZM178.322 112.328L179.294 100.646L184.456 101.455L181.782 112.87L178.322 112.328H178.322Z" fill="#F5840D"/>
<path d="M179.398 118.911C178.705 118.802 178.167 118.489 177.783 117.973C177.398 117.456 177.254 116.892 177.35 116.282C177.448 115.655 177.757 115.166 178.277 114.816C178.796 114.467 179.403 114.346 180.096 114.455C180.79 114.563 181.322 114.862 181.693 115.352C182.064 115.841 182.201 116.4 182.103 117.027C182.007 117.637 181.705 118.131 181.198 118.508C180.691 118.885 180.091 119.019 179.398 118.911L179.398 118.911ZM178.816 112.428L179.842 101.023L184.422 101.74L181.886 112.908L178.816 112.427V112.428Z" fill="white"/>
<path d="M29.0831 84.1048C34.4371 78.7507 34.4371 70.0701 29.0831 64.716C23.729 59.362 15.0484 59.362 9.69436 64.716C4.34031 70.0701 4.34031 78.7507 9.69436 84.1048C15.0484 89.4588 23.729 89.4588 29.0831 84.1048Z" fill="#7ADCE1"/>
<path d="M20.4617 82.3485C20.0679 82.2528 19.7079 82.0278 19.4459 81.694C18.3076 80.2477 17.0257 78.9012 15.6349 77.692C13.9338 76.2131 12.0593 74.9281 10.0628 73.8724C9.43582 73.5409 9.19687 72.7708 9.52797 72.1519C9.85951 71.5331 10.636 71.2996 11.2629 71.6311C13.4342 72.7793 15.4732 74.1769 17.3233 75.7854C18.4088 76.729 19.4332 77.7494 20.3827 78.8316C20.8385 75.7407 21.6077 72.7026 22.6764 69.7787C24.5993 64.5183 27.4531 59.681 31.1593 55.4003C31.6195 54.8687 32.4299 54.8095 32.9692 55.268C33.5085 55.7264 33.5727 56.5291 33.1124 57.0608C29.6077 61.1089 26.9093 65.6823 25.0916 70.6546C23.9005 73.9131 23.1033 77.3216 22.7211 80.7857C22.6394 81.5255 22.1199 82.1326 21.3967 82.3327C21.0842 82.4195 20.763 82.4213 20.4622 82.3481L20.4617 82.3485Z" fill="#F5840D"/>
<path d="M20.9049 82.0639C20.515 81.9691 20.16 81.745 19.9012 81.4126C18.7787 79.9699 17.5135 78.6274 16.1404 77.4228C14.461 75.9493 12.609 74.6697 10.636 73.6195C10.0167 73.2897 9.78183 72.5205 10.1111 71.9012C10.4409 71.2819 11.2101 71.0466 11.8294 71.3763C13.9754 72.5182 15.9895 73.9099 17.8157 75.5125C18.8871 76.453 19.8985 77.4702 20.8353 78.5493C21.2942 75.4592 22.063 72.4211 23.1281 69.4964C25.0442 64.2346 27.8804 59.3928 31.5586 55.1053C32.0152 54.5728 32.8175 54.5113 33.35 54.9685C33.8826 55.4251 33.944 56.2273 33.4869 56.7599C30.0084 60.8143 27.3262 65.3918 25.5153 70.3659C24.3287 73.6253 23.5306 77.0338 23.1435 80.4965C23.0608 81.236 22.545 81.8444 21.829 82.0463C21.5196 82.1335 21.2021 82.1367 20.9044 82.0644L20.9049 82.0639Z" fill="white"/>
<path d="M171.905 49.4085L175.742 48.6465L174.111 46.8569L171.905 49.4085Z" fill="#F5840D"/>
<path d="M171.905 49.4085L170.711 42.4361L197.037 30.8153L174.177 46.9684L171.905 49.4085Z" fill="#FAA530"/>
<path d="M170.984 44.3748L197.037 30.8154L163.02 37.7385L170.984 44.3748Z" fill="#FCCB72"/>
<path d="M174.177 46.9684L182.283 55.5263L197.037 30.8153L174.177 46.9684Z" fill="#FCCB72"/>
<path d="M137.169 24.1307L138.531 27.3549L135.646 28.5731L136.189 29.8596L139.074 28.6418L140.436 31.866L141.586 31.38L140.225 28.1558L143.11 26.9376L142.567 25.6511L139.682 26.8689L138.32 23.6447L137.169 24.1307Z" fill="#FFCD51"/>
<path d="M19.333 122.409L19.8014 125.877L16.6982 126.296L16.8852 127.68L19.9884 127.261L20.4572 130.729L21.6953 130.562L21.2269 127.094L24.3301 126.674L24.1431 125.29L21.0399 125.71L20.5711 122.241L19.333 122.409Z" fill="#FFE9B8"/>
<path d="M159.552 16.3787C156.918 16.3787 154.784 18.5134 154.784 21.1468C154.784 23.7802 156.918 25.9149 159.552 25.9149C162.185 25.9149 164.32 23.7802 164.32 21.1468C164.32 18.5134 162.185 16.3787 159.552 16.3787ZM159.552 24.1985C157.867 24.1985 156.5 22.8321 156.5 21.1468C156.5 19.4615 157.867 18.0951 159.552 18.0951C161.237 18.0951 162.603 19.4615 162.603 21.1468C162.603 22.8321 161.237 24.1985 159.552 24.1985Z" fill="#FFCD51"/>
<path d="M29.0544 138.083C26.421 138.083 24.2863 140.218 24.2863 142.851C24.2863 145.484 26.421 147.619 29.0544 147.619C31.6878 147.619 33.8225 145.484 33.8225 142.851C33.8225 140.218 31.6878 138.083 29.0544 138.083ZM29.0544 145.903C27.3691 145.903 26.0027 144.536 26.0027 142.851C26.0027 141.166 27.3691 139.799 29.0544 139.799C30.7396 139.799 32.106 141.166 32.106 142.851C32.106 144.536 30.7396 145.903 29.0544 145.903Z" fill="#FFCD51"/>
<path d="M41.8389 134.695C42.8499 134.245 43.3048 133.061 42.8549 132.05C42.4049 131.039 41.2206 130.584 40.2096 131.034C39.1985 131.484 38.7437 132.668 39.1936 133.679C39.6435 134.69 40.8279 135.145 41.8389 134.695Z" fill="#FAA530"/>
<path d="M44.6284 23.1966L40.9529 23.7219L40.4832 20.4336L39.0165 20.6432L39.4863 23.9315L35.8113 24.4564L35.9987 25.769L39.6737 25.2437L40.144 28.5321L41.6106 28.3225L41.1404 25.0341L44.8159 24.5088L44.6284 23.1966Z" fill="#FFCD51"/>
<path d="M188.765 133.862L185.089 134.388L184.62 131.099L183.153 131.309L183.623 134.597L179.948 135.122L180.135 136.435L183.81 135.909L184.28 139.198L185.747 138.988L185.277 135.7L188.952 135.174L188.765 133.862Z" fill="#FCCB72"/>
<path d="M33.6314 6.34788C34.3428 3.64673 32.7303 0.880088 30.0291 0.168214C27.328 -0.54366 24.5613 1.06935 23.8495 3.7705C23.138 6.47164 24.7506 9.23828 27.4517 9.95016C30.1529 10.6616 32.9195 9.04902 33.6314 6.34788ZM25.6102 4.23484C26.0655 2.5062 27.8361 1.47362 29.5652 1.92938C31.2939 2.38469 32.3265 4.15534 31.8707 5.88444C31.4154 7.61308 29.6447 8.64566 27.9156 8.1899C26.187 7.73459 25.1544 5.96393 25.6102 4.23484Z" fill="#FAA530"/>
<path d="M15.5311 21.1128C16.692 20.9395 17.4926 19.858 17.3193 18.6971C17.146 17.5362 16.0645 16.7356 14.9036 16.9089C13.7427 17.0822 12.9421 18.1638 13.1154 19.3246C13.2887 20.4855 14.3703 21.2861 15.5311 21.1128Z" fill="#FFE9B8"/>
<path d="M107.381 76.2162C104.601 76.2162 102.336 73.9745 102.313 71.1898L102.111 46.4576C102.088 43.6588 104.338 41.371 107.137 41.348C107.151 41.348 107.166 41.348 107.18 41.348C109.959 41.348 112.224 43.5897 112.247 46.3744L112.45 71.1066C112.473 73.9054 110.222 76.1932 107.423 76.2162C107.409 76.2162 107.395 76.2162 107.381 76.2162Z" fill="#CECDFF"/>
<path d="M102.212 54.2209V60.3025L112.348 60.5053V53.9169C112.348 53.9169 110.823 56.5218 107.382 56.3497C103.327 56.1469 102.212 54.2213 102.212 54.2213V54.2209Z" fill="#AA99FF"/>
<path d="M141.617 112.047C138.151 106.986 137.002 103.621 136.287 100.943C135.177 95.4644 134.579 89.4857 133.585 80.4364H133.576C131.755 65.3692 119.511 57.8317 107.268 57.8308C95.0239 57.8317 82.7803 65.3692 80.9595 80.4364H80.95C79.9567 89.4862 79.3582 95.4644 78.2479 100.943C77.5333 103.621 76.3838 106.986 72.9179 112.047C68.2541 118.858 65.8109 119.598 65.8109 122.782C65.8109 130.602 87.4955 134.417 107.268 134.623C127.04 134.417 148.724 130.602 148.724 122.782C148.724 119.599 146.282 118.858 141.617 112.047Z" fill="#707BC4"/>
<path d="M107.231 131.199C125.956 131.199 141.136 127.872 141.136 123.769C141.136 119.667 125.956 116.34 107.231 116.34C88.505 116.34 73.3249 119.667 73.3249 123.769C73.3249 127.872 88.505 131.199 107.231 131.199Z" fill="#4E2DA3"/>
<path d="M114.745 119.82C114.745 123.99 111.364 127.371 107.194 127.371C103.023 127.371 99.6426 123.99 99.6426 119.82C99.6426 115.65 114.745 115.649 114.745 119.82Z" fill="#AA99FF"/>
<path d="M109.431 125.285C109.281 125.611 109.02 125.884 108.69 126.021C106.983 126.728 105.325 126.663 103.895 125.832C102.284 124.896 101.074 122.996 100.736 120.874C100.627 120.19 101.053 119.467 101.687 119.261C102.322 119.054 102.924 119.441 103.033 120.126C103.261 121.558 104.098 122.884 105.166 123.505C106.05 124.019 107.044 124.053 108.121 123.607C108.746 123.348 109.379 123.679 109.536 124.346C109.61 124.66 109.565 124.994 109.431 125.285H109.431Z" fill="#F3F5FF"/>
<path d="M105.462 125.14C105.343 125.4 105.09 125.574 104.831 125.55C103.541 125.431 102.578 124.242 102.118 123.545C101.431 122.502 101.02 121.312 101.046 120.441C101.056 120.085 101.325 119.77 101.647 119.738C101.968 119.705 102.221 119.968 102.21 120.323C102.177 121.475 103.591 124.124 105.068 124.26C105.383 124.288 105.586 124.601 105.52 124.957C105.508 125.022 105.488 125.083 105.462 125.141V125.14Z" fill="white"/>
<path d="M85.626 86.8026C84.5039 86.8026 83.47 86.2032 83.1398 85.2795C82.4406 83.3237 82.5495 76.4032 87.5845 69.4738C92.6011 62.5696 100.913 60.5948 103.341 60.1539C104.737 59.9 106.122 60.6187 106.432 61.7592C106.743 62.8993 105.863 64.0295 104.466 64.2829C102.551 64.6307 95.8113 66.0576 92.0414 71.632C88.3176 77.1381 88.2178 80.9956 88.1144 84.0952C88.0746 85.2854 87.7264 86.3907 86.3527 86.7177C86.1106 86.7755 85.8663 86.8031 85.626 86.8031V86.8026Z" fill="#F3F5FF"/>
<path d="M89.9876 70.7155C89.7861 70.7155 89.5824 70.6708 89.3995 70.5773C88.8796 70.3117 88.7219 69.7525 89.0476 69.3279C93.9508 62.9354 101.813 61.2335 104.105 60.864C104.706 60.7668 105.291 61.0867 105.41 61.5776C105.529 62.0686 105.137 62.5456 104.535 62.6423C102.464 62.9761 95.3601 64.5141 90.9298 70.2895C90.7189 70.5642 90.3575 70.715 89.9876 70.715V70.7155Z" fill="white"/>
<path d="M136.141 111.751C135.58 111.751 135.026 111.497 134.662 111.015C133.021 108.842 131.215 106.04 130.263 101.742C129.515 98.357 129.219 95.9341 128.888 90.4681C128.826 89.4478 129.603 88.5706 130.623 88.5087C131.645 88.4464 132.521 89.2237 132.582 90.2441C132.9 95.4811 133.179 97.7807 133.878 100.942C134.673 104.537 136.145 106.836 137.616 108.784C138.232 109.6 138.07 110.761 137.254 111.377C136.921 111.629 136.529 111.751 136.141 111.751Z" fill="#F3F5FF"/>
<path d="M131.919 98.9438C131.563 98.9438 131.25 98.6872 131.189 98.325C130.974 97.0376 130.724 95.7273 130.591 94.4295C130.437 92.9412 130.411 91.4294 130.365 89.9347C130.352 89.5259 130.673 89.1844 131.082 89.1722C131.491 89.1605 131.832 89.4808 131.844 89.8895C131.889 91.3485 131.914 92.8251 132.063 94.2782C132.194 95.5452 132.44 96.8249 132.649 98.082C132.717 98.4853 132.444 98.8666 132.041 98.9339C132 98.9406 131.959 98.9443 131.919 98.9443V98.9438Z" fill="white"/>
<path d="M106.064 48.1397C107.687 48.1397 109.004 46.8235 109.004 45.2C109.004 43.5765 107.687 42.2604 106.064 42.2604C104.44 42.2604 103.124 43.5765 103.124 45.2C103.124 46.8235 104.44 48.1397 106.064 48.1397Z" fill="#F3F5FF"/>
<path d="M106.411 44.6795C106.573 43.9931 106.148 43.3054 105.461 43.1434C104.775 42.9814 104.087 43.4065 103.925 44.0928C103.763 44.7792 104.188 45.467 104.875 45.629C105.561 45.791 106.249 45.3659 106.411 44.6795Z" fill="white" stroke="white" stroke-miterlimit="10"/>
</svg>
