<svg width="50" height="50" viewBox="0 0 50 50" fill="none" xmlns="http://www.w3.org/2000/svg">
<circle cx="25" cy="25" r="25" fill="black" fill-opacity="0.03"/>
<path d="M20.0573 15.4181L21.2243 15.0671C21.8636 14.8743 22.5511 14.9207 23.1587 15.1976C23.7663 15.4745 24.2524 15.9631 24.5263 16.5721L25.4283 18.5781C25.6637 19.1019 25.7293 19.6862 25.6158 20.2492C25.5022 20.8122 25.2153 21.3254 24.7953 21.7171L23.3003 23.1101C23.2566 23.1508 23.2289 23.2057 23.2223 23.2651C23.1783 23.6621 23.4473 24.4351 24.0683 25.5101C24.5183 26.2911 24.9273 26.8401 25.2743 27.1471C25.5173 27.3621 25.6503 27.4081 25.7073 27.3921L27.7173 26.7771C28.2662 26.6092 28.8539 26.6172 29.398 26.8001C29.942 26.9831 30.4153 27.3317 30.7513 27.7971L32.0313 29.5731C32.4209 30.113 32.6014 30.776 32.5393 31.439C32.4771 32.102 32.1765 32.7199 31.6933 33.1781L30.8063 34.0181C30.336 34.4634 29.7585 34.7793 29.1299 34.9351C28.5013 35.0909 27.843 35.0812 27.2193 34.9071C24.4653 34.1381 21.9963 31.8141 19.7843 27.9831C17.5703 24.1471 16.7923 20.8431 17.5103 18.0701C17.6714 17.4464 17.9905 16.8748 18.4368 16.4103C18.8831 15.9457 19.4405 15.604 20.0573 15.4181ZM20.4913 16.8551C20.1212 16.9664 19.7859 17.1711 19.518 17.4496C19.25 17.7281 19.0583 18.0709 18.9613 18.4451C18.3593 20.7771 19.0483 23.7061 21.0843 27.2331C23.1183 30.7551 25.3073 32.8161 27.6243 33.4631C27.9985 33.5674 28.3935 33.5731 28.7706 33.4795C29.1477 33.386 29.4942 33.1963 29.7763 32.9291L30.6623 32.0891C30.8821 31.8808 31.0188 31.5999 31.0472 31.2985C31.0755 30.997 30.9934 30.6956 30.8163 30.4501L29.5363 28.6751C29.3835 28.4633 29.1683 28.3046 28.9208 28.2214C28.6733 28.1382 28.4059 28.1346 28.1563 28.2111L26.1413 28.8281C24.9713 29.1761 23.9103 28.2351 22.7703 26.2601C22.0003 24.9301 21.6423 23.9001 21.7323 23.0991C21.7783 22.6831 21.9723 22.2991 22.2773 22.0131L23.7723 20.6201C23.9631 20.4419 24.0934 20.2086 24.1449 19.9526C24.1964 19.6967 24.1664 19.4311 24.0593 19.1931L23.1583 17.1871C23.0338 16.9102 22.8128 16.6882 22.5366 16.5623C22.2604 16.4365 21.9479 16.4154 21.6573 16.5031L20.4913 16.8551Z" fill="#D11317"/>
</svg>
