<svg width="23" height="31" viewBox="0 0 23 31" fill="none" xmlns="http://www.w3.org/2000/svg">
<path d="M4.29123 1.52625L5.99311 1.01437C6.9254 0.733241 7.92814 0.800917 8.81421 1.20477C9.70028 1.60863 10.4091 2.32107 10.8085 3.20916L12.1239 6.13458C12.4673 6.89846 12.5629 7.75067 12.3974 8.57166C12.2318 9.39264 11.8134 10.1412 11.2008 10.7123L9.02061 12.7437C8.95692 12.8031 8.91657 12.8833 8.90686 12.9698C8.84269 13.5487 9.23498 14.676 10.1406 16.2437C10.7969 17.3827 11.3933 18.1833 11.8994 18.631C12.2537 18.9446 12.4477 19.0117 12.5308 18.9883L15.4621 18.0915C16.2626 17.8466 17.1196 17.8584 17.9131 18.1251C18.7065 18.3919 19.3966 18.9003 19.8866 19.579L21.7533 22.169C22.3216 22.9564 22.5848 23.9233 22.4942 24.8902C22.4035 25.857 21.9651 26.7581 21.2604 27.4262L19.9669 28.6512C19.2811 29.3007 18.4388 29.7614 17.5221 29.9886C16.6054 30.2158 15.6455 30.2017 14.7358 29.9477C10.7196 28.8262 7.11894 25.4371 3.89311 19.8502C0.664356 14.256 -0.470227 9.43771 0.576857 5.39375C0.811904 4.48424 1.27727 3.6506 1.92811 2.9732C2.57895 2.2958 3.39184 1.79747 4.29123 1.52625ZM4.92415 3.62187C4.3844 3.7842 3.89557 4.08281 3.50476 4.48895C3.11395 4.89508 2.83435 5.39503 2.6929 5.94062C1.81498 9.34146 2.81977 13.6129 5.78894 18.7565C8.75519 23.8927 11.9475 26.8983 15.3264 27.8419C15.8723 27.9941 16.4482 28.0024 16.9982 27.8659C17.5482 27.7294 18.0534 27.4529 18.4648 27.0631L19.7569 25.8381C20.0774 25.5345 20.2769 25.1248 20.3182 24.6852C20.3595 24.2456 20.2398 23.806 19.9814 23.4479L18.1148 20.8594C17.892 20.5505 17.5782 20.3192 17.2172 20.1978C16.8563 20.0764 16.4664 20.0712 16.1023 20.1827L13.1637 21.0825C11.4575 21.59 9.91019 20.2177 8.24769 17.3375C7.12477 15.3979 6.60269 13.8958 6.73394 12.7277C6.80102 12.121 7.08394 11.561 7.52873 11.144L9.70894 9.1125C9.98727 8.85276 10.1773 8.5124 10.2524 8.13918C10.3274 7.76596 10.2838 7.3786 10.1275 7.03146L8.81352 4.10604C8.63196 3.70236 8.30972 3.37853 7.90693 3.19498C7.50415 3.01143 7.04834 2.98071 6.62456 3.10854L4.92415 3.62187Z" fill="#D11317"/>
</svg>
