<svg width="50" height="51" viewBox="0 0 50 51" fill="none" xmlns="http://www.w3.org/2000/svg">
<path d="M21.6348 6.31099V24.0139C21.6348 24.297 21.881 24.5266 22.1849 24.5266H47.4472C47.7511 24.5266 47.9974 24.2971 47.9974 24.0139V6.31099C47.9974 6.10237 47.8618 5.91456 47.6545 5.83598L34.964 1.02699C34.8691 0.991004 34.763 0.991004 34.6683 1.02699L21.9777 5.83598C21.7704 5.91456 21.6348 6.10237 21.6348 6.31099Z" stroke="#5FC1CF" stroke-width="1.5" stroke-miterlimit="10" stroke-linecap="round" stroke-linejoin="round"/>
<path d="M34.8161 5.16992L21.6348 10.165V14.6576L34.8161 9.66253L47.9974 14.6576V10.165L34.8161 5.16992Z" stroke="#5FC1CF" stroke-width="1.5" stroke-miterlimit="10" stroke-linecap="round" stroke-linejoin="round"/>
<path d="M38.1172 21.5564V24.5266H41.8361V16.1877C41.8361 16.0673 41.7578 15.959 41.6382 15.9137L38.5541 14.745C38.3454 14.6659 38.1172 14.809 38.1172 15.019V18.1057" stroke="#5FC1CF" stroke-width="1.5" stroke-miterlimit="10" stroke-linecap="round" stroke-linejoin="round"/>
<path d="M16.2247 49.9999H28.9173C29.3844 49.9999 29.6451 49.4972 29.355 49.1561L24.1205 42.9998C23.9086 42.7506 23.5862 42.6053 23.2451 42.6053H20.6354C20.4649 42.6053 20.3037 42.5326 20.1977 42.4081L16.7215 38.3197C16.6156 38.1951 16.4544 38.1226 16.2837 38.1226H13.2814C13.1109 38.1226 12.9497 38.1952 12.8437 38.3197L12.1831 39.0966" stroke="#5FC1CF" stroke-width="1.5" stroke-miterlimit="10" stroke-linecap="round" stroke-linejoin="round"/>
<path d="M9.8841 41.8015L8.04688 43.9622" stroke="#5FC1CF" stroke-width="1.5" stroke-miterlimit="10" stroke-linecap="round" stroke-linejoin="round"/>
<path d="M11.3565 43.9622H6.68523C6.50392 43.9622 6.33382 44.0442 6.2292 44.1822L2.43935 49.179C2.17786 49.5238 2.44242 50 2.89538 50H16.225L11.8125 44.1823C11.7079 44.0442 11.5379 43.9622 11.3565 43.9622Z" stroke="#5FC1CF" stroke-width="1.5" stroke-miterlimit="10" stroke-linecap="round" stroke-linejoin="round"/>
<path d="M15.7876 17.9502H21.6349" stroke="#5FC1CF" stroke-width="1.5" stroke-miterlimit="10" stroke-linecap="round" stroke-linejoin="round" stroke-dasharray="12 30"/>
<path d="M26.56 32.8928H7.49162C3.90636 32.8928 1 30.184 1 26.8424V24.0005C1 20.659 3.90636 17.9502 7.49162 17.9502" stroke="#5FC1CF" stroke-width="1.5" stroke-miterlimit="10" stroke-linecap="round" stroke-linejoin="round" stroke-dasharray="12 30"/>
<path d="M29.0986 44.9933H41.8201C45.4053 44.9933 48.3117 42.2845 48.3117 38.9429C48.3117 35.6014 45.4053 32.8926 41.8201 32.8926H38.1959" stroke="#5FC1CF" stroke-width="1.5" stroke-miterlimit="10" stroke-linecap="round" stroke-linejoin="round" stroke-dasharray="12 30"/>
<path d="M6.07892 10.2183C6.12007 10.3191 6.16471 10.4197 6.21347 10.5199L10.6608 19.6661C10.8588 20.0734 11.4794 20.0734 11.6774 19.6661L16.1247 10.5199C17.757 7.16292 15.1235 3.35571 11.169 3.35571C8.70188 3.35571 6.74904 4.83764 6.02539 6.76766" stroke="#5FC1CF" stroke-width="1.5" stroke-miterlimit="10" stroke-linecap="round" stroke-linejoin="round"/>
<path d="M11.1695 10.6757C12.4623 10.6757 13.5103 9.69892 13.5103 8.49398C13.5103 7.28905 12.4623 6.31226 11.1695 6.31226C9.87665 6.31226 8.82861 7.28905 8.82861 8.49398C8.82861 9.69892 9.87665 10.6757 11.1695 10.6757Z" stroke="#5FC1CF" stroke-width="1.5" stroke-miterlimit="10" stroke-linecap="round" stroke-linejoin="round"/>
<path d="M32.627 35.764C34.3589 35.764 35.7628 34.4555 35.7628 32.8413C35.7628 31.2272 34.3589 29.9187 32.627 29.9187C30.8952 29.9187 29.4912 31.2272 29.4912 32.8413C29.4912 34.4555 30.8952 35.764 32.627 35.764Z" stroke="#5FC1CF" stroke-width="1.5" stroke-miterlimit="10" stroke-linecap="round" stroke-linejoin="round"/>
<path d="M34.8159 24.5266V1" stroke="#5FC1CF" stroke-width="1.5" stroke-miterlimit="10" stroke-linecap="round" stroke-linejoin="round"/>
</svg>
