<svg width="19" height="21" viewBox="0 0 19 21" fill="none" xmlns="http://www.w3.org/2000/svg">
<path d="M9.5 0.53125C6.00641 0.53125 3.15625 3.38141 3.15625 6.875C3.15625 9.05906 4.27094 10.9984 5.96019 12.143C2.72759 13.5296 0.4375 16.7377 0.4375 20.4688H2.25C2.25 16.4541 5.48531 13.2188 9.5 13.2188C13.5147 13.2188 16.75 16.4541 16.75 20.4688H18.5625C18.5625 16.7377 16.2724 13.5305 13.0398 12.1421C13.902 11.5601 14.6084 10.7757 15.0972 9.85746C15.586 8.93924 15.8423 7.91522 15.8438 6.875C15.8438 3.38141 12.9936 0.53125 9.5 0.53125ZM9.5 2.34375C12.013 2.34375 14.0312 4.36197 14.0312 6.875C14.0312 9.38803 12.013 11.4062 9.5 11.4062C6.98697 11.4062 4.96875 9.38803 4.96875 6.875C4.96875 4.36197 6.98697 2.34375 9.5 2.34375Z" fill="black"/>
</svg>
