<svg width="64" height="61" viewBox="0 0 64 61" fill="none" xmlns="http://www.w3.org/2000/svg">
<path d="M15.5938 37.6562V48.5938L32 55.1562L48.4062 48.5938V37.6562L32 44.2188L15.5938 37.6562Z" fill="#5FC1CF"/>
<path d="M32 21.25L15.5938 27.8125V33.2812L32 39.8438L48.4062 33.2812V27.8125L32 21.25Z" fill="#5FC1CF"/>
<path d="M12.3125 0.46875C11.7323 0.46875 11.176 0.699216 10.7657 1.10945C10.3555 1.51969 10.125 2.07609 10.125 2.65625V4.84375H1.375C0.770966 4.84382 0.281305 5.33347 0.28125 5.9375V59.5312C0.281305 60.1353 0.770966 60.6249 1.375 60.625H62.625C63.229 60.6249 63.7187 60.1353 63.7188 59.5312V5.9375C63.7187 5.33347 63.229 4.84382 62.625 4.84375H53.875V2.65625C53.875 2.07609 53.6446 1.51969 53.2343 1.10945C52.8241 0.699216 52.2677 0.46875 51.6875 0.46875C51.1073 0.46875 50.551 0.699216 50.1407 1.10945C49.7305 1.51969 49.5 2.07609 49.5 2.65625V4.84375H40.75V2.65625C40.75 2.07609 40.5196 1.51969 40.1093 1.10945C39.6991 0.699216 39.1427 0.46875 38.5625 0.46875C37.9823 0.46875 37.426 0.699216 37.0157 1.10945C36.6055 1.51969 36.375 2.07609 36.375 2.65625V4.84375H27.625V2.65625C27.625 2.07609 27.3946 1.51969 26.9843 1.10945C26.5741 0.699216 26.0177 0.46875 25.4375 0.46875C24.8573 0.46875 24.301 0.699216 23.8907 1.10945C23.4805 1.51969 23.25 2.07609 23.25 2.65625V4.84375H14.5V2.65625C14.5 2.07609 14.2696 1.51969 13.8593 1.10945C13.4491 0.699216 12.8927 0.46875 12.3125 0.46875ZM2.46875 7.03125H10.125V9.21875C10.125 9.79891 10.3555 10.3553 10.7657 10.7655C11.176 11.1758 11.7323 11.4062 12.3125 11.4062C12.8927 11.4062 13.4491 11.1758 13.8593 10.7655C14.2696 10.3553 14.5 9.79891 14.5 9.21875V7.03125H23.25V9.21875C23.25 9.79891 23.4805 10.3553 23.8907 10.7655C24.301 11.1758 24.8573 11.4062 25.4375 11.4062C26.0177 11.4062 26.5741 11.1758 26.9843 10.7655C27.3946 10.3553 27.625 9.79891 27.625 9.21875V7.03125H36.375V9.21875C36.375 9.79891 36.6055 10.3553 37.0157 10.7655C37.426 11.1758 37.9823 11.4062 38.5625 11.4062C39.1427 11.4062 39.6991 11.1758 40.1093 10.7655C40.5196 10.3553 40.75 9.79891 40.75 9.21875V7.03125H49.5V9.21875C49.5 9.79891 49.7305 10.3553 50.1407 10.7655C50.551 11.1758 51.1073 11.4062 51.6875 11.4062C52.2677 11.4062 52.8241 11.1758 53.2343 10.7655C53.6446 10.3553 53.875 9.79891 53.875 9.21875V7.03125H61.5312V15.7812H2.46875V7.03125ZM2.46875 17.9688H61.5312V58.4375H2.46875V17.9688Z" fill="#5FC1CF"/>
</svg>
