<svg width="24" height="17" viewBox="0 0 24 17" fill="none" xmlns="http://www.w3.org/2000/svg">
<path d="M16 8.5C16 7.83696 16.2634 7.20107 16.7322 6.73223C17.2011 6.26339 17.837 6 18.5 6C19.163 6 19.7989 6.26339 20.2678 6.73223C20.7366 7.20107 21 7.83696 21 8.5C21 9.16304 20.7366 9.79893 20.2678 10.2678C19.7989 10.7366 19.163 11 18.5 11C17.837 11 17.2011 10.7366 16.7322 10.2678C16.2634 9.79893 16 9.16304 16 8.5ZM15 0C13.8954 0 13 0.895431 13 2V15C13 16.1046 13.8954 17 15 17H22C23.1046 17 24 16.1046 24 15V2C24 0.89543 23.1046 0 22 0H15ZM22 11.4301C22 12.2971 21.2006 12.9744 20.5875 13.5875C20.571 13.604 20.5548 13.6207 20.539 13.6377C19.9737 14.2434 19.3284 15 18.5 15C17.6716 15 17.0281 14.2428 16.4634 13.6367C16.4473 13.6195 16.4309 13.6025 16.4142 13.5858C15.8008 12.9724 15 12.2967 15 11.4292V5.57204C15 4.70383 15.8023 4.03017 16.4163 3.41625C16.4332 3.39927 16.4499 3.38198 16.4663 3.3644C17.0305 2.75785 17.6716 2 18.5 2C19.3284 2 19.9719 2.75717 20.5366 3.36329C20.5527 3.38053 20.5691 3.3975 20.5858 3.41421C21.1992 4.02763 22 4.70325 22 5.57076V11.4301ZM7 3C8.1 3 9 3.9 9 5C9 6.1 8.1 7 7 7C5.9 7 5 6.1 5 5C5 3.9 5.9 3 7 3ZM7 1C4.79 1 3 2.79 3 5C3 7.21 4.79 9 7 9C9.21 9 11 7.21 11 5C11 2.79 9.21 1 7 1ZM7 11C3.13 11 0 12.79 0 15C0 16.1046 0.895431 17 2 17H10C10.5523 17 11 16.5523 11 16C11 15.4477 10.5523 15 10 15H4C2.89543 15 2.43731 14.1746 3.43769 13.7063C4.27653 13.3136 5.47261 13 7 13C7.98142 13 8.82192 13.1294 9.51839 13.3266C10.2004 13.5196 11 13.0466 11 12.3378C11 11.9648 10.7738 11.6256 10.4187 11.5115C9.4122 11.1879 8.25133 11 7 11Z" fill="black" fill-opacity="0.87"/>
</svg>
