<svg width="60" height="60" viewBox="0 0 60 60" fill="none" xmlns="http://www.w3.org/2000/svg">
<path d="M35 32.5C32.9167 32.5 31.1458 31.7708 29.6875 30.3125C28.2292 28.8542 27.5 27.0833 27.5 25C27.5 22.9167 28.2292 21.1458 29.6875 19.6875C31.1458 18.2292 32.9167 17.5 35 17.5C37.0833 17.5 38.8542 18.2292 40.3125 19.6875C41.7708 21.1458 42.5 22.9167 42.5 25C42.5 27.0833 41.7708 28.8542 40.3125 30.3125C38.8542 31.7708 37.0833 32.5 35 32.5ZM17.5 40C16.125 40 14.9483 39.5108 13.97 38.5325C12.9917 37.5542 12.5017 36.3767 12.5 35V15C12.5 13.625 12.99 12.4483 13.97 11.47C14.95 10.4917 16.1267 10.0017 17.5 10H52.5C53.875 10 55.0525 10.49 56.0325 11.47C57.0125 12.45 57.5017 13.6267 57.5 15V35C57.5 36.375 57.0108 37.5525 56.0325 38.5325C55.0542 39.5125 53.8767 40.0017 52.5 40H17.5ZM22.5 35H47.5C47.5 33.625 47.99 32.4483 48.97 31.47C49.95 30.4917 51.1267 30.0017 52.5 30V20C51.125 20 49.9483 19.5108 48.97 18.5325C47.9917 17.5542 47.5017 16.3767 47.5 15H22.5C22.5 16.375 22.0108 17.5525 21.0325 18.5325C20.0542 19.5125 18.8767 20.0017 17.5 20V30C18.875 30 20.0525 30.49 21.0325 31.47C22.0125 32.45 22.5017 33.6267 22.5 35ZM47.5 50H7.5C6.125 50 4.94833 49.5108 3.97 48.5325C2.99167 47.5542 2.50167 46.3767 2.5 45V20C2.5 19.2917 2.74 18.6983 3.22 18.22C3.7 17.7417 4.29333 17.5017 5 17.5C5.70833 17.5 6.3025 17.74 6.7825 18.22C7.2625 18.7 7.50167 19.2933 7.5 20V45H47.5C48.2083 45 48.8025 45.24 49.2825 45.72C49.7625 46.2 50.0017 46.7933 50 47.5C50 48.2083 49.76 48.8025 49.28 49.2825C48.8 49.7625 48.2067 50.0017 47.5 50Z" fill="#D11317"/>
</svg>
