<svg width="23" height="21" viewBox="0 0 23 21" fill="none" xmlns="http://www.w3.org/2000/svg">
<path d="M18.423 0.821582L15.9839 1.79729L15.5072 0.707031L14.425 0.824277C13.3391 0.941479 12.3935 1.33383 11.4893 2.04786C10.5849 1.33207 9.64594 0.940086 8.575 0.824232L7.49247 0.707031L7.01608 1.79729L4.57642 0.821582L0 11.4999L2.73269 12.5421V20.2927L11.4888 15.9147L20.2449 20.2927V12.5492L23 11.5002L18.423 0.821582ZM4.0798 18.1131V13.0562L9.81664 15.2447L4.0798 18.1131ZM10.8153 14.1836L1.79072 10.7409L5.29674 2.56019L6.47576 3.0321L3.46424 9.9197L10.8153 12.7468L10.8153 14.1836ZM10.8153 11.3032L5.74209 9.3522C6.60877 8.90927 7.63793 8.85191 8.57725 9.2341L10.8153 10.2138L10.8153 11.3032ZM10.8153 8.74333L9.09457 7.99017C8.02857 7.55375 6.87866 7.52375 5.83513 7.85963L8.33072 2.15293C8.46935 2.18824 9.53835 2.15419 10.8153 3.23775V8.74333ZM12.1622 3.2386C13.4153 2.18069 14.5982 2.17104 14.6693 2.15298L17.1545 7.83748C16.1712 7.52411 15.102 7.56638 14.0662 7.99017L12.1622 8.76979V3.2386ZM12.1622 10.2256L14.5763 9.23711C15.4891 8.86314 16.4416 8.9121 17.2682 9.34677L12.1622 11.3046V10.2256ZM18.8977 18.113L13.1623 15.2452L18.8977 13.0619V18.113ZM12.1622 14.1845V12.7471L19.5357 9.92019L16.5237 3.0321L17.7029 2.56024L21.2089 10.7406L12.1622 14.1845Z" fill="black"/>
</svg>
