<svg width="53" height="53" viewBox="0 0 53 53" fill="none" xmlns="http://www.w3.org/2000/svg">
<path d="M48.7946 3.9066C51.2964 6.41729 52.7012 9.8172 52.7012 13.3616C52.7012 16.906 51.2964 20.3059 48.7946 22.8166L44.0516 27.5286C40.5796 31.0006 35.6816 32.0856 31.2176 30.9076L39.3396 22.8166L41.6956 20.4296L44.0516 18.0736C46.6556 15.4696 46.6556 11.2536 44.0516 8.6496C43.4369 8.02347 42.7037 7.52613 41.8946 7.18662C41.0856 6.84711 40.217 6.67225 39.3396 6.67225C38.4622 6.67225 37.5936 6.84711 36.7846 7.18662C35.9755 7.52613 35.2422 8.02347 34.6276 8.6496L32.2406 11.0056L21.7626 21.4836C20.6156 17.0196 21.7006 12.1216 25.1726 8.6496L29.8846 3.9066C32.3953 1.40477 35.7952 0 39.3396 0C42.884 0 46.2839 1.40477 48.7946 3.9066ZM20.4296 36.9836L36.9836 20.4296C38.2856 19.1276 38.2856 17.0196 36.9836 15.7176C35.6196 14.3846 33.4806 14.5086 32.2406 15.7176L15.7176 32.2716C14.4156 33.5736 14.4156 35.6816 15.7176 36.9836C17.0816 38.3166 19.2206 38.1926 20.4296 36.9836ZM18.0736 44.0826L30.9076 31.2176C32.0856 35.6816 31.0006 40.5796 27.5286 44.0516L22.8166 48.7946C20.3059 51.2964 16.906 52.7012 13.3616 52.7012C9.8172 52.7012 6.41729 51.2964 3.9066 48.7946C1.40477 46.2839 0 42.884 0 39.3396C0 35.7952 1.40477 32.3953 3.9066 29.8846L8.6496 25.1726C12.1216 21.7006 17.0196 20.6156 21.4836 21.7626L8.6496 34.6276C6.0146 37.2316 6.0146 41.4476 8.6496 44.0826C11.2536 46.6866 15.4696 46.6866 18.0736 44.0826Z" fill="#5FC1CF"/>
</svg>
