<svg width="20" height="20" viewBox="0 0 20 20" fill="none" xmlns="http://www.w3.org/2000/svg">
<g clip-path="url(#clip0_119_780)">
<path d="M10 10.4166C10.6892 10.4166 11.25 9.8558 11.25 9.16664C11.25 8.47747 10.6892 7.91664 10 7.91664C9.31083 7.91664 8.75 8.47747 8.75 9.16664C8.75 9.8558 9.31083 10.4166 10 10.4166ZM13.3333 6.71997V2.61414L10 0.114136L6.66667 2.61414V6.77497L0 11.7866V20H2.5V17.0833C2.5 16.8533 2.6875 16.6666 2.91667 16.6666C3.14583 16.6666 3.33333 16.8533 3.33333 17.0833V20H16.6667V17.0833C16.6667 16.8533 16.8542 16.6666 17.0833 16.6666C17.3125 16.6666 17.5 16.8533 17.5 17.0833V20H20V11.57L13.3333 6.71997ZM7.5 7.18997V3.0308L10 1.1558L12.5 3.0308V7.14414L14.1667 8.35664V19.1666H12.5V15C12.5 13.6216 11.3783 12.5 10 12.5C8.62167 12.5 7.5 13.6216 7.5 15V19.1666H5.83333V8.4433L7.5 7.18997ZM11.6667 19.1658H8.33333V14.9991C8.33333 14.08 9.08083 13.3325 10 13.3325C10.9192 13.3325 11.6667 14.08 11.6667 14.9991V19.1658ZM2.91667 15.8325C2.2275 15.8325 1.66667 16.3933 1.66667 17.0825V19.1658H0.833333V12.2016L5 9.06914V19.1658H4.16667V17.0825C4.16667 16.3933 3.60583 15.8325 2.91667 15.8325ZM19.1667 19.1658H18.3333V17.0825C18.3333 16.3933 17.7725 15.8325 17.0833 15.8325C16.3942 15.8325 15.8333 16.3933 15.8333 17.0825V19.1658H15V8.96247L19.1667 11.9933V19.1658Z" fill="#1E3350"/>
</g>
<defs>
<clipPath id="clip0_119_780">
<rect width="20" height="20" fill="white"/>
</clipPath>
</defs>
</svg>
