<svg width="45" height="56" viewBox="0 0 45 56" fill="none" xmlns="http://www.w3.org/2000/svg">
<path d="M14.1111 8.55554H8.55556C7.08213 8.55554 5.66905 9.14086 4.62718 10.1827C3.58532 11.2246 3 12.6377 3 14.1111V47.4444C3 48.9179 3.58532 50.3309 4.62718 51.3728C5.66905 52.4147 7.08213 53 8.55556 53H36.3333C37.8068 53 39.2198 52.4147 40.2617 51.3728C41.3036 50.3309 41.8889 48.9179 41.8889 47.4444V14.1111C41.8889 12.6377 41.3036 11.2246 40.2617 10.1827C39.2198 9.14086 37.8068 8.55554 36.3333 8.55554H30.7778" stroke="#D11317" stroke-width="5" stroke-linecap="round" stroke-linejoin="round"/>
<path d="M14.1113 41.8889V28M22.4447 41.8889V39.1111M30.778 41.8889V33.5556M14.1113 8.55556C14.1113 7.08213 14.6966 5.66905 15.7385 4.62718C16.7804 3.58532 18.1935 3 19.6669 3H25.2224C26.6959 3 28.1089 3.58532 29.1508 4.62718C30.1927 5.66905 30.778 7.08213 30.778 8.55556C30.778 10.029 30.1927 11.4421 29.1508 12.4839C28.1089 13.5258 26.6959 14.1111 25.2224 14.1111H19.6669C18.1935 14.1111 16.7804 13.5258 15.7385 12.4839C14.6966 11.4421 14.1113 10.029 14.1113 8.55556Z" stroke="#D11317" stroke-width="5" stroke-linecap="round" stroke-linejoin="round"/>
</svg>
