<svg width="25" height="25" viewBox="0 0 25 25" fill="none" xmlns="http://www.w3.org/2000/svg">
<path d="M24.9323 17.7875L22.8448 5.95629C22.4489 3.71254 20.5073 2.08337 18.2291 2.08337H6.33436C4.30936 2.08337 2.58332 3.53129 2.23123 5.52608L0.0676913 17.7875C-0.157309 19.0636 0.190608 20.3636 1.0229 21.3552C1.85519 22.348 3.07602 22.9167 4.37082 22.9167H5.72915C6.01665 22.9167 6.24998 22.6834 6.24998 22.3959C6.24998 22.1084 6.01665 21.875 5.72915 21.875H4.37082C3.38436 21.875 2.45415 21.4417 1.82082 20.6855C1.18748 19.9292 0.921858 18.9396 1.09269 17.9688L3.25623 5.70733C3.40936 4.84275 3.90519 4.11567 4.59061 3.65525L7.30623 19.0438C7.70207 21.2875 9.64373 22.9167 11.9229 22.9167H20.6292C21.925 22.9167 23.1448 22.348 23.9771 21.3552C24.8094 20.3636 25.1573 19.0636 24.9323 17.7875ZM23.1791 20.6855C22.5458 21.4417 21.6156 21.875 20.6292 21.875H11.9229C10.15 21.875 8.64061 20.6084 8.33227 18.8625L5.57186 3.21879C5.81665 3.15733 6.07186 3.12504 6.33436 3.12504H18.2281C20 3.12504 21.5104 4.39171 21.8187 6.13754L23.9062 17.9688C24.0781 18.9407 23.8125 19.9302 23.1781 20.6855H23.1791ZM18.6364 8.33337H9.89582C9.60832 8.33337 9.37498 8.10004 9.37498 7.81254C9.37498 7.52504 9.60832 7.29171 9.89582 7.29171H18.6364C18.9239 7.29171 19.1573 7.52504 19.1573 7.81254C19.1573 8.10004 18.9239 8.33337 18.6364 8.33337ZM19.3719 12.5H10.6312C10.3437 12.5 10.1104 12.2667 10.1104 11.9792C10.1104 11.6917 10.3437 11.4584 10.6312 11.4584H19.3719C19.6594 11.4584 19.8927 11.6917 19.8927 11.9792C19.8927 12.2667 19.6594 12.5 19.3719 12.5ZM20.6281 16.1459C20.6281 16.4334 20.3948 16.6667 20.1073 16.6667H11.3666C11.0791 16.6667 10.8458 16.4334 10.8458 16.1459C10.8458 15.8584 11.0791 15.625 11.3666 15.625H20.1073C20.3948 15.625 20.6281 15.8584 20.6281 16.1459Z" fill="#B1B1B1"/>
</svg>
