<svg width="51" height="48" viewBox="0 0 51 48" fill="none" xmlns="http://www.w3.org/2000/svg">
<path d="M49.9876 34.9054C49.8502 34.7761 49.7012 34.6642 49.5443 34.5683C50.4089 34.1394 51 33.2853 51 32.3032C51 31.4622 50.5584 30.6956 49.8603 30.2249C50.3406 29.7631 50.6375 29.1317 50.6375 28.436C50.6375 27.4992 50.0912 26.653 49.2539 26.2082C49.5915 25.7819 49.7915 25.2537 49.7915 24.6824C49.7915 23.6542 49.1324 22.7367 48.154 22.3375C48.3504 21.9839 48.4622 21.5822 48.4622 21.1563C48.4622 20.0037 47.6352 18.9884 46.4573 18.6889L46.4229 18.6803C46.3974 18.6742 46.3717 18.6697 46.346 18.6642C46.4634 18.3785 46.5284 18.0683 46.5284 17.7441C46.5284 16.5915 45.7015 15.5762 44.5236 15.2767L44.4891 15.2681C44.4262 15.2527 44.3629 15.239 44.2983 15.2278C44.2737 15.2235 44.2489 15.2199 44.224 15.2167L44.1913 15.2121C44.1845 15.2111 44.1782 15.2106 44.1715 15.2097C44.2109 15.0366 44.2321 14.8571 44.2321 14.673C44.2321 13.5204 43.4052 12.5051 42.2273 12.2055L42.1928 12.197C42.1299 12.1816 42.0666 12.1678 42.002 12.1567C41.9774 12.1523 41.9526 12.1488 41.9277 12.1455L41.895 12.1409C41.8522 12.1348 41.8093 12.1291 41.7688 12.1255C41.6952 12.1188 41.6254 12.1156 41.5559 12.1147C41.5671 12.0209 41.5733 11.9257 41.5733 11.8293C41.5733 10.6767 40.7463 9.6614 39.5684 9.36187L39.534 9.35334C39.4707 9.33797 39.4072 9.32409 39.3464 9.31378C39.3208 9.30918 39.2949 9.30543 39.2688 9.30196L39.2361 9.29737C39.1933 9.29128 39.1505 9.28556 39.1099 9.282C39.0211 9.27393 38.9373 9.27009 38.8539 9.27009C38.7521 9.27009 38.6508 9.27637 38.55 9.28706C38.5311 8.15118 37.7111 7.15565 36.5469 6.8595L36.5124 6.85097C36.4492 6.83559 36.3856 6.82171 36.3248 6.8114C36.2993 6.80681 36.2734 6.80306 36.2473 6.79959L36.2146 6.795C36.1717 6.7889 36.1289 6.78318 36.0884 6.77962C35.9995 6.77156 35.9158 6.76772 35.8324 6.76772C35.5542 6.76772 35.2775 6.80868 35.0134 6.88715C34.8501 5.9025 34.0839 5.07712 33.042 4.81209L33.0076 4.80356C32.9443 4.78818 32.8808 4.77431 32.82 4.764C32.7944 4.7594 32.7685 4.75565 32.7424 4.75218L32.7097 4.74759C32.6669 4.7415 32.6241 4.73578 32.5835 4.73221C32.4947 4.72415 32.4109 4.72031 32.3275 4.72031C31.9836 4.72031 31.642 4.78265 31.3238 4.90162C31.0738 4.04287 30.358 3.34537 29.4162 3.10593L29.3818 3.0974C29.3185 3.08203 29.255 3.06815 29.1942 3.05784C29.1686 3.05325 29.1427 3.0495 29.1166 3.04603L29.0839 3.04143C29.0411 3.03534 28.9983 3.02962 28.9577 3.02606C28.8689 3.018 28.7851 3.01415 28.7017 3.01415C28.2496 3.01415 27.8014 3.12131 27.4052 3.32409C27.3719 3.34115 27.3401 3.3599 27.3077 3.37809C26.9791 2.70065 26.3446 2.17078 25.5488 1.96846L25.5143 1.95993C25.4511 1.94456 25.3875 1.93068 25.3268 1.92037C25.3012 1.91578 25.2753 1.91203 25.2492 1.90856L25.2165 1.90396C25.1737 1.89778 25.1308 1.89215 25.0903 1.88859C25.0015 1.88053 24.9177 1.87668 24.8343 1.87668C24.3822 1.87668 23.9339 1.98384 23.5378 2.18662C23.454 2.22946 23.3744 2.27718 23.297 2.32725C22.9439 1.77346 22.3742 1.3485 21.6814 1.17225L21.6469 1.16371C21.5837 1.14834 21.5201 1.13446 21.4593 1.12415C21.4337 1.11956 21.4078 1.11581 21.3818 1.11234L21.3491 1.10775C21.3062 1.10165 21.2634 1.09593 21.2229 1.09237C21.1343 1.0844 21.0505 1.08046 20.9672 1.08046C20.515 1.08046 20.0668 1.18762 19.6707 1.3904C19.4529 1.50187 19.2558 1.63893 19.0823 1.79606C18.732 1.39246 18.2532 1.08721 17.6934 0.944809L17.6589 0.936277C17.5957 0.920902 17.5321 0.907027 17.4714 0.896715C17.4458 0.892121 17.4199 0.888371 17.3938 0.884902L17.3611 0.880309C17.3183 0.874215 17.2755 0.868496 17.2349 0.864934C17.1461 0.856965 17.0624 0.853027 16.9789 0.853027C16.5268 0.853027 16.0785 0.960184 15.6824 1.16296C15.339 1.33884 15.0476 1.57837 14.8187 1.86037C14.487 1.53825 14.0657 1.29468 13.5843 1.17234L13.5499 1.16381C13.4866 1.14843 13.4231 1.13456 13.3623 1.12425C13.3367 1.11965 13.3108 1.1159 13.2847 1.11243L13.252 1.10784C13.2092 1.10165 13.1664 1.09603 13.1258 1.09246C13.037 1.0845 12.9532 1.08056 12.8698 1.08056C12.4177 1.08056 11.9695 1.18771 11.5733 1.3905C10.9634 1.70287 10.5146 2.21465 10.2972 2.81278C10.1511 2.74696 9.99799 2.69184 9.83772 2.65106L9.80326 2.64253C9.74 2.62715 9.67645 2.61328 9.61569 2.60296C9.59009 2.59837 9.56419 2.59462 9.5381 2.59115L9.50542 2.58656C9.46269 2.58037 9.41976 2.57475 9.37922 2.57118C9.29037 2.56321 9.2066 2.55928 9.12322 2.55928C8.67109 2.55928 8.22285 2.66643 7.82671 2.86922C7.02754 3.27834 6.50559 4.02993 6.41843 4.86956C6.41086 4.86843 6.40349 4.86721 6.39582 4.86618L6.36315 4.86159C6.32031 4.8555 6.27748 4.84978 6.23694 4.84622C6.14809 4.83815 6.06432 4.83412 5.98095 4.83412C5.52882 4.83412 5.08058 4.94128 4.68443 5.14406C3.80687 5.59331 3.26171 6.45515 3.26171 7.39331C3.26171 7.47684 3.26629 7.56215 3.27526 7.64578C3.27874 7.67934 3.28382 7.71234 3.29129 7.75622L3.29368 7.77262C3.29946 7.81218 3.30574 7.85165 3.31361 7.88878C3.32287 7.9334 3.33442 7.9769 3.34658 8.0205L3.35325 8.04487C3.35425 8.04843 3.35534 8.0519 3.35624 8.05547C3.0603 8.10225 2.77303 8.19393 2.50906 8.32893C1.6314 8.77818 1.08624 9.64003 1.08624 10.5782C1.08624 10.6617 1.09082 10.747 1.09979 10.8307C1.10327 10.8642 1.10835 10.8972 1.11582 10.9411L1.11821 10.9575C1.12399 10.9971 1.13027 11.0365 1.13814 11.0737C1.1474 11.1183 1.15896 11.1618 1.17111 11.2054L1.17778 11.2297C1.18455 11.2559 1.19183 11.2821 1.20009 11.3083C1.21812 11.3652 1.23914 11.4207 1.26076 11.4748C1.26813 11.4942 1.2757 11.5136 1.28297 11.5307C1.30757 11.5883 1.33516 11.6457 1.36614 11.7043C1.37242 11.7168 1.37879 11.7292 1.38527 11.7411C1.40439 11.7761 1.42601 11.8091 1.44663 11.8431C1.43826 11.8473 1.42959 11.8508 1.42133 11.855C0.545162 12.3042 0 13.1661 0 14.1042C0 14.1877 0.00458203 14.273 0.0135469 14.3567C0.0170332 14.3902 0.0221133 14.4232 0.029584 14.4671L0.0319746 14.4835C0.037752 14.5231 0.0440273 14.5626 0.0518965 14.5997C0.0611602 14.6443 0.0727148 14.6878 0.0848672 14.7314L0.091541 14.7558C0.0983145 14.7819 0.105586 14.8081 0.113854 14.8343C0.131883 14.8912 0.1529 14.9467 0.174516 15.0008C0.181887 15.0203 0.189457 15.0397 0.196729 15.0567C0.221332 15.1144 0.248924 15.1717 0.279902 15.2303C0.286178 15.2428 0.292553 15.2553 0.299027 15.2671C0.332795 15.3291 0.369551 15.3902 0.407801 15.4478C0.410789 15.4526 0.416666 15.4613 0.419654 15.466C0.461789 15.5288 0.507709 15.5913 0.556617 15.6515C0.557414 15.6526 0.55841 15.6537 0.559307 15.6548C0.69109 15.8171 0.840006 15.9617 1.00277 16.0875C0.448441 16.5663 0.120926 17.2457 0.120926 17.9716C0.120926 18.0551 0.125508 18.1403 0.134473 18.2241C0.137959 18.2576 0.143039 18.2906 0.15051 18.3343L0.1529 18.3509C0.158578 18.3904 0.164953 18.4297 0.173121 18.4684C0.182385 18.5123 0.19374 18.5557 0.205893 18.5987L0.212566 18.6231C0.21934 18.6492 0.226611 18.6754 0.234879 18.7016C0.252908 18.7585 0.273926 18.814 0.295541 18.8681C0.302912 18.8876 0.310482 18.9069 0.317754 18.924C0.342357 18.9817 0.369949 19.039 0.400928 19.0975C0.407203 19.11 0.413578 19.1225 0.420053 19.1343C0.45382 19.1962 0.490676 19.2574 0.528826 19.315C0.531814 19.3198 0.537691 19.3285 0.54068 19.3332C0.582814 19.396 0.628734 19.4585 0.677643 19.5187C0.678439 19.5198 0.679436 19.5209 0.680332 19.522C0.981053 19.8925 1.37102 20.1708 1.8109 20.3406C1.57921 20.7209 1.45041 21.1569 1.45041 21.6113C1.45041 21.6949 1.45499 21.7801 1.46396 21.8638C1.46745 21.8974 1.47253 21.9304 1.48 21.9741L1.48239 21.9907C1.48816 22.0302 1.49444 22.0697 1.50231 22.1068C1.51157 22.1514 1.52313 22.1949 1.53528 22.2385L1.54195 22.2629C1.54873 22.2891 1.556 22.3152 1.56427 22.3415C1.58229 22.3984 1.60331 22.4539 1.62493 22.508C1.6323 22.5275 1.63987 22.5468 1.64714 22.5638C1.67174 22.6215 1.69934 22.6789 1.73031 22.7374C1.73659 22.7498 1.74296 22.7623 1.74944 22.7741C1.78321 22.8361 1.82006 22.8972 1.85821 22.9549C1.8612 22.9597 1.86708 22.9684 1.87007 22.9731C1.9122 23.0359 1.95812 23.0983 2.00703 23.1585C2.00783 23.1596 2.00882 23.1607 2.00972 23.1619C2.5001 23.7661 3.22764 24.1272 4.02352 24.1667C4.00121 24.2985 3.98836 24.4327 3.98836 24.5687C3.98836 24.6522 3.99294 24.7374 4.00191 24.8212C4.00539 24.8547 4.01047 24.8877 4.01794 24.9314L4.02033 24.948C4.02611 24.9876 4.03239 25.027 4.04026 25.0642C4.04952 25.1088 4.06107 25.1523 4.07323 25.1959L4.0799 25.2202C4.08667 25.2464 4.09395 25.2726 4.10221 25.2988C4.12024 25.3557 4.14126 25.4112 4.16288 25.4653C4.17025 25.4847 4.17782 25.5041 4.18509 25.5212C4.20969 25.5788 4.23728 25.6362 4.26826 25.6947C4.27454 25.7072 4.28091 25.7197 4.28739 25.7315C4.32115 25.7934 4.35801 25.8546 4.39616 25.9122C4.39915 25.917 4.40503 25.9257 4.40801 25.9304C4.45015 25.9932 4.49607 26.0557 4.54498 26.1158C4.54577 26.117 4.54677 26.1181 4.54767 26.1192C5.06803 26.7603 5.85514 27.128 6.7077 27.128C6.90313 27.128 7.09368 27.1081 7.27766 27.071C7.27886 27.0784 7.27985 27.0847 7.28115 27.0927L7.28354 27.1093C7.28931 27.1489 7.29559 27.1883 7.30346 27.2255C7.31272 27.2701 7.32428 27.3136 7.33643 27.3572L7.3431 27.3816C7.34988 27.4077 7.35715 27.4339 7.36542 27.4601C7.38345 27.517 7.40446 27.5725 7.42608 27.6266C7.43345 27.646 7.44102 27.6654 7.44829 27.6825C7.47289 27.7402 7.50049 27.7975 7.53147 27.856C7.53774 27.8685 7.54412 27.881 7.55059 27.8928C7.58436 27.9547 7.62111 28.0159 7.65936 28.0735C7.66235 28.0783 7.66823 28.087 7.67122 28.0917C7.71335 28.1545 7.75927 28.217 7.80818 28.2772C7.80898 28.2783 7.80997 28.2794 7.81087 28.2805C8.33123 28.9216 9.11834 29.2893 9.9709 29.2893C10.4413 29.2893 10.884 29.1762 11.2703 28.9777C11.2731 28.983 11.2752 28.9882 11.2779 28.9936C11.2841 29.0061 11.2905 29.0185 11.297 29.0303C11.3308 29.0923 11.3675 29.1534 11.4058 29.2111C11.4088 29.2159 11.4146 29.2246 11.4176 29.2293C11.4598 29.2921 11.5057 29.3545 11.5546 29.4147C11.5554 29.4158 11.5564 29.417 11.5573 29.4181C12.0776 30.0592 12.8647 30.4268 13.7173 30.4268C14.5096 30.4268 15.2237 30.1061 15.7211 29.5955C16.241 30.1967 17.0029 30.5406 17.8263 30.5406C18.6141 30.5406 19.3245 30.2232 19.8216 29.7176C20.336 30.2429 21.0485 30.5406 21.8145 30.5406C22.6346 30.5406 23.3706 30.1966 23.8696 29.6543C24.3877 30.2194 25.1271 30.5406 25.9235 30.5406C26.7114 30.5406 27.4218 30.2232 27.9188 29.7176C28.4332 30.2429 29.1457 30.5406 29.9117 30.5406C30.7319 30.5406 31.4678 30.1966 31.9668 29.6543C32.4849 30.2194 33.2243 30.5406 34.0208 30.5406C34.6141 30.5406 35.1632 30.3603 35.6107 30.0556C35.6471 30.108 35.6846 30.1605 35.7254 30.2108C35.7262 30.212 35.7272 30.2131 35.7281 30.2142C36.2485 30.8553 37.0356 31.223 37.8881 31.223C38.2426 31.223 38.581 31.1581 38.8918 31.0416C38.897 31.061 38.9021 31.0805 38.9083 31.1001C38.9263 31.157 38.9474 31.2125 38.969 31.2666C38.9763 31.286 38.9839 31.3054 38.9912 31.3224C39.0158 31.3801 39.0434 31.4375 39.0744 31.496C39.0806 31.5084 39.087 31.5209 39.0935 31.5327C39.1273 31.5947 39.1641 31.6558 39.2023 31.7135C39.2053 31.7182 39.2111 31.727 39.2141 31.7317C39.2563 31.7945 39.3022 31.8569 39.3511 31.9171C39.3519 31.9182 39.3529 31.9193 39.3538 31.9205C39.8741 32.5615 40.6612 32.9292 41.5138 32.9292C41.5403 32.9292 41.5664 32.9281 41.5927 32.9272C41.5812 33.0212 41.5741 33.1165 41.5741 33.213C41.5741 33.2965 41.5786 33.3817 41.5876 33.4655C41.5911 33.499 41.5962 33.532 41.6036 33.5757L41.606 33.5923C41.6118 33.6319 41.6181 33.6713 41.626 33.7085C41.6352 33.7531 41.6468 33.7966 41.6589 33.8402L41.6656 33.8646C41.6724 33.8907 41.6796 33.9169 41.6879 33.9431C41.7059 34 41.727 34.0555 41.7486 34.1096C41.756 34.129 41.7635 34.1484 41.7708 34.1655C41.7954 34.2232 41.823 34.2805 41.854 34.3391C41.8602 34.3516 41.8666 34.3641 41.8731 34.3759C41.9069 34.4378 41.9437 34.499 41.9819 34.5566C41.9849 34.5614 41.9907 34.5701 41.9937 34.5748C42.0359 34.6376 42.0818 34.7001 42.1307 34.7602C42.1315 34.7614 42.1325 34.7625 42.1334 34.7636C42.6537 35.4047 43.4408 35.7724 44.2934 35.7724C44.7305 35.7724 45.1436 35.6742 45.51 35.501L41.0151 39.7314C40.9528 39.7901 40.8922 39.8531 40.8354 39.9186C40.8125 39.9447 40.7911 39.9717 40.7702 39.999L40.7517 40.0224C40.7266 40.0537 40.7018 40.0852 40.6792 40.1169C40.6525 40.1544 40.6281 40.1928 40.6042 40.2315L40.5912 40.2519C40.576 40.2756 40.561 40.2995 40.548 40.3223C40.5178 40.3747 40.4909 40.4284 40.4662 40.4797C40.4563 40.4991 40.4466 40.5187 40.4394 40.535C40.4148 40.5893 40.392 40.6455 40.3668 40.7154C40.3615 40.7295 40.3562 40.7437 40.3536 40.7516C40.3316 40.8155 40.3124 40.8807 40.2942 40.9538C40.2926 40.9598 40.2904 40.9681 40.2892 40.9732C40.2723 41.0434 40.2582 41.1161 40.2475 41.1897C40.2471 41.1922 40.2468 41.1947 40.2464 41.1972C40.1995 41.5247 40.2199 41.8492 40.3003 42.1577C40.2561 42.1442 40.2126 42.1297 40.1675 42.1182L40.1392 42.1112C40.0759 42.0958 40.0124 42.0819 39.9516 42.0716C39.926 42.067 39.9001 42.0633 39.874 42.0598L39.8414 42.0552C39.7985 42.0491 39.7557 42.0434 39.7152 42.0398C39.6263 42.0318 39.5425 42.0279 39.4592 42.0279C39.007 42.0279 38.5588 42.1351 38.1626 42.3379C37.8111 42.518 37.514 42.7649 37.2828 43.0557C36.9271 42.6094 36.4185 42.2712 35.8166 42.1181L35.7884 42.1111C35.7251 42.0957 35.6615 42.0818 35.6008 42.0715C35.5752 42.0669 35.5493 42.0632 35.5232 42.0597L35.4905 42.0551C35.4477 42.0489 35.4049 42.0433 35.3643 42.0397C35.2755 42.0317 35.1917 42.0278 35.1083 42.0278C34.8036 42.0278 34.501 42.0776 34.2145 42.1715C34.2161 41.8602 34.1625 41.5466 34.0489 41.245C34.0405 41.2231 34.0314 41.2013 34.0204 41.1757C33.9917 41.1056 33.9603 41.0374 33.9269 40.9719C33.9119 40.9428 33.8964 40.914 33.8809 40.8865C33.8466 40.8251 33.8091 40.7644 33.767 40.7017L33.7605 40.6917C33.7457 40.6691 33.7306 40.6467 33.7144 40.624C33.6536 40.5397 33.5934 40.4646 33.5309 40.3948C32.9918 39.7544 32.6369 38.8754 32.2614 37.9451C31.6204 36.3573 30.8939 34.5575 28.9985 33.7642C28.456 33.5372 27.8472 33.4057 27.1892 33.3729C26.6882 33.3485 26.2626 33.7095 26.2364 34.18C26.2101 34.6505 26.594 35.052 27.094 35.0767C27.5359 35.0986 27.9179 35.1792 28.262 35.3232C29.4674 35.8278 30.0014 37.1505 30.5667 38.551C30.9769 39.5672 31.401 40.6178 32.1212 41.4677C32.1216 41.4682 32.1219 41.4686 32.1224 41.4691C32.1285 41.4761 32.1347 41.4832 32.1408 41.49C32.1636 41.5154 32.1879 41.5456 32.2103 41.5765L32.2339 41.6122C32.249 41.6348 32.2636 41.6577 32.2773 41.6823C32.2834 41.693 32.2892 41.7037 32.2945 41.7139C32.3071 41.7386 32.3185 41.7639 32.3294 41.7905L32.3436 41.8237C32.4811 42.1971 32.3791 42.6174 32.0827 42.8965C31.6788 43.2767 31.0222 43.3008 30.5882 42.9515C30.5804 42.9452 30.5725 42.9391 30.5644 42.933C29.6612 42.2548 28.5438 41.8558 27.4632 41.4701C25.3934 40.7313 24.0667 40.1756 23.8122 38.565L26.0735 36.4368C26.4275 36.1036 26.4275 35.5634 26.0735 35.2304C25.7194 34.8972 25.1456 34.8972 24.7917 35.2304L22.228 37.6432C22.0463 37.8142 21.9503 38.0497 21.9638 38.2912C22.1373 41.3936 24.7338 42.3206 26.8202 43.0655C27.809 43.4184 28.7433 43.7519 29.4236 44.2591C29.9646 44.689 30.6337 44.9016 31.3016 44.9016C31.6732 44.9016 32.044 44.8353 32.3925 44.7046C32.3948 44.7498 32.398 44.7949 32.4028 44.8397C32.4063 44.8732 32.4114 44.9062 32.4189 44.9499L32.4213 44.9665C32.427 45.0061 32.4333 45.0456 32.4412 45.0827C32.4504 45.1273 32.462 45.1708 32.4742 45.2144L32.4808 45.2388C32.4876 45.2649 32.4949 45.2911 32.5031 45.3173C32.5212 45.3742 32.5422 45.4297 32.5638 45.4838C32.5712 45.5032 32.5787 45.5227 32.586 45.5397C32.6107 45.5974 32.6382 45.6547 32.6692 45.7132C32.6755 45.7257 32.6818 45.7382 32.6883 45.75C32.7221 45.812 32.7589 45.8731 32.7971 45.9307C32.8001 45.9355 32.806 45.9442 32.8089 45.9489C32.8511 46.0117 32.897 46.0742 32.9459 46.1344C32.9467 46.1355 32.9477 46.1366 32.9486 46.1377C33.469 46.7788 34.2561 47.1465 35.1086 47.1465C35.9981 47.1465 36.7891 46.7424 37.2856 46.1193C37.2896 46.1242 37.2928 46.1295 37.2967 46.1344C37.2975 46.1355 37.2985 46.1366 37.2994 46.1377C37.8198 46.7788 38.6069 47.1465 39.4595 47.1465C40.9589 47.1465 42.1787 45.9984 42.1787 44.5872C42.1787 44.3761 42.1504 44.1697 42.0978 43.9716C42.3707 44.0547 42.6543 44.0985 42.9386 44.0985C43.635 44.0985 44.3312 43.849 44.8614 43.3501L50.0172 38.4976C51.0059 37.567 51.0643 36.0966 50.1537 35.0758C50.0995 35.0159 50.044 34.9585 49.9876 34.9054ZM35.1078 45.4407C34.8278 45.4407 34.5678 45.3198 34.3882 45.1022C34.3874 45.1011 34.3865 45.0999 34.3856 45.0988C34.3712 45.081 34.3576 45.0626 34.3446 45.0437C34.3424 45.0404 34.34 45.0367 34.3386 45.0347C34.3268 45.0169 34.3154 44.9988 34.3048 44.9797C34.3017 44.9736 34.2979 44.9662 34.2961 44.9627C34.2871 44.9457 34.2784 44.9286 34.2698 44.9095L34.26 44.8841C34.2533 44.8674 34.2465 44.8507 34.2411 44.834L34.2268 44.7811C34.224 44.7711 34.221 44.7612 34.2199 44.7576L34.2051 44.663C34.2028 44.6375 34.2016 44.612 34.2016 44.5877C34.2016 44.2751 34.3841 43.9875 34.6776 43.8371C34.8106 43.7691 34.9553 43.7346 35.1079 43.7346C35.1324 43.7346 35.1591 43.7361 35.1896 43.7388L35.2707 43.7499C35.2918 43.7536 35.3125 43.7584 35.3348 43.7639C35.3355 43.764 35.3409 43.7654 35.3446 43.7662C35.7389 43.8672 36.0144 44.2048 36.0144 44.5878C36.0143 45.058 35.6077 45.4407 35.1078 45.4407ZM39.4586 45.4407C39.1786 45.4407 38.9186 45.3198 38.739 45.1022C38.7382 45.1011 38.7372 45.0999 38.7363 45.0988C38.7219 45.081 38.7083 45.0626 38.6954 45.0437C38.6932 45.0404 38.6908 45.0367 38.6895 45.0347C38.6776 45.0169 38.6663 44.9988 38.6556 44.9797C38.6524 44.9736 38.6487 44.9662 38.6469 44.9627C38.638 44.9457 38.6292 44.9286 38.6206 44.9095L38.6109 44.8841C38.6041 44.8674 38.5973 44.8507 38.592 44.834L38.5776 44.7811C38.5748 44.7711 38.5718 44.7612 38.5707 44.7576L38.5559 44.663C38.5536 44.6375 38.5524 44.612 38.5524 44.5877C38.5524 44.2751 38.7349 43.9875 39.0284 43.8371C39.1614 43.7691 39.3062 43.7346 39.4588 43.7346C39.4833 43.7346 39.51 43.7361 39.5404 43.7388L39.6215 43.7499C39.6426 43.7536 39.6634 43.7584 39.6857 43.7639C39.6864 43.764 39.6917 43.7654 39.6954 43.7662C40.0898 43.8672 40.3652 44.2048 40.3652 44.5878C40.3649 45.058 39.9584 45.4407 39.4586 45.4407ZM48.081 27.5981C48.1022 27.6018 48.1229 27.6066 48.1536 27.6141C48.5487 27.7147 48.8246 28.0525 48.8246 28.4361C48.8246 28.9064 48.4181 29.289 47.9183 29.289C47.6383 29.289 47.3783 29.1681 47.1987 28.9505C47.1979 28.9493 47.1969 28.9482 47.196 28.9471C47.1817 28.9293 47.168 28.9109 47.1551 28.892C47.1529 28.8887 47.1505 28.885 47.1491 28.883C47.1372 28.8652 47.1259 28.8471 47.1152 28.8279C47.112 28.8218 47.1084 28.8145 47.1066 28.811C47.0976 28.794 47.0888 28.7768 47.0802 28.7578L47.0704 28.7324C47.0636 28.7157 47.0569 28.6989 47.0515 28.6822L47.0371 28.6294C47.0344 28.6193 47.0314 28.6095 47.0303 28.6058L47.0228 28.5563L47.0154 28.5113C47.0131 28.4857 47.0119 28.4602 47.0119 28.436C47.0119 28.1234 47.1944 27.8358 47.488 27.6854C47.621 27.6173 47.7657 27.5829 47.9183 27.5829C47.9428 27.5829 47.9695 27.5843 48 27.5871L48.081 27.5981ZM47.154 23.8334L47.2351 23.8446C47.2562 23.8482 47.2769 23.853 47.2974 23.8581C47.298 23.8582 47.307 23.8603 47.3076 23.8605C47.7027 23.9611 47.9786 24.299 47.9786 24.6825C47.9786 25.1528 47.5721 25.5354 47.0722 25.5354C46.7922 25.5354 46.5322 25.4145 46.3526 25.1969C46.3518 25.1958 46.3508 25.1947 46.3499 25.1935C46.3356 25.1757 46.3219 25.1573 46.309 25.1384C46.3068 25.1351 46.3044 25.1315 46.3031 25.1294C46.2913 25.1116 46.2799 25.0935 46.2692 25.0744C46.2661 25.0683 46.2624 25.061 46.2606 25.0574C46.2516 25.0404 46.2429 25.0233 46.2343 25.0042L46.2245 24.9788C46.2178 24.9622 46.211 24.9454 46.2056 24.9287L46.1913 24.8758C46.1885 24.8658 46.1855 24.8559 46.1844 24.8523L46.1695 24.7577C46.1673 24.7322 46.1661 24.7067 46.1661 24.6824C46.1661 24.3698 46.3485 24.0822 46.6421 23.9318C46.7751 23.8638 46.9198 23.8294 47.0724 23.8294C47.0968 23.8294 47.1235 23.8307 47.154 23.8334ZM46.7999 34.4493C46.7335 34.482 46.6691 34.5191 46.6053 34.5574C46.6415 34.5025 46.6751 34.4463 46.7068 34.3888C46.7375 34.4094 46.7685 34.4298 46.7999 34.4493ZM45.3125 20.4057C45.4455 20.3377 45.5902 20.3032 45.7428 20.3032C45.7673 20.3032 45.794 20.3047 45.8245 20.3074L45.9086 20.319C45.9286 20.3226 45.9488 20.3273 45.9781 20.3344C46.3731 20.435 46.6492 20.7729 46.6492 21.1564C46.6492 21.6268 46.2427 22.0094 45.7428 22.0094C45.4628 22.0094 45.2028 21.8885 45.0232 21.6709C45.0224 21.6697 45.0214 21.6686 45.0205 21.6675C45.0062 21.6497 44.9926 21.6313 44.9796 21.6124C44.9774 21.6091 44.975 21.6054 44.9737 21.6034C44.9619 21.5856 44.9505 21.5675 44.9399 21.5483C44.9367 21.5422 44.933 21.5349 44.9312 21.5314C44.9222 21.5144 44.9135 21.4972 44.9048 21.4782L44.895 21.4528C44.8883 21.4361 44.8815 21.4193 44.8761 21.4027L44.8618 21.3498C44.859 21.3397 44.856 21.3299 44.8549 21.3262L44.8401 21.2317C44.8378 21.2062 44.8366 21.1807 44.8366 21.1564C44.8365 20.8438 45.019 20.5561 45.3125 20.4057ZM43.3789 16.9934C43.5119 16.9253 43.6566 16.8909 43.8092 16.8909C43.8337 16.8909 43.8604 16.8923 43.8909 16.8951L43.9749 16.9067C43.995 16.9102 44.0152 16.915 44.0445 16.9221C44.4395 17.0227 44.7155 17.3606 44.7155 17.7441C44.7155 18.2145 44.309 18.5972 43.8091 18.5972C43.5291 18.5972 43.2691 18.4762 43.0895 18.2587C43.0887 18.2575 43.0877 18.2564 43.0868 18.2553C43.0725 18.2375 43.0588 18.2191 43.0459 18.2002C43.0437 18.1969 43.0413 18.1932 43.04 18.1912C43.0282 18.1733 43.0168 18.1552 43.0061 18.1361C43.003 18.1299 42.9993 18.1227 42.9975 18.1192C42.9885 18.1022 42.9798 18.085 42.9712 18.066L42.9614 18.0406C42.9547 18.0239 42.9479 18.0071 42.9425 17.9904L42.9282 17.9376C42.9254 17.9275 42.9224 17.9177 42.9213 17.914L42.9064 17.8194C42.9041 17.7939 42.903 17.7684 42.903 17.7442C42.9029 17.4315 43.0853 17.1438 43.3789 16.9934ZM41.0827 13.9223C41.2157 13.8543 41.3604 13.8199 41.513 13.8199C41.5375 13.8199 41.5642 13.8213 41.5947 13.824L41.6788 13.8356C41.6988 13.8392 41.719 13.844 41.7483 13.851C42.1434 13.9516 42.4193 14.2895 42.4193 14.673C42.4193 15.1434 42.0128 15.5261 41.513 15.5261C41.233 15.5261 40.973 15.4052 40.7934 15.1876C40.7926 15.1865 40.7916 15.1853 40.7907 15.1842C40.7764 15.1664 40.7627 15.148 40.7498 15.1291C40.7476 15.1258 40.7452 15.1222 40.7438 15.1201C40.732 15.1023 40.7206 15.0842 40.71 15.0651C40.7068 15.0589 40.7031 15.0517 40.7013 15.0481C40.6923 15.0311 40.6836 15.014 40.6749 14.9949L40.6651 14.9695C40.6584 14.9528 40.6516 14.9361 40.6462 14.9194L40.6319 14.8665C40.6291 14.8565 40.6261 14.8466 40.625 14.843L40.6101 14.7484C40.6079 14.7229 40.6067 14.6974 40.6067 14.6731C40.6067 14.3603 40.7891 14.0727 41.0827 13.9223ZM38.4239 11.0787C38.5569 11.0107 38.7016 10.9762 38.8542 10.9762C38.8787 10.9762 38.9054 10.9777 38.9359 10.9804L39.017 10.9915C39.0381 10.9952 39.0588 11 39.0895 11.0075C39.4847 11.1081 39.7606 11.4459 39.7606 11.8295C39.7606 12.2999 39.3541 12.6825 38.8541 12.6825C38.5741 12.6825 38.3141 12.5616 38.1346 12.344C38.1338 12.3428 38.1328 12.3417 38.1319 12.3406C38.1175 12.3228 38.1039 12.3044 38.0909 12.2855C38.0887 12.2822 38.0863 12.2785 38.085 12.2765C38.0732 12.2587 38.0618 12.2406 38.0512 12.2214C38.048 12.2153 38.0443 12.208 38.0425 12.2045C38.0335 12.1875 38.0248 12.1703 38.0162 12.1513L38.0065 12.1259C37.9997 12.1092 37.9929 12.0924 37.9875 12.0757L37.9732 12.0229C37.9704 12.0128 37.9674 12.003 37.9663 11.9993L37.9515 11.9047C37.9492 11.8792 37.948 11.8537 37.948 11.8294C37.9479 11.5167 38.1304 11.2291 38.4239 11.0787ZM35.4026 8.57634C35.5355 8.50828 35.6803 8.47387 35.8329 8.47387C35.8574 8.47387 35.8841 8.47528 35.9146 8.478L35.9956 8.48915C36.0168 8.49281 36.0375 8.49759 36.0682 8.50509C36.4632 8.6055 36.7392 8.94356 36.7392 9.327C36.7392 9.79743 36.3327 10.1801 35.8328 10.1801C35.5528 10.1801 35.2928 10.0592 35.1132 9.84159C35.1124 9.84046 35.1114 9.83934 35.1105 9.83821C35.0962 9.8204 35.0825 9.80203 35.0696 9.78309C35.0674 9.77981 35.065 9.77615 35.0637 9.77409C35.0518 9.75628 35.0405 9.73818 35.0298 9.71906C35.0266 9.71297 35.023 9.70565 35.0212 9.70209C35.0122 9.68512 35.0034 9.66796 34.9948 9.64893L34.985 9.62353C34.9782 9.60684 34.9715 9.59006 34.9661 9.57337L34.9517 9.5205C34.9489 9.51046 34.946 9.50062 34.9449 9.49697L34.93 9.40237C34.9277 9.37687 34.9265 9.35137 34.9265 9.32709C34.9265 9.01443 35.109 8.72672 35.4026 8.57634ZM31.8978 6.52893C32.0308 6.46087 32.1755 6.42647 32.3281 6.42647C32.3526 6.42647 32.3793 6.42787 32.4098 6.43059L32.4909 6.44175C32.512 6.4454 32.5327 6.45018 32.5634 6.45768C32.9585 6.55809 33.2345 6.89615 33.2345 7.27959C33.2345 7.75003 32.828 8.13272 32.3281 8.13272C32.0481 8.13272 31.7881 8.01178 31.6085 7.79418C31.6077 7.79306 31.6068 7.79193 31.6059 7.79081C31.5915 7.773 31.5779 7.75462 31.5649 7.73568C31.5627 7.7324 31.5603 7.72875 31.5589 7.72668C31.5471 7.70887 31.5357 7.69078 31.5251 7.67165C31.522 7.66556 31.5182 7.65825 31.5164 7.65468C31.5074 7.63771 31.4987 7.62056 31.4901 7.60153L31.4803 7.57612C31.4736 7.55943 31.4668 7.54265 31.4614 7.52596L31.4471 7.47309C31.4443 7.46306 31.4413 7.45321 31.4402 7.44956L31.4254 7.35497C31.4231 7.32947 31.4219 7.30397 31.4219 7.27968C31.4218 6.96703 31.6043 6.67931 31.8978 6.52893ZM28.2722 4.82278C28.4052 4.75471 28.5499 4.72031 28.7025 4.72031C28.727 4.72031 28.7537 4.72171 28.7842 4.72443L28.8653 4.73559C28.8864 4.73925 28.9071 4.74403 28.9378 4.75153C29.3329 4.85193 29.6089 5.19 29.6089 5.57343C29.6089 6.04387 29.2024 6.42647 28.7024 6.42647C28.4224 6.42647 28.1625 6.30553 27.9829 6.08793C27.9821 6.08681 27.9811 6.08568 27.9802 6.08456C27.9658 6.06675 27.9522 6.04837 27.9392 6.02943C27.937 6.02615 27.9347 6.0225 27.9334 6.02043C27.9215 6.00262 27.9101 5.98453 27.8995 5.9654C27.8963 5.95931 27.8926 5.952 27.8908 5.94843C27.8819 5.93147 27.8731 5.91431 27.8644 5.89528L27.8547 5.86987C27.8479 5.85318 27.8411 5.8364 27.8357 5.81972L27.8214 5.76684C27.8186 5.75681 27.8156 5.74696 27.8145 5.74331L27.8071 5.69381L27.7997 5.64881C27.7974 5.62322 27.7962 5.59771 27.7962 5.57343C27.7962 5.26087 27.9787 4.97315 28.2722 4.82278ZM24.405 3.6854C24.538 3.61734 24.6827 3.58293 24.8353 3.58293C24.8598 3.58293 24.8865 3.58434 24.917 3.58706L24.9981 3.59822C25.0192 3.60187 25.0399 3.60665 25.0706 3.61415C25.4656 3.71456 25.7417 4.05262 25.7417 4.43606C25.7417 4.9065 25.3351 5.28909 24.8352 5.28909C24.5552 5.28909 24.2952 5.16815 24.1156 4.95056C24.1148 4.94943 24.1138 4.94831 24.1129 4.94718C24.0986 4.92937 24.0849 4.911 24.072 4.89206C24.0698 4.88878 24.0674 4.88512 24.0661 4.88306C24.0543 4.86525 24.0429 4.84715 24.0323 4.82803C24.0291 4.82184 24.0254 4.81462 24.0236 4.81106C24.0146 4.79409 24.0059 4.77693 23.9972 4.7579L23.9874 4.7325C23.9807 4.71581 23.9739 4.69903 23.9685 4.68234L23.9542 4.62947C23.9514 4.61943 23.9484 4.60959 23.9473 4.60593L23.9398 4.55643L23.9324 4.51143C23.9302 4.48584 23.929 4.46034 23.929 4.43606C23.9289 4.1234 24.1114 3.83578 24.405 3.6854ZM20.5377 2.88918C20.6706 2.82112 20.8154 2.78671 20.968 2.78671C20.9925 2.78671 21.0192 2.78812 21.0497 2.79084L21.1307 2.802C21.1519 2.80565 21.1726 2.81043 21.2032 2.81793C21.5983 2.91834 21.8743 3.2564 21.8743 3.63984C21.8743 4.11028 21.4678 4.49296 20.9679 4.49296C20.6879 4.49296 20.4279 4.37203 20.2483 4.15443C20.2475 4.15331 20.2465 4.15218 20.2456 4.15106C20.2313 4.13325 20.2176 4.11487 20.2047 4.09593C20.2025 4.09265 20.2001 4.089 20.1988 4.08693C20.1869 4.06912 20.1756 4.05103 20.1649 4.0319C20.1617 4.02581 20.158 4.0185 20.1563 4.01493C20.1473 3.99796 20.1385 3.98081 20.1299 3.96178L20.1201 3.93637C20.1133 3.91968 20.1066 3.9029 20.1012 3.88621L20.0868 3.83334C20.084 3.82331 20.0811 3.81346 20.08 3.80981L20.0651 3.71522C20.0628 3.68972 20.0616 3.66421 20.0616 3.63993C20.0616 3.32718 20.2441 3.03956 20.5377 2.88918ZM16.5495 2.66165C16.6825 2.59359 16.8272 2.55918 16.9798 2.55918C17.0043 2.55918 17.031 2.56059 17.0615 2.56331L17.1426 2.57446C17.1637 2.57812 17.1844 2.5829 17.2151 2.5904C17.6101 2.69081 17.8862 3.02887 17.8862 3.41231C17.8862 3.88275 17.4797 4.26534 16.9798 4.26534C16.6998 4.26534 16.4398 4.1444 16.2602 3.92681C16.2594 3.92568 16.2584 3.92456 16.2575 3.92343C16.2432 3.90562 16.2296 3.88725 16.2166 3.86831C16.2144 3.86503 16.212 3.86137 16.2107 3.85931C16.1989 3.8415 16.1875 3.8234 16.1769 3.80428C16.1737 3.79809 16.17 3.79087 16.1682 3.78731C16.1592 3.77034 16.1505 3.75318 16.1418 3.73415L16.132 3.70875C16.1253 3.69206 16.1185 3.67528 16.1131 3.65859L16.0988 3.60571C16.096 3.59568 16.093 3.58584 16.0919 3.58218L16.0771 3.48759C16.0748 3.46209 16.0736 3.43659 16.0736 3.41231C16.0735 3.09965 16.256 2.81203 16.5495 2.66165ZM12.4405 2.88918C12.5735 2.82112 12.7182 2.78671 12.8708 2.78671C12.8953 2.78671 12.922 2.78812 12.9525 2.79084L13.0336 2.802C13.0547 2.80565 13.0754 2.81043 13.1061 2.81793C13.5012 2.91834 13.7772 3.2564 13.7772 3.63984C13.7772 4.11028 13.3707 4.49296 12.8707 4.49296C12.5907 4.49296 12.3307 4.37203 12.1511 4.15443C12.1504 4.15331 12.1494 4.15218 12.1485 4.15106C12.1341 4.13325 12.1205 4.11487 12.1075 4.09593C12.1053 4.09265 12.1029 4.089 12.1016 4.08693C12.0898 4.06912 12.0784 4.05103 12.0678 4.0319C12.0646 4.02581 12.0609 4.0185 12.0591 4.01493C12.0501 3.99796 12.0414 3.98081 12.0328 3.96178L12.0231 3.93637C12.0163 3.91968 12.0095 3.9029 12.0041 3.88621L11.9898 3.83334C11.987 3.82331 11.984 3.81346 11.9829 3.80981L11.9754 3.76031L11.9681 3.71531C11.9658 3.68972 11.9646 3.66421 11.9646 3.63993C11.9645 3.32718 12.147 3.03956 12.4405 2.88918ZM8.69401 4.36781C8.82698 4.29975 8.97172 4.26534 9.12432 4.26534C9.14882 4.26534 9.17552 4.26675 9.206 4.26946L9.28708 4.28062C9.3082 4.28428 9.32892 4.28906 9.3596 4.29656C9.75465 4.39697 10.0307 4.73503 10.0307 5.11846C10.0307 5.5889 9.62416 5.9715 9.12432 5.9715C8.84432 5.9715 8.58434 5.85056 8.40474 5.63297C8.40384 5.63184 8.40295 5.63071 8.40205 5.62959C8.38771 5.61178 8.37406 5.5934 8.36111 5.57446C8.35892 5.57118 8.35653 5.56753 8.35513 5.56546C8.34328 5.54765 8.33193 5.52956 8.32127 5.51043C8.31808 5.50434 8.31439 5.49703 8.3126 5.49346C8.30364 5.4765 8.29487 5.45934 8.28631 5.44031L8.27654 5.4149C8.26977 5.39821 8.263 5.38143 8.25762 5.36475L8.24327 5.31187C8.24048 5.30184 8.2375 5.292 8.2364 5.28834L8.22893 5.23884L8.22156 5.19384C8.21927 5.16825 8.21807 5.14275 8.21807 5.11846C8.21797 4.8059 8.40046 4.51818 8.69401 4.36781ZM5.55183 6.64275C5.68481 6.57468 5.82954 6.54028 5.98214 6.54028C6.00664 6.54028 6.03334 6.54168 6.06382 6.5444L6.1449 6.55556C6.16602 6.55922 6.18674 6.564 6.21742 6.5715C6.61247 6.6719 6.88849 7.00996 6.88849 7.3934C6.88849 7.86384 6.48198 8.24653 5.98214 8.24653C5.70214 8.24653 5.44216 8.12559 5.26256 7.908C5.26177 7.90687 5.26077 7.90575 5.25987 7.90462C5.24553 7.88681 5.23188 7.86843 5.21893 7.8495C5.21674 7.84621 5.21435 7.84256 5.21306 7.8405C5.2012 7.82268 5.18985 7.80459 5.17919 7.78546C5.176 7.77928 5.17232 7.77206 5.17052 7.7685C5.16156 7.75153 5.15279 7.73437 5.14413 7.71534L5.13437 7.68993C5.12759 7.67325 5.12082 7.65646 5.11544 7.63978L5.1011 7.5869C5.09831 7.57687 5.09532 7.56703 5.09422 7.56337L5.08675 7.51387L5.07938 7.46887C5.07709 7.44328 5.07589 7.41778 5.07589 7.3935C5.0758 7.08075 5.25828 6.79312 5.55183 6.64275ZM3.37656 9.82753C3.50954 9.75947 3.65427 9.72506 3.80687 9.72506C3.83137 9.72506 3.85807 9.72647 3.88855 9.72918L3.96963 9.74034C3.99075 9.744 4.01147 9.74878 4.04215 9.75628C4.4372 9.85668 4.71322 10.1947 4.71322 10.5782C4.71322 11.0486 4.30671 11.4313 3.80677 11.4313C3.52677 11.4313 3.26679 11.3104 3.08719 11.0928C3.0864 11.0917 3.0854 11.0905 3.0845 11.0894C3.07016 11.0716 3.05651 11.0532 3.04356 11.0343C3.04137 11.031 3.03898 11.0273 3.03769 11.0253C3.02583 11.0075 3.01448 10.9894 3.00382 10.9702C3.00063 10.9641 2.99695 10.9568 2.99515 10.9533C2.98619 10.9363 2.97742 10.9192 2.96876 10.9001L2.959 10.8747C2.95222 10.858 2.94545 10.8412 2.94007 10.8246L2.92573 10.7717C2.92294 10.7617 2.91995 10.7518 2.91885 10.7482L2.91138 10.6987L2.90401 10.6537C2.90172 10.6281 2.90053 10.6026 2.90053 10.5783C2.90043 10.2656 3.08301 9.9779 3.37656 9.82753ZM1.90752 14.4792C1.89855 14.4622 1.88979 14.4451 1.88112 14.4261L1.87136 14.4007C1.86459 14.384 1.85781 14.3672 1.85244 14.3505L1.83809 14.2976C1.8353 14.2876 1.83231 14.2777 1.83122 14.2741L1.82375 14.2246L1.81638 14.1796C1.81409 14.154 1.81289 14.1285 1.81289 14.1042C1.81289 13.7917 1.99538 13.504 2.28892 13.3537C2.4219 13.2856 2.56663 13.2512 2.71924 13.2512C2.74374 13.2512 2.77044 13.2526 2.80092 13.2553L2.882 13.2665C2.90312 13.2701 2.92383 13.2749 2.95451 13.2824C3.34956 13.3828 3.62558 13.7209 3.62558 14.1043C3.62558 14.5747 3.21908 14.9574 2.71914 14.9574C2.43913 14.9574 2.17915 14.8365 1.99956 14.6189C1.99876 14.6178 1.99777 14.6167 1.99687 14.6155C1.98253 14.5977 1.96888 14.5793 1.95593 14.5604C1.95374 14.5571 1.95135 14.5535 1.95005 14.5514C1.9382 14.5336 1.92684 14.5155 1.91619 14.4964C1.9131 14.49 1.90931 14.4828 1.90752 14.4792ZM2.12048 18.4861C2.11969 18.485 2.11869 18.4838 2.11779 18.4827C2.10345 18.4649 2.0898 18.4465 2.07686 18.4276C2.07466 18.4243 2.07227 18.4207 2.07098 18.4186C2.05912 18.4008 2.04777 18.3827 2.03711 18.3636C2.03392 18.3575 2.03024 18.3502 2.02845 18.3466C2.01948 18.3296 2.01071 18.3125 2.00215 18.2934L1.99239 18.268C1.98591 18.2514 1.97914 18.2348 1.97356 18.2181L1.95922 18.1652C1.95673 18.1565 1.95414 18.1477 1.95185 18.1388L1.9375 18.0472C1.93511 18.0214 1.93392 17.9959 1.93392 17.9715C1.93392 17.6589 2.1164 17.3713 2.40995 17.2209C2.54293 17.1529 2.68766 17.1185 2.84026 17.1185C2.86477 17.1185 2.89146 17.1199 2.92194 17.1226L3.00302 17.1337C3.02414 17.1374 3.04486 17.1422 3.07554 17.1497C3.47059 17.2501 3.74661 17.5882 3.74661 17.9716C3.74661 18.442 3.3401 18.8246 2.84016 18.8246C2.56006 18.8246 2.30008 18.7037 2.12048 18.4861ZM4.16945 22.4644C3.88945 22.4644 3.62947 22.3434 3.44987 22.1258C3.44897 22.1247 3.44808 22.1236 3.44718 22.1225C3.43284 22.1047 3.41919 22.0863 3.40624 22.0673C3.40405 22.0641 3.40166 22.0604 3.40037 22.0583C3.38851 22.0405 3.37716 22.0224 3.3665 22.0033C3.36331 21.9972 3.35962 21.9899 3.35783 21.9863C3.34887 21.9694 3.3401 21.9522 3.33154 21.9332L3.32177 21.9078C3.315 21.8911 3.30823 21.8743 3.30285 21.8576L3.2885 21.8047C3.28571 21.7947 3.28273 21.7849 3.28163 21.7812L3.26679 21.6866C3.2645 21.6611 3.2633 21.6356 3.2633 21.6113C3.2633 21.2988 3.44579 21.0112 3.73934 20.8608C3.87231 20.7927 4.01705 20.7583 4.16965 20.7583C4.19415 20.7583 4.22085 20.7597 4.25133 20.7624L4.33241 20.7736C4.35353 20.7772 4.37425 20.782 4.40493 20.7895C4.79998 20.8899 5.07599 21.228 5.07599 21.6114C5.07579 22.0818 4.66929 22.4644 4.16945 22.4644ZM6.7073 25.4217C6.42729 25.4217 6.16731 25.3008 5.98772 25.0832C5.98692 25.0821 5.98593 25.0809 5.98503 25.0798C5.97069 25.062 5.95704 25.0436 5.94409 25.0247C5.9419 25.0214 5.93951 25.0177 5.93821 25.0157C5.92636 24.9979 5.915 24.9798 5.90435 24.9607C5.90116 24.9545 5.89747 24.9472 5.89568 24.9437C5.88671 24.9267 5.87795 24.9096 5.86938 24.8905L5.85962 24.8651C5.85285 24.8484 5.84607 24.8317 5.8407 24.815L5.82635 24.7621C5.82356 24.7521 5.82057 24.7422 5.81948 24.7386L5.80464 24.644C5.80235 24.6185 5.80115 24.593 5.80115 24.5687C5.80115 24.2561 5.98363 23.9685 6.27718 23.8181C6.41016 23.7501 6.55489 23.7157 6.7075 23.7157C6.732 23.7157 6.7587 23.7171 6.78918 23.7198L6.87026 23.7309C6.89138 23.7346 6.91209 23.7394 6.93441 23.7449C6.9351 23.745 6.94048 23.7464 6.94417 23.7473C7.33852 23.8482 7.61384 24.1858 7.61384 24.5688C7.61374 25.0391 7.20724 25.4217 6.7073 25.4217ZM9.9704 27.5828C9.6904 27.5828 9.43042 27.4619 9.25082 27.2443C9.25003 27.2432 9.24903 27.2421 9.24813 27.2409C9.23379 27.2231 9.22014 27.2047 9.20719 27.1858C9.205 27.1825 9.20261 27.1789 9.20132 27.1768C9.18946 27.159 9.17811 27.1409 9.16745 27.1218C9.16426 27.1157 9.16058 27.1084 9.15878 27.1048C9.14982 27.0878 9.14105 27.0707 9.13239 27.0517L9.12263 27.0262C9.11585 27.0096 9.10908 26.9928 9.1037 26.9761L9.08936 26.9232C9.08657 26.9132 9.08358 26.9033 9.08248 26.8997L9.06764 26.8051C9.06535 26.7796 9.06415 26.7541 9.06415 26.7298C9.06415 26.4172 9.24664 26.1296 9.54019 25.9792C9.67317 25.9112 9.8179 25.8768 9.9705 25.8768C9.995 25.8768 10.0217 25.8782 10.0522 25.8809L10.1333 25.8921C10.1544 25.8957 10.1751 25.9005 10.1974 25.906C10.1981 25.9061 10.2035 25.9075 10.2072 25.9084C10.6015 26.0092 10.8768 26.3468 10.8768 26.7298C10.8767 27.2002 10.4702 27.5828 9.9704 27.5828ZM13.7168 28.7203C13.4368 28.7203 13.1768 28.5994 12.9972 28.3818C12.9964 28.3807 12.9954 28.3795 12.9945 28.3784C12.9802 28.3606 12.9666 28.3422 12.9536 28.3233C12.9514 28.32 12.949 28.3163 12.9477 28.3143C12.9359 28.2965 12.9245 28.2784 12.9139 28.2592C12.9107 28.2532 12.907 28.2458 12.9052 28.2423C12.8962 28.2253 12.8875 28.2082 12.8788 28.1891L12.869 28.1637C12.8623 28.147 12.8555 28.1302 12.8501 28.1136L12.8358 28.0607C12.833 28.0507 12.83 28.0408 12.8289 28.0372L12.814 27.9426C12.8118 27.9171 12.8106 27.8916 12.8106 27.8673C12.8106 27.5547 12.993 27.2671 13.2866 27.1167C13.4196 27.0487 13.5643 27.0142 13.7169 27.0142C13.7414 27.0142 13.7681 27.0157 13.7986 27.0184L13.8797 27.0295C13.9008 27.0332 13.9215 27.038 13.9438 27.0435C13.9445 27.0436 13.9499 27.045 13.9536 27.0458C14.3479 27.1468 14.6234 27.4844 14.6234 27.8674C14.6233 28.3377 14.2166 28.7203 13.7168 28.7203ZM17.8258 28.834C17.5458 28.834 17.2858 28.7131 17.1062 28.4955C17.1054 28.4944 17.1044 28.4932 17.1035 28.4921C17.0892 28.4743 17.0755 28.4559 17.0626 28.437C17.0604 28.4337 17.058 28.4301 17.0567 28.428C17.0449 28.4102 17.0335 28.3921 17.0228 28.373C17.0198 28.3669 17.016 28.3596 17.0142 28.356C17.0052 28.339 16.9964 28.3219 16.9879 28.3028L16.9781 28.2774C16.9713 28.2607 16.9646 28.244 16.9592 28.2273L16.9449 28.1744C16.9421 28.1644 16.9391 28.1545 16.938 28.1509L16.9231 28.0563C16.9208 28.0308 16.9196 28.0053 16.9196 27.981C16.9196 27.6684 17.1021 27.3808 17.3957 27.2304C17.5287 27.1624 17.6734 27.128 17.826 27.128C17.8505 27.128 17.8772 27.1294 17.9077 27.1321L17.9888 27.1432C18.0099 27.1469 18.0306 27.1517 18.0529 27.1572C18.0536 27.1573 18.059 27.1587 18.0627 27.1596C18.457 27.2605 18.7324 27.5981 18.7324 27.9811C18.7322 28.4514 18.3256 28.834 17.8258 28.834ZM21.814 28.834C21.534 28.834 21.274 28.7131 21.0944 28.4955C21.0935 28.4944 21.0926 28.4932 21.0917 28.4921C21.0773 28.4743 21.0637 28.4559 21.0507 28.437C21.0486 28.4337 21.0462 28.4301 21.0449 28.428C21.033 28.4102 21.0217 28.3921 21.011 28.373C21.0078 28.3669 21.0041 28.3596 21.0023 28.356C20.9934 28.339 20.9846 28.3219 20.976 28.3028L20.9663 28.2774C20.9595 28.2607 20.9527 28.244 20.9474 28.2273L20.933 28.1744C20.9302 28.1644 20.9272 28.1545 20.9261 28.1509L20.9113 28.0563C20.909 28.0308 20.9078 28.0053 20.9078 27.981C20.9078 27.6684 21.0903 27.3808 21.3838 27.2304C21.5168 27.1624 21.6616 27.128 21.8142 27.128C21.8387 27.128 21.8654 27.1294 21.8958 27.1321L21.9769 27.1432C21.998 27.1469 22.0188 27.1517 22.0411 27.1572C22.0418 27.1573 22.0471 27.1587 22.0508 27.1596C22.4452 27.2605 22.7206 27.5981 22.7206 27.9811C22.7204 28.4514 22.3138 28.834 21.814 28.834ZM25.9229 28.834C25.6429 28.834 25.383 28.7131 25.2034 28.4955C25.2026 28.4944 25.2016 28.4932 25.2007 28.4921C25.1863 28.4743 25.1727 28.4559 25.1597 28.437C25.1575 28.4337 25.1552 28.4301 25.1539 28.428C25.142 28.4102 25.1306 28.3921 25.12 28.373C25.1168 28.3669 25.1131 28.3596 25.1113 28.356C25.1024 28.339 25.0936 28.3219 25.0849 28.3028L25.0752 28.2774C25.0684 28.2607 25.0616 28.244 25.0562 28.2273L25.0419 28.1744C25.0391 28.1644 25.0361 28.1545 25.035 28.1509L25.0202 28.0563C25.0179 28.0308 25.0167 28.0053 25.0167 27.981C25.0167 27.6684 25.1992 27.3808 25.4927 27.2304C25.6257 27.1624 25.7704 27.128 25.923 27.128C25.9475 27.128 25.9742 27.1294 26.0047 27.1321L26.0858 27.1432C26.1069 27.1469 26.1276 27.1517 26.15 27.1572C26.1506 27.1573 26.156 27.1587 26.1597 27.1596C26.5541 27.2605 26.8295 27.5981 26.8295 27.9811C26.8294 28.4514 26.4229 28.834 25.9229 28.834ZM29.9111 28.834C29.6311 28.834 29.3711 28.7131 29.1915 28.4955C29.1907 28.4944 29.1897 28.4932 29.1888 28.4921C29.1745 28.4743 29.1608 28.4559 29.1479 28.437C29.1457 28.4337 29.1433 28.4301 29.142 28.428C29.1302 28.4102 29.1188 28.3921 29.1082 28.373C29.105 28.3669 29.1013 28.3596 29.0995 28.356C29.0905 28.339 29.0818 28.3219 29.0731 28.3028L29.0633 28.2774C29.0566 28.2607 29.0498 28.244 29.0444 28.2273L29.0301 28.1744C29.0273 28.1644 29.0243 28.1545 29.0232 28.1509L29.0083 28.0563C29.0061 28.0308 29.0049 28.0053 29.0049 27.981C29.0049 27.6684 29.1873 27.3808 29.4809 27.2304C29.6139 27.1624 29.7586 27.128 29.9112 27.128C29.9357 27.128 29.9624 27.1294 29.9929 27.1321L30.074 27.1432C30.0951 27.1469 30.1158 27.1517 30.1381 27.1572C30.1388 27.1573 30.1442 27.1587 30.1479 27.1596C30.5422 27.2605 30.8176 27.5981 30.8176 27.9811C30.8175 28.4514 30.4109 28.834 29.9111 28.834ZM34.0202 28.834C33.7402 28.834 33.4802 28.7131 33.3006 28.4955C33.2998 28.4944 33.2988 28.4932 33.2979 28.4921C33.2836 28.4743 33.2699 28.4559 33.257 28.437C33.2548 28.4337 33.2524 28.4301 33.251 28.428C33.2392 28.4102 33.2278 28.3921 33.2171 28.373C33.2141 28.3669 33.2103 28.3596 33.2085 28.356C33.1995 28.339 33.1907 28.3219 33.1822 28.3028L33.1724 28.2774C33.1656 28.2607 33.1589 28.244 33.1535 28.2273L33.1391 28.1744C33.1364 28.1644 33.1334 28.1545 33.1323 28.1509L33.1174 28.0563C33.1151 28.0308 33.1139 28.0053 33.1139 27.981C33.1139 27.6684 33.2964 27.3808 33.59 27.2304C33.723 27.1624 33.8677 27.128 34.0203 27.128C34.0448 27.128 34.0715 27.1294 34.102 27.1321L34.183 27.1432C34.2042 27.1469 34.2249 27.1517 34.2472 27.1572C34.2479 27.1573 34.2533 27.1587 34.257 27.1596C34.6513 27.2605 34.9267 27.5981 34.9267 27.9811C34.9265 28.4514 34.52 28.834 34.0202 28.834ZM37.8874 29.5165C37.6074 29.5165 37.3474 29.3956 37.1678 29.178C37.167 29.1769 37.166 29.1757 37.1652 29.1746C37.1508 29.1567 37.1372 29.1384 37.1242 29.1195C37.122 29.1162 37.1196 29.1126 37.1182 29.1105C37.1064 29.0927 37.095 29.0746 37.0844 29.0555C37.0813 29.0493 37.0775 29.0421 37.0757 29.0385C37.0667 29.0215 37.058 29.0044 37.0494 28.9853L37.0396 28.9599C37.0329 28.9432 37.0261 28.9265 37.0207 28.9098L37.0064 28.8569C37.0036 28.8469 37.0006 28.837 36.9995 28.8334L36.9847 28.7388C36.9824 28.7133 36.9812 28.6878 36.9812 28.6635C36.9812 28.3509 37.1637 28.0633 37.4572 27.9129C37.5902 27.8449 37.7349 27.8105 37.8875 27.8105C37.912 27.8105 37.9387 27.8119 37.9692 27.8146L38.0503 27.8257C38.0714 27.8294 38.0921 27.8342 38.1144 27.8397C38.1151 27.8398 38.1205 27.8412 38.1242 27.8422C38.5185 27.9431 38.794 28.2807 38.794 28.6637C38.7939 29.1339 38.3873 29.5165 37.8874 29.5165ZM41.513 31.2228C41.233 31.2227 40.973 31.1017 40.7934 30.8842C40.7926 30.883 40.7916 30.8819 40.7907 30.8808C40.7764 30.863 40.7627 30.8446 40.7498 30.8257C40.7476 30.8224 40.7452 30.8187 40.7439 30.8167C40.7321 30.7988 40.7207 30.7807 40.7101 30.7616C40.7069 30.7555 40.7032 30.7482 40.7014 30.7447C40.6924 30.7277 40.6837 30.7105 40.6751 30.6915L40.6653 30.6661C40.6586 30.6494 40.6518 30.6326 40.6464 30.6159L40.6321 30.5631C40.6293 30.553 40.6263 30.5432 40.6252 30.5395L40.6103 30.4449C40.6081 30.4194 40.6069 30.3939 40.6069 30.3697C40.6069 30.0571 40.7893 29.7695 41.0829 29.6191C41.2159 29.551 41.3606 29.5166 41.5132 29.5166C41.5377 29.5166 41.5644 29.518 41.5949 29.5207L41.676 29.5319C41.6971 29.5356 41.7178 29.5403 41.7485 29.5478C42.1436 29.6484 42.4195 29.9863 42.4195 30.3698C42.4194 30.8402 42.0128 31.2228 41.513 31.2228ZM44.2927 34.0663C44.0127 34.0663 43.7527 33.9454 43.5731 33.7278C43.5723 33.7267 43.5713 33.7255 43.5704 33.7244C43.5561 33.7066 43.5424 33.6882 43.5295 33.6693C43.5273 33.666 43.5249 33.6623 43.5236 33.6603C43.5118 33.6425 43.5004 33.6244 43.4897 33.6052C43.4866 33.5992 43.4829 33.5918 43.4811 33.5883C43.4721 33.5713 43.4634 33.5542 43.4548 33.5351L43.445 33.5097C43.4383 33.493 43.4315 33.4762 43.4261 33.4596L43.4118 33.4067C43.409 33.3967 43.406 33.3868 43.4049 33.3832L43.39 33.2886C43.3878 33.2631 43.3866 33.2376 43.3866 33.2133C43.3866 32.9007 43.569 32.6131 43.8626 32.4627C43.9956 32.3947 44.1403 32.3602 44.2929 32.3602C44.3174 32.3602 44.3441 32.3617 44.3746 32.3644L44.4557 32.3755C44.4768 32.3792 44.4975 32.384 44.5198 32.3895C44.5205 32.3896 44.5259 32.391 44.5296 32.3918C44.9239 32.4928 45.1993 32.8304 45.1993 33.2134C45.199 33.6836 44.7925 34.0663 44.2927 34.0663ZM45.0011 30.7443L44.9728 30.7372C44.9096 30.7219 44.846 30.708 44.7853 30.6977C44.7597 30.6931 44.7338 30.6893 44.7077 30.6859L44.675 30.6813C44.6322 30.6751 44.5893 30.6695 44.5488 30.6659C44.4599 30.6578 44.3762 30.654 44.2928 30.654C44.2668 30.654 44.2408 30.6556 44.2148 30.6562C44.2261 30.562 44.2323 30.4665 44.2323 30.3697C44.2323 29.2171 43.4054 28.2018 42.2275 27.9022L42.193 27.8937C42.1298 27.8783 42.0662 27.8645 42.0055 27.8542C41.9799 27.8496 41.954 27.8458 41.9279 27.8423L41.8952 27.8377C41.8524 27.8316 41.8095 27.8259 41.769 27.8224C41.6801 27.8143 41.5964 27.8105 41.513 27.8105C41.1691 27.8105 40.8274 27.8728 40.5092 27.9918C40.2592 27.1329 39.5421 26.4353 38.5956 26.1945L38.5674 26.1875C38.5041 26.1721 38.4406 26.1582 38.3798 26.1479C38.3542 26.1433 38.3283 26.1396 38.3022 26.1361L38.2695 26.1315C38.2267 26.1253 38.1839 26.1197 38.1433 26.1161C38.0545 26.1081 37.9707 26.1042 37.8873 26.1042C37.4352 26.1042 36.987 26.2114 36.5908 26.4142C36.4884 26.4666 36.3912 26.5251 36.2983 26.5882C35.9417 26.0733 35.391 25.6806 34.7282 25.512L34.6999 25.505C34.6367 25.4896 34.5731 25.4757 34.5124 25.4654C34.4868 25.4608 34.4609 25.4571 34.4348 25.4536L34.4021 25.449C34.3593 25.4428 34.3164 25.4372 34.2759 25.4336C34.187 25.4256 34.1033 25.4217 34.0199 25.4217C33.5678 25.4217 33.1195 25.5289 32.7234 25.7317C32.4298 25.8819 32.1747 26.079 31.9636 26.3088C31.6173 25.9327 31.1554 25.6485 30.6188 25.512L30.5905 25.505C30.5273 25.4896 30.4637 25.4757 30.403 25.4654C30.3774 25.4608 30.3515 25.4571 30.3254 25.4536L30.2927 25.449C30.2499 25.4428 30.207 25.4372 30.1665 25.4336C30.0776 25.4256 29.9939 25.4217 29.9105 25.4217C29.4584 25.4217 29.0101 25.5289 28.614 25.7317C28.3482 25.8677 28.1137 26.0421 27.9147 26.2446C27.5759 25.9004 27.1362 25.6407 26.6306 25.5121L26.6023 25.5051C26.539 25.4897 26.4755 25.4758 26.4147 25.4655C26.3891 25.4609 26.3632 25.4572 26.3371 25.4537L26.3044 25.4491C26.2616 25.443 26.2188 25.4373 26.1782 25.4337C26.0894 25.4257 26.0056 25.4218 25.9222 25.4218C25.4701 25.4218 25.0219 25.529 24.6257 25.7317C24.3324 25.8819 24.0773 26.079 23.8662 26.3088C23.52 25.9327 23.0581 25.6485 22.5215 25.512L22.4932 25.505C22.4299 25.4896 22.3664 25.4757 22.3056 25.4654C22.28 25.4608 22.2541 25.4571 22.228 25.4536L22.1954 25.449C22.1525 25.4429 22.1097 25.4372 22.0692 25.4336C21.9803 25.4256 21.8966 25.4217 21.8132 25.4217C21.361 25.4217 20.9128 25.5289 20.5166 25.7317C20.2509 25.8677 20.0163 26.0421 19.8174 26.2446C19.4785 25.9004 19.0388 25.6407 18.5332 25.5121L18.5049 25.5051C18.4417 25.4897 18.3781 25.4758 18.3174 25.4655C18.2918 25.4609 18.2659 25.4572 18.2398 25.4537L18.2071 25.4491C18.1643 25.4429 18.1214 25.4373 18.0809 25.4337C17.992 25.4257 17.9083 25.4218 17.8249 25.4218C17.3728 25.4218 16.9245 25.529 16.5284 25.7317C16.2587 25.8698 16.0209 26.047 15.8203 26.2532C15.469 25.8483 14.9878 25.5417 14.424 25.3983L14.3957 25.3912C14.3325 25.3759 14.2689 25.362 14.2082 25.3517C14.1826 25.3471 14.1567 25.3433 14.1306 25.3399L14.0979 25.3353C14.0551 25.3291 14.0122 25.3235 13.9717 25.3199C13.8829 25.3118 13.7991 25.308 13.7157 25.308C13.2636 25.308 12.8153 25.4152 12.4192 25.6179C12.4179 25.6186 12.4166 25.6194 12.4154 25.6201C12.0794 24.9677 11.4568 24.4591 10.6774 24.2608L10.6491 24.2538C10.5859 24.2384 10.5223 24.2245 10.4616 24.2142C10.436 24.2096 10.4101 24.2059 10.384 24.2024L10.3513 24.1978C10.3086 24.1916 10.2656 24.186 10.2251 24.1824C10.1363 24.1744 10.0525 24.1705 9.96911 24.1705C9.77696 24.1705 9.58591 24.191 9.39884 24.2288C9.25441 23.2212 8.48014 22.3707 7.41432 22.0996L7.38604 22.0926C7.32278 22.0772 7.25923 22.0633 7.19847 22.053C7.17287 22.0484 7.14697 22.0447 7.12087 22.0412L7.0882 22.0366C7.04537 22.0305 7.00254 22.0248 6.962 22.0212C6.92494 22.0178 6.88908 22.0157 6.85342 22.0137C6.87544 21.883 6.88729 21.7486 6.88729 21.6116C6.88729 20.5646 6.20367 19.6327 5.19543 19.2458C5.42552 18.8704 5.5579 18.4356 5.5579 17.9718C5.5579 17.1859 5.17301 16.4643 4.55484 15.9894C5.09671 15.5212 5.43708 14.8497 5.43708 14.1045C5.43708 13.6492 5.30639 13.2163 5.07769 12.8394C5.93772 12.4091 6.52481 11.5573 6.52481 10.5785C6.52481 10.3511 6.49144 10.1294 6.43078 9.91725C7.63207 9.72806 8.5684 8.7975 8.68813 7.64437C8.83097 7.66603 8.9766 7.67775 9.12432 7.67775C10.3152 7.67775 11.3291 6.95315 11.696 5.94806C12.0568 6.11137 12.4559 6.19912 12.8707 6.19912C13.75 6.19912 14.5326 5.80406 15.0299 5.1929C15.5405 5.691 16.2351 5.97159 16.9797 5.97159C17.7106 5.97159 18.3746 5.69831 18.8637 5.25515C19.3836 5.85562 20.145 6.19912 20.9679 6.19912C21.5381 6.19912 22.0678 6.03271 22.5054 5.74931C22.5117 5.75925 22.5173 5.77003 22.5237 5.77959C22.5267 5.78437 22.5325 5.79309 22.5355 5.79778C22.5777 5.86059 22.6236 5.92303 22.6725 5.98321C22.6733 5.98434 22.6743 5.98546 22.6752 5.98659C23.1955 6.62765 23.9827 6.99534 24.8352 6.99534C25.3451 6.99534 25.8224 6.8624 26.2305 6.63159C26.2417 6.65418 26.251 6.67659 26.263 6.69946C26.2693 6.71193 26.2757 6.7244 26.2821 6.73621C26.3159 6.79818 26.3528 6.85931 26.3909 6.91696C26.3939 6.92175 26.3998 6.93046 26.4028 6.93515C26.4449 6.99796 26.4909 7.0604 26.5397 7.12059C26.5406 7.12172 26.5415 7.12284 26.5424 7.12396C27.0628 7.76503 27.8499 8.13272 28.7024 8.13272C29.0569 8.13272 29.3953 8.06784 29.7061 7.95131C29.7113 7.97072 29.7165 7.99022 29.7226 8.00981C29.7407 8.06672 29.7617 8.12221 29.7833 8.17631C29.7907 8.19571 29.7982 8.21512 29.8055 8.23218C29.8301 8.28984 29.8577 8.34722 29.8887 8.40571C29.895 8.41818 29.9013 8.43065 29.9078 8.44246C29.9416 8.50443 29.9784 8.56556 30.0166 8.62322C30.0196 8.628 30.0255 8.63672 30.0284 8.6414C30.0706 8.70422 30.1166 8.76665 30.1654 8.82684C30.1662 8.82796 30.1672 8.82909 30.1681 8.83022C30.6885 9.47128 31.4756 9.83896 32.3281 9.83896C32.6137 9.83896 32.8891 9.79715 33.148 9.7199C33.1532 9.75478 33.1588 9.78984 33.1656 9.82265C33.1749 9.86728 33.1865 9.91078 33.1986 9.95437L33.2053 9.97875C33.2121 10.0049 33.2193 10.0311 33.2276 10.0573C33.2456 10.1142 33.2666 10.1697 33.2883 10.2238C33.2956 10.2432 33.3032 10.2626 33.3105 10.2797C33.3351 10.3373 33.3627 10.3947 33.3936 10.4532C33.3999 10.4657 33.4063 10.4782 33.4128 10.49C33.4464 10.5519 33.4834 10.6131 33.5215 10.6707C33.5245 10.6755 33.5304 10.6842 33.5334 10.6889C33.5755 10.7517 33.6214 10.8142 33.6704 10.8743C33.6712 10.8755 33.6722 10.8766 33.673 10.8777C34.1934 11.5188 34.9805 11.8865 35.8331 11.8865C35.9356 11.8865 36.0367 11.8806 36.1363 11.8702C36.1375 11.9407 36.1413 12.012 36.1487 12.0823C36.1522 12.1159 36.1573 12.1489 36.1648 12.1926L36.1672 12.2092C36.1729 12.2487 36.1792 12.2882 36.1871 12.3253C36.1964 12.3699 36.2079 12.4134 36.2201 12.457L36.2267 12.4814C36.2335 12.5076 36.2408 12.5337 36.249 12.56C36.2671 12.6169 36.2881 12.6724 36.3097 12.7265C36.3171 12.7459 36.3246 12.7653 36.3319 12.7823C36.3566 12.84 36.3841 12.8974 36.4151 12.9559C36.4214 12.9683 36.4277 12.9808 36.4342 12.9926C36.468 13.0546 36.5048 13.1157 36.543 13.1734C36.546 13.1782 36.5519 13.1869 36.5548 13.1916C36.597 13.2544 36.6429 13.3168 36.6918 13.377C36.6926 13.3781 36.6936 13.3792 36.6945 13.3804C37.2062 14.0108 37.9763 14.3761 38.8125 14.388C38.8012 14.4822 38.7942 14.5773 38.7942 14.6735C38.7942 14.757 38.7987 14.8423 38.8077 14.9259C38.8112 14.9595 38.8163 14.9925 38.8237 15.0362L38.8261 15.0528C38.8319 15.0923 38.8382 15.1318 38.8461 15.1689C38.8553 15.2136 38.8669 15.2571 38.879 15.3007L38.8857 15.325C38.8925 15.3512 38.8997 15.3773 38.908 15.4036C38.926 15.4605 38.9471 15.516 38.9687 15.5701C38.9761 15.5896 38.9836 15.6089 38.9909 15.626C39.0155 15.6836 39.0431 15.741 39.0741 15.7996C39.0803 15.8121 39.0867 15.8245 39.0932 15.8363C39.1269 15.8983 39.1638 15.9594 39.202 16.0171C39.205 16.0219 39.2108 16.0306 39.2138 16.0353C39.256 16.0981 39.3019 16.1605 39.3508 16.2207C39.3516 16.2218 39.3526 16.223 39.3535 16.2241C39.799 16.7731 40.4407 17.1207 41.151 17.2096C41.1115 17.3829 41.0904 17.5621 41.0904 17.7442C41.0904 17.8277 41.0949 17.9129 41.1039 17.9966C41.1074 18.0302 41.1125 18.0632 41.1199 18.1069L41.1223 18.1235C41.1281 18.163 41.1344 18.2025 41.1423 18.2396C41.1515 18.2842 41.1631 18.3277 41.1752 18.3713L41.1819 18.3957C41.1887 18.4219 41.1959 18.448 41.2042 18.4743C41.2222 18.5312 41.2433 18.5867 41.2649 18.6408C41.2722 18.6602 41.2798 18.6796 41.2871 18.6967C41.3117 18.7543 41.3393 18.8117 41.3703 18.8702C41.3765 18.8827 41.3829 18.8951 41.3894 18.9069C41.4232 18.9689 41.46 19.03 41.4982 19.0877C41.5012 19.0925 41.507 19.1012 41.51 19.1059C41.5522 19.1687 41.5981 19.2311 41.647 19.2913C41.6478 19.2924 41.6488 19.2936 41.6497 19.2947C42.0442 19.7809 42.5925 20.1093 43.2062 20.2399C43.0884 20.5279 43.0241 20.8375 43.0241 21.1565C43.0241 21.24 43.0287 21.3252 43.0376 21.4089C43.0411 21.4425 43.0462 21.4755 43.0537 21.5192L43.0561 21.5358C43.0618 21.5753 43.0681 21.6148 43.076 21.6519C43.0852 21.6966 43.0968 21.7401 43.1089 21.7837L43.1156 21.808C43.1224 21.8342 43.1297 21.8603 43.1379 21.8866C43.156 21.9435 43.177 21.999 43.1986 22.0531C43.206 22.0725 43.2135 22.0919 43.2208 22.109C43.2455 22.1666 43.273 22.224 43.304 22.2825C43.3103 22.295 43.3166 22.3074 43.3231 22.3192C43.3569 22.3812 43.3937 22.4423 43.4319 22.5C43.4349 22.5048 43.4407 22.5135 43.4437 22.5182C43.4859 22.581 43.5318 22.6434 43.5807 22.7036C43.5815 22.7047 43.5825 22.7059 43.5834 22.707C43.8717 23.0622 44.242 23.333 44.6599 23.5042C44.4622 23.8621 44.3535 24.2647 44.3535 24.6825C44.3535 24.766 44.358 24.8513 44.367 24.935C44.3705 24.9685 44.3756 25.0015 44.383 25.0452L44.3854 25.0618C44.3912 25.1014 44.3975 25.1408 44.4054 25.178C44.4146 25.2226 44.4262 25.2661 44.4383 25.3097L44.445 25.3341C44.4518 25.3602 44.459 25.3864 44.4673 25.4126C44.4853 25.4695 44.5064 25.525 44.528 25.5791C44.5354 25.5986 44.5429 25.6179 44.5502 25.635C44.5748 25.6927 44.6024 25.75 44.6334 25.8085C44.6396 25.821 44.646 25.8335 44.6525 25.8453C44.6863 25.9072 44.7231 25.9684 44.7613 26.026C44.7643 26.0308 44.7701 26.0395 44.7731 26.0442C44.8153 26.107 44.8612 26.1695 44.9101 26.2297C44.9109 26.2308 44.9119 26.2319 44.9128 26.233C45.1416 26.5149 45.422 26.7438 45.7367 26.9119C45.3945 27.3457 45.1995 27.8768 45.1995 28.4361C45.1995 28.5196 45.2041 28.6048 45.2131 28.6885C45.2166 28.7221 45.2217 28.7551 45.2291 28.799L45.2315 28.8154C45.2373 28.8549 45.2436 28.8944 45.2514 28.9315C45.2607 28.9762 45.2723 29.0197 45.2844 29.0632L45.2911 29.0876C45.2979 29.1138 45.3051 29.1399 45.3134 29.1662C45.3314 29.2231 45.3524 29.2786 45.3741 29.3327C45.3814 29.3521 45.389 29.3715 45.3963 29.3886C45.421 29.4462 45.4485 29.5036 45.4795 29.5621C45.4857 29.5746 45.4921 29.587 45.4986 29.5988C45.5323 29.6608 45.5692 29.7219 45.6073 29.7796C45.6103 29.7844 45.6162 29.7931 45.6192 29.7978C45.6613 29.8606 45.7073 29.923 45.7562 29.9832C45.757 29.9843 45.758 29.9855 45.7589 29.9866C45.9262 30.1928 46.1214 30.3702 46.3373 30.5167C46.1481 30.699 45.9889 30.9054 45.8656 31.1302C45.6083 30.9581 45.3181 30.8249 45.0011 30.7443ZM48.7343 37.2914L43.5784 42.1439C43.225 42.4765 42.65 42.4765 42.2966 42.1439C42.0973 41.9563 42.0046 41.6957 42.0417 41.4283C42.0418 41.4272 42.0421 41.426 42.0422 41.4247C42.0456 41.4013 42.0498 41.3782 42.0552 41.3549C42.0562 41.3512 42.0571 41.3474 42.0578 41.345C42.0627 41.3251 42.068 41.3053 42.0759 41.2816C42.0781 41.2758 42.0805 41.2692 42.0816 41.2661C42.0879 41.2482 42.0945 41.2304 42.1032 41.2105L42.1152 41.1864C42.123 41.1704 42.1306 41.1541 42.14 41.1374L42.1689 41.0917C42.1746 41.0824 42.1802 41.073 42.1815 41.0707L42.2425 40.9934C42.2603 40.9733 42.2787 40.9545 42.2967 40.9374L47.424 36.1117C47.7775 35.7793 48.3524 35.7791 48.7059 36.1117C48.7248 36.1296 48.7427 36.1484 48.7594 36.1674C48.7609 36.169 48.7622 36.1706 48.7636 36.1722C49.0707 36.5158 49.0584 36.9863 48.7343 37.2914ZM48.281 33.1565C48.0009 33.1564 47.7409 33.0354 47.5613 32.8178C47.5605 32.8167 47.5595 32.8156 47.5586 32.8145C47.5443 32.7966 47.5306 32.7783 47.5177 32.7593C47.5155 32.7561 47.5131 32.7524 47.5118 32.7503C47.4999 32.7325 47.4886 32.7144 47.4779 32.6953C47.4747 32.6892 47.471 32.6819 47.4692 32.6783C47.4603 32.6614 47.4515 32.6442 47.443 32.6252L47.4332 32.5998C47.4264 32.5831 47.4196 32.5663 47.4143 32.5496L47.3999 32.4967C47.3971 32.4867 47.3941 32.4769 47.393 32.4732L47.3782 32.3786C47.3759 32.3531 47.3747 32.3276 47.3747 32.3033C47.3747 31.9908 47.5572 31.7032 47.8507 31.5528C47.9837 31.4847 48.1285 31.4503 48.2811 31.4503C48.3056 31.4503 48.3323 31.4517 48.3627 31.4544L48.4438 31.4656C48.4649 31.4692 48.4857 31.474 48.508 31.4796C48.5087 31.4797 48.514 31.4811 48.5177 31.4819C48.9121 31.5829 49.1875 31.9205 49.1875 32.3034C49.1873 32.7738 48.7808 33.1565 48.281 33.1565Z" fill="#5FC1CF"/>
</svg>
