<svg width="16" height="16" viewBox="0 0 16 16" fill="none" xmlns="http://www.w3.org/2000/svg">
<path d="M1.33331 6.50016C1.05998 6.50016 0.833313 6.2735 0.833313 6.00016V4.3335C0.833313 2.40016 2.40665 0.833496 4.33331 0.833496H5.99998C6.27331 0.833496 6.49998 1.06016 6.49998 1.3335C6.49998 1.60683 6.27331 1.8335 5.99998 1.8335H4.33331C2.95331 1.8335 1.83331 2.9535 1.83331 4.3335V6.00016C1.83331 6.2735 1.60665 6.50016 1.33331 6.50016Z" fill="#606CBF"/>
<path d="M14.6667 6.50016C14.3933 6.50016 14.1667 6.2735 14.1667 6.00016V4.3335C14.1667 2.9535 13.0467 1.8335 11.6667 1.8335H10C9.72667 1.8335 9.5 1.60683 9.5 1.3335C9.5 1.06016 9.72667 0.833496 10 0.833496H11.6667C13.5933 0.833496 15.1667 2.40016 15.1667 4.3335V6.00016C15.1667 6.2735 14.94 6.50016 14.6667 6.50016Z" fill="#606CBF"/>
<path d="M11.6667 15.1665H10.6667C10.3934 15.1665 10.1667 14.9398 10.1667 14.6665C10.1667 14.3932 10.3934 14.1665 10.6667 14.1665H11.6667C13.0467 14.1665 14.1667 13.0465 14.1667 11.6665V10.6665C14.1667 10.3932 14.3934 10.1665 14.6667 10.1665C14.94 10.1665 15.1667 10.3932 15.1667 10.6665V11.6665C15.1667 13.5998 13.5934 15.1665 11.6667 15.1665Z" fill="#606CBF"/>
<path d="M5.99998 15.1667H4.33331C2.40665 15.1667 0.833313 13.6 0.833313 11.6667V10C0.833313 9.72667 1.05998 9.5 1.33331 9.5C1.60665 9.5 1.83331 9.72667 1.83331 10V11.6667C1.83331 13.0467 2.95331 14.1667 4.33331 14.1667H5.99998C6.27331 14.1667 6.49998 14.3933 6.49998 14.6667C6.49998 14.94 6.27331 15.1667 5.99998 15.1667Z" fill="#606CBF"/>
<path d="M9.33335 12.1668H6.66669C5.05335 12.1668 4.16669 11.2802 4.16669 9.66683V6.3335C4.16669 4.72016 5.05335 3.8335 6.66669 3.8335H9.33335C10.9467 3.8335 11.8334 4.72016 11.8334 6.3335V9.66683C11.8334 11.2802 10.9467 12.1668 9.33335 12.1668ZM6.66669 4.8335C5.61335 4.8335 5.16669 5.28016 5.16669 6.3335V9.66683C5.16669 10.7202 5.61335 11.1668 6.66669 11.1668H9.33335C10.3867 11.1668 10.8334 10.7202 10.8334 9.66683V6.3335C10.8334 5.28016 10.3867 4.8335 9.33335 4.8335H6.66669Z" fill="#606CBF"/>
<path d="M12.6666 8.5H3.33331C3.05998 8.5 2.83331 8.27333 2.83331 8C2.83331 7.72667 3.05998 7.5 3.33331 7.5H12.6666C12.94 7.5 13.1666 7.72667 13.1666 8C13.1666 8.27333 12.94 8.5 12.6666 8.5Z" fill="#606CBF"/>
</svg>
