<svg width="31" height="24" viewBox="0 0 31 24" fill="none" xmlns="http://www.w3.org/2000/svg">
<path fill-rule="evenodd" clip-rule="evenodd" d="M12.0964 11.8863C11.7421 11.9497 11.2424 12.1137 10.4405 12.3804L4.38778 14.3988C3.6158 14.6562 3.07132 14.838 2.67973 14.9909C2.536 15.045 2.39532 15.107 2.25831 15.1764C2.17813 15.2183 2.15016 15.2417 2.1483 15.2417C2.0585 15.3286 1.98709 15.4327 1.93832 15.5478C1.88956 15.6628 1.86442 15.7865 1.86442 15.9115C1.86442 16.0365 1.88956 16.1602 1.93832 16.2753C1.98709 16.3904 2.0585 16.4945 2.1483 16.5814C2.18278 16.6069 2.21962 16.6291 2.25831 16.6476C2.35155 16.697 2.48674 16.7576 2.67973 16.834C3.07132 16.986 3.6158 17.1678 4.38778 17.4251L4.44 17.4428C4.69452 17.5268 4.91829 17.6013 5.12433 17.7104C5.62105 17.973 6.02716 18.3791 6.28976 18.8758C6.39885 19.0809 6.47343 19.3047 6.55734 19.5601L6.57599 19.6123C6.83238 20.3843 7.01419 20.9288 7.1671 21.3203C7.22082 21.4643 7.28276 21.605 7.35263 21.7418C7.39459 21.8219 7.4179 21.8499 7.4179 21.8518C7.50483 21.9416 7.60893 22.013 7.72401 22.0617C7.83909 22.1105 7.9628 22.1356 8.08778 22.1356C8.21277 22.1356 8.33648 22.1105 8.45156 22.0617C8.56664 22.013 8.67074 21.9416 8.75767 21.8518C8.78319 21.8173 8.80535 21.7804 8.82387 21.7418C8.87328 21.6485 8.93388 21.5133 9.01034 21.3194C9.16231 20.9278 9.34412 20.3843 9.60144 19.6133L11.6181 13.5616C11.8857 12.7598 12.0498 12.2582 12.1122 11.9049L12.1169 11.8835C12.1097 11.8847 12.1026 11.8859 12.0955 11.8872M11.7691 10.0515C12.2819 9.96009 12.9858 9.93306 13.5266 10.4738C14.0674 11.0145 14.0394 11.7175 13.949 12.2312C13.8594 12.7365 13.6478 13.3696 13.4101 14.0837L13.3877 14.1508L11.3701 20.2016L11.3608 20.2295C11.1146 20.9679 10.9188 21.5572 10.7464 21.9972C10.5851 22.4121 10.3939 22.841 10.1049 23.1412C9.84391 23.4127 9.53075 23.6288 9.18421 23.7763C8.83768 23.9239 8.4649 24 8.08825 24C7.71159 24 7.33882 23.9239 6.99228 23.7763C6.64575 23.6288 6.33259 23.4127 6.07159 23.1412C5.78257 22.841 5.59144 22.4121 5.43014 21.9972C5.25766 21.5572 5.06187 20.9679 4.8148 20.2286L4.80547 20.2025C4.69359 19.8659 4.66842 19.7988 4.64138 19.7475C4.55381 19.5818 4.41833 19.4463 4.25259 19.3588C4.20132 19.3308 4.13419 19.3065 3.79761 19.1937L3.77151 19.1844C3.03216 18.9383 2.44292 18.7425 2.00192 18.57C1.58796 18.4087 1.15908 18.2176 0.858869 17.9286C0.587301 17.6676 0.371245 17.3544 0.223659 17.0079C0.0760738 16.6614 0 16.2886 0 15.912C0 15.5353 0.0760738 15.1626 0.223659 14.8161C0.371245 14.4695 0.587301 14.1564 0.858869 13.8954C1.15908 13.6064 1.58796 13.4153 2.00192 13.254C2.58709 13.0356 3.1771 12.8304 3.77151 12.6386L3.79761 12.6293L9.84944 10.6127L9.91657 10.5903C10.6307 10.3526 11.2638 10.141 11.7691 10.0515Z" fill="black"/>
<path d="M31 17V0H17.0714V2.1084H16V3.1709H17.0714V5.3042H16V6.3667H17.0714V10.6167H16V11.6792H17.0714V13.8042H16V14.8667H17.0714V17H31ZM29.9286 15.9375H18.1429V1.0625H29.9286V15.9375ZM28.8571 12.75H23.5V13.8125H28.8571V12.75ZM28.8571 10.625H23.5V11.6875H28.8571V10.625ZM20.8214 3.2207C20.6038 3.2207 20.4001 3.25944 20.2104 3.33691C20.0206 3.41439 19.8532 3.52507 19.7081 3.66895C19.5631 3.81283 19.4515 3.97884 19.3733 4.16699C19.2952 4.35514 19.2533 4.5599 19.2478 4.78125C19.2478 4.99707 19.2868 5.19906 19.365 5.38721C19.4431 5.57536 19.5547 5.73861 19.6998 5.87695C19.8449 6.0153 20.0123 6.12874 20.202 6.21729C20.3917 6.30583 20.5982 6.34733 20.8214 6.3418C21.0391 6.3418 21.2427 6.30029 21.4325 6.21729C21.6222 6.13428 21.7868 6.0236 21.9263 5.88525C22.0658 5.74691 22.1802 5.58089 22.2695 5.38721C22.3588 5.19352 22.4007 4.99154 22.3951 4.78125C22.3951 4.56543 22.3532 4.36344 22.2695 4.17529C22.1858 3.98714 22.0742 3.82113 21.9347 3.67725C21.7952 3.53337 21.6278 3.42269 21.4325 3.34521C21.2372 3.26774 21.0335 3.22624 20.8214 3.2207ZM20.8214 5.3457C20.6596 5.3457 20.5257 5.29313 20.4196 5.18799C20.3136 5.08284 20.2578 4.94727 20.2522 4.78125C20.2522 4.62077 20.3052 4.48796 20.4113 4.38281C20.5173 4.27767 20.654 4.22233 20.8214 4.2168C20.9833 4.2168 21.1172 4.26937 21.2232 4.37451C21.3292 4.47966 21.385 4.61523 21.3906 4.78125C21.3906 4.94173 21.3376 5.07454 21.2316 5.17969C21.1256 5.28483 20.9888 5.34017 20.8214 5.3457ZM20.8214 10.6582C20.6038 10.6582 20.4001 10.6969 20.2104 10.7744C20.0206 10.8519 19.8532 10.9626 19.7081 11.1064C19.5631 11.2503 19.4515 11.4163 19.3733 11.6045C19.2952 11.7926 19.2533 11.9974 19.2478 12.2188C19.2478 12.4346 19.2868 12.6366 19.365 12.8247C19.4431 13.0129 19.5547 13.1761 19.6998 13.3145C19.8449 13.4528 20.0123 13.5662 20.202 13.6548C20.3917 13.7433 20.5982 13.7848 20.8214 13.7793C21.0391 13.7793 21.2427 13.7378 21.4325 13.6548C21.6222 13.5718 21.7868 13.4611 21.9263 13.3228C22.0658 13.1844 22.1802 13.0184 22.2695 12.8247C22.3588 12.631 22.4007 12.429 22.3951 12.2188C22.3951 12.0029 22.3532 11.8009 22.2695 11.6128C22.1858 11.4246 22.0742 11.2586 21.9347 11.1147C21.7952 10.9709 21.6278 10.8602 21.4325 10.7827C21.2372 10.7052 21.0335 10.6637 20.8214 10.6582ZM20.8214 12.7832C20.6596 12.7832 20.5257 12.7306 20.4196 12.6255C20.3136 12.5203 20.2578 12.3848 20.2522 12.2188C20.2522 12.0583 20.3052 11.9255 20.4113 11.8203C20.5173 11.7152 20.654 11.6598 20.8214 11.6543C20.9833 11.6543 21.1172 11.7069 21.2232 11.812C21.3292 11.9172 21.385 12.0527 21.3906 12.2188C21.3906 12.3792 21.3376 12.512 21.2316 12.6172C21.1256 12.7223 20.9888 12.7777 20.8214 12.7832ZM28.8571 5.3125H23.5V6.375H28.8571V5.3125ZM28.8571 3.1875H23.5V4.25H28.8571V3.1875Z" fill="black"/>
</svg>
