<svg width="24" height="25" viewBox="0 0 24 25" fill="none" xmlns="http://www.w3.org/2000/svg">
<path d="M14.438 25C14.6242 25 14.8056 24.94 14.9561 24.8286C15.1066 24.7173 15.2184 24.5603 15.2753 24.3804L16.2428 21.3286C16.6492 21.1268 17.0379 20.9 17.4091 20.6446L20.4979 21.3196C20.6801 21.3591 20.8698 21.3389 21.0399 21.2619C21.21 21.1848 21.3516 21.055 21.4443 20.8911L23.8823 16.6071C23.9754 16.4433 24.0149 16.2537 23.995 16.0656C23.975 15.8775 23.8968 15.7007 23.7715 15.5607L21.6519 13.1857C21.6828 12.7303 21.6828 12.2733 21.6519 11.8179L23.7715 9.43929C23.8968 9.29927 23.975 9.12248 23.995 8.93441C24.0149 8.74634 23.9754 8.55671 23.8823 8.39286L21.4443 4.10714C21.3513 3.94353 21.2096 3.81406 21.0396 3.73737C20.8695 3.66068 20.6799 3.64072 20.4979 3.68036L17.4091 4.35536C17.0397 4.10179 16.6492 3.87321 16.2446 3.67143L15.2753 0.619644C15.2184 0.439678 15.1066 0.282717 14.9561 0.171362C14.8056 0.0600071 14.6242 5.72205e-06 14.438 0H9.56196C9.37576 5.72205e-06 9.19435 0.0600071 9.04388 0.171362C8.89341 0.282717 8.78164 0.439678 8.72466 0.619644L7.75894 3.66964C7.35371 3.87085 6.96283 4.10057 6.58918 4.35714L3.50206 3.68036C3.31993 3.64088 3.13017 3.66111 2.9601 3.73813C2.79002 3.81515 2.64842 3.94498 2.55569 4.10893L0.117655 8.39286C0.0245565 8.55671 -0.014877 8.74634 0.00504009 8.93441C0.0249572 9.12248 0.103196 9.29927 0.228475 9.43929L2.34812 11.8179C2.31741 12.2721 2.31741 12.7279 2.34812 13.1821L0.228475 15.5607C0.103196 15.7007 0.0249572 15.8775 0.00504009 16.0656C-0.014877 16.2537 0.0245565 16.4433 0.117655 16.6071L2.55569 20.8929C2.64868 21.0565 2.79039 21.1859 2.96044 21.2626C3.13049 21.3393 3.32012 21.3593 3.50206 21.3196L6.58918 20.6429C6.9621 20.8982 7.3526 21.1286 7.75894 21.3304L8.72642 24.3804C8.78321 24.5597 8.89445 24.7163 9.04422 24.8276C9.19399 24.9389 9.3746 24.9992 9.5602 25H14.4363H14.438ZM13.7942 23.2143H10.2058L9.20664 20.0589L8.53292 19.725C8.20172 19.5605 7.882 19.3731 7.576 19.1643L6.9533 18.7357L3.75888 19.4357L1.96465 16.2786L4.15466 13.8179L4.10189 13.0607C4.0766 12.6873 4.0766 12.3127 4.10189 11.9393L4.15466 11.1821L1.96113 8.72143L3.75712 5.56429L6.95154 6.2625L7.57424 5.83571C7.88024 5.62686 8.19996 5.43952 8.53116 5.275L9.20488 4.94107L10.2058 1.78572H13.7977L14.8004 4.94286L15.4724 5.275C15.8032 5.43913 16.1224 5.62648 16.4275 5.83571L17.0485 6.2625L20.2446 5.56429L22.0389 8.72143L19.8471 11.1821L19.8999 11.9393C19.9252 12.3132 19.9252 12.6885 19.8999 13.0625L19.8471 13.8196L22.0406 16.2786L20.2446 19.4357L17.0485 18.7393L16.4275 19.1643C16.1224 19.3735 15.8032 19.5609 15.4724 19.725L14.8004 20.0571L13.796 23.2143H13.7942ZM12 17.8571C13.3996 17.8571 14.7418 17.2927 15.7315 16.2881C16.7212 15.2834 17.2771 13.9208 17.2771 12.5C17.2771 11.0792 16.7212 9.71659 15.7315 8.71193C14.7418 7.70727 13.3996 7.14286 12 7.14286C10.6004 7.14286 9.25816 7.70727 8.2685 8.71193C7.27885 9.71659 6.72287 11.0792 6.72287 12.5C6.72287 13.9208 7.27885 15.2834 8.2685 16.2881C9.25816 17.2927 10.6004 17.8571 12 17.8571ZM12 16.0714C11.0669 16.0714 10.1721 15.6952 9.51233 15.0254C8.85257 14.3556 8.48191 13.4472 8.48191 12.5C8.48191 11.5528 8.85257 10.6444 9.51233 9.97462C10.1721 9.30485 11.0669 8.92857 12 8.92857C12.9331 8.92857 13.8279 9.30485 14.4877 9.97462C15.1474 10.6444 15.5181 11.5528 15.5181 12.5C15.5181 13.4472 15.1474 14.3556 14.4877 15.0254C13.8279 15.6952 12.9331 16.0714 12 16.0714Z" fill="black"/>
</svg>
