<svg width="20" height="20" viewBox="0 0 20 20" fill="none" xmlns="http://www.w3.org/2000/svg">
<g clip-path="url(#clip0_119_790)">
<path d="M13.3336 6.66667C10.9986 6.66667 8.94106 7.87333 7.74939 9.695C7.26939 9.465 6.75106 9.30417 6.20606 9.22417L8.45522 6.225L6.60189 4.16583H4.23022L2.37689 6.225L4.62606 9.22417C2.01272 9.6075 -0.000610352 11.865 -0.000610352 14.5833C-0.000610352 17.57 2.42939 20 5.41606 20C6.85772 20 8.16856 19.4342 9.14022 18.5125C10.2861 19.4417 11.7452 20 13.3327 20C17.0086 20 19.9994 17.0092 19.9994 13.3333C19.9994 9.6575 17.0094 6.66667 13.3336 6.66667ZM4.60189 5H6.23106L7.37772 6.27417L5.41606 8.88917L3.45439 6.27417L4.60189 5ZM0.833556 14.5833C0.833556 12.0567 2.88939 10 5.41689 10C6.10189 10 6.75272 10.1517 7.33689 10.4225C6.90772 11.3025 6.66689 12.2908 6.66689 13.3333C6.66689 15.1225 7.37522 16.7483 8.52606 17.9475C7.70856 18.7042 6.61606 19.1667 5.41689 19.1667C2.88939 19.1667 0.833556 17.11 0.833556 14.5833ZM9.08606 17.3267C8.10356 16.2825 7.50022 14.8767 7.50022 13.3333C7.50022 12.4425 7.70106 11.5975 8.06022 10.8408C9.23356 11.6717 10.0002 13.04 10.0002 14.5833C10.0002 15.6117 9.66022 16.5617 9.08606 17.3267ZM13.3336 19.1667C11.9611 19.1667 10.6986 18.69 9.70106 17.8942C10.4111 16.9783 10.8336 15.8292 10.8336 14.5833C10.8336 12.7292 9.89689 11.09 8.47189 10.1133C9.51772 8.54 11.3061 7.5 13.3336 7.5C16.5502 7.5 19.1669 10.1175 19.1669 13.3333C19.1669 16.5492 16.5502 19.1667 13.3336 19.1667ZM7.97106 3.035L7.38189 2.44583L9.28939 0.539167L9.87856 1.12833L7.97106 3.035ZM2.83106 3.00333L0.955223 1.12833L1.54439 0.539167L3.41939 2.41417L2.83022 3.00333H2.83106ZM5.83439 2.5H5.00106V0H5.83439V2.5Z" fill="#1E3350"/>
</g>
<defs>
<clipPath id="clip0_119_790">
<rect width="20" height="20" fill="white"/>
</clipPath>
</defs>
</svg>
