<svg width="24" height="24" viewBox="0 0 24 24" fill="none" xmlns="http://www.w3.org/2000/svg">
<path d="M21 12.2202C21 6.73018 16.74 3.00018 12 3.00018C7.31 3.00018 3 6.65018 3 12.2802C2.4 12.6202 2 13.2602 2 14.0002V16.0002C2 17.1002 2.9 18.0002 4 18.0002C4.55 18.0002 5 17.5502 5 17.0002V12.1902C5 8.36018 7.95 5.01018 11.78 4.90018C12.7174 4.87168 13.6509 5.03162 14.5253 5.37053C15.3997 5.70944 16.1972 6.22042 16.8705 6.87319C17.5438 7.52597 18.0792 8.30726 18.445 9.17076C18.8108 10.0343 18.9995 10.9624 19 11.9002V19.0002H12C11.45 19.0002 11 19.4502 11 20.0002C11 20.5502 11.45 21.0002 12 21.0002H19C20.1 21.0002 21 20.1002 21 19.0002V17.7802C21.59 17.4702 22 16.8602 22 16.1402V13.8402C22 13.1402 21.59 12.5302 21 12.2202Z" fill="#D11317"/>
<path d="M9 14.0002C9.55228 14.0002 10 13.5525 10 13.0002C10 12.4479 9.55228 12.0002 9 12.0002C8.44772 12.0002 8 12.4479 8 13.0002C8 13.5525 8.44772 14.0002 9 14.0002Z" fill="#D11317"/>
<path d="M15 14.0002C15.5523 14.0002 16 13.5525 16 13.0002C16 12.4479 15.5523 12.0002 15 12.0002C14.4477 12.0002 14 12.4479 14 13.0002C14 13.5525 14.4477 14.0002 15 14.0002Z" fill="#D11317"/>
<path d="M18.0005 11.0302C17.762 9.62432 17.0339 8.34815 15.9449 7.42756C14.8559 6.50698 13.4764 6.00135 12.0505 6.00018C9.02046 6.00018 5.76046 8.51018 6.02046 12.4502C7.25359 11.9456 8.3427 11.1437 9.19069 10.116C10.0387 9.08826 10.6192 7.8667 10.8805 6.56018C12.1905 9.19018 14.8805 11.0002 18.0005 11.0302Z" fill="#D11317"/>
</svg>
