<svg width="16" height="16" viewBox="0 0 16 16" fill="none" xmlns="http://www.w3.org/2000/svg">
<path d="M10.6667 15.1668H5.33333C2.9 15.1668 1.5 13.7668 1.5 11.3335V4.66683C1.5 2.2335 2.9 0.833496 5.33333 0.833496H10.6667C13.1 0.833496 14.5 2.2335 14.5 4.66683V11.3335C14.5 13.7668 13.1 15.1668 10.6667 15.1668ZM5.33333 1.8335C3.42667 1.8335 2.5 2.76016 2.5 4.66683V11.3335C2.5 13.2402 3.42667 14.1668 5.33333 14.1668H10.6667C12.5733 14.1668 13.5 13.2402 13.5 11.3335V4.66683C13.5 2.76016 12.5733 1.8335 10.6667 1.8335H5.33333Z" fill="#606CBF"/>
<path d="M5.99984 7.40682C5.8865 7.40682 5.77317 7.38684 5.6665 7.34017C5.35984 7.20684 5.1665 6.90683 5.1665 6.58016V1.3335C5.1665 1.06016 5.39317 0.833496 5.6665 0.833496H10.3332C10.6065 0.833496 10.8332 1.06016 10.8332 1.3335V6.57349C10.8332 6.90682 10.6398 7.20683 10.3332 7.3335C10.0332 7.46683 9.67985 7.40684 9.43319 7.18018L7.99984 5.86682L6.56649 7.18685C6.40649 7.33352 6.2065 7.40682 5.99984 7.40682ZM7.99984 4.80684C8.19984 4.80684 8.40649 4.88015 8.56649 5.02681L9.83317 6.19348V1.8335H6.1665V6.19348L7.43319 5.02681C7.59319 4.88015 7.79984 4.80684 7.99984 4.80684Z" fill="#606CBF"/>
<path d="M11.6668 9.8335H8.8335C8.56016 9.8335 8.3335 9.60683 8.3335 9.3335C8.3335 9.06016 8.56016 8.8335 8.8335 8.8335H11.6668C11.9402 8.8335 12.1668 9.06016 12.1668 9.3335C12.1668 9.60683 11.9402 9.8335 11.6668 9.8335Z" fill="#606CBF"/>
<path d="M11.6667 12.5H6C5.72667 12.5 5.5 12.2733 5.5 12C5.5 11.7267 5.72667 11.5 6 11.5H11.6667C11.94 11.5 12.1667 11.7267 12.1667 12C12.1667 12.2733 11.94 12.5 11.6667 12.5Z" fill="#606CBF"/>
</svg>
