<svg width="95" height="51" viewBox="0 0 95 51" fill="none" xmlns="http://www.w3.org/2000/svg">
<path d="M73.1139 37.0962C71.6641 38.0781 70.0759 38.8887 68.402 39.5148C68.1449 39.607 68.0131 39.897 68.112 40.1474C68.1845 40.3451 68.3756 40.4704 68.5733 40.4704C68.6326 40.4704 68.6853 40.4638 68.7447 40.4374C70.4976 39.785 72.1518 38.9348 73.6675 37.9134C73.8916 37.7618 73.9509 37.4521 73.7993 37.228C73.6477 37.0039 73.338 36.9446 73.1139 37.0962Z" fill="#5FC1CF"/>
<path d="M77.2264 41.8148C79.3682 40.5429 80.9564 38.9744 81.912 37.8804C82.09 37.6761 82.0702 37.3598 81.8659 37.1819C81.6616 37.0039 81.3453 37.0237 81.1673 37.228C80.2645 38.2693 78.7553 39.7586 76.7256 40.9646C76.4883 41.103 76.4158 41.4062 76.5542 41.6434C76.6465 41.8016 76.8112 41.8873 76.9826 41.8873C77.0617 41.8807 77.1473 41.8609 77.2264 41.8148Z" fill="#5FC1CF"/>
<path d="M85.3916 37.0961C85.6222 36.7402 85.6749 36.2921 85.53 35.8967C84.983 34.4271 84.0999 33.0761 82.973 31.9821C82.716 31.7317 82.3799 31.6065 82.024 31.6197C81.9581 31.277 81.7604 30.9607 81.4441 30.7432C79.9942 29.7679 78.3071 29.155 76.5673 28.9836C76.0797 28.9309 75.6184 29.1616 75.3482 29.5701C74.3794 29.5174 73.5095 28.9045 73.1602 28.0017C72.9362 27.4349 72.7516 26.7825 72.5671 25.5765C75.3152 24.3705 77.4438 21.5367 78.2083 17.9978C79.4736 17.9319 80.4819 16.8907 80.4819 15.6122C80.4819 14.5709 79.8295 13.6813 78.8805 13.3518C79.3813 10.2807 79.0518 8.0928 77.8656 6.85385C76.9298 5.87851 75.7502 5.77307 75.1307 5.79943C74.0104 3.29517 70.7416 3.29517 69.6345 3.29517C65.5749 3.29517 62.7478 4.41549 61.2386 6.6232C59.7295 8.83749 59.9008 11.6054 60.2633 13.4111C59.3868 13.7801 58.7937 14.6237 58.7937 15.6122C58.7937 16.8907 59.802 17.9253 61.0673 17.9978C61.8317 21.5367 63.9604 24.3771 66.7084 25.5831C66.5107 26.8616 66.3065 27.5074 66.1153 28.0083C65.7529 28.9573 64.8171 29.5899 63.789 29.5899C58.2401 29.5899 53.7192 34.1042 53.7192 39.6597V44.9779C53.7192 45.2481 53.9433 45.4722 54.2135 45.4722C54.4837 45.4722 54.7078 45.2481 54.7078 44.9779V39.6597C54.7078 34.6512 58.7805 30.5784 63.789 30.5784C65.2191 30.5784 66.5239 29.6888 67.038 28.3641C67.2357 27.8435 67.4531 27.1845 67.6508 25.9324C68.2901 26.1169 68.9491 26.2223 69.6279 26.2223C70.3133 26.2223 70.9723 26.1169 71.6115 25.9324C71.8092 27.1911 72.0267 27.8501 72.231 28.3707C72.6725 29.4977 73.6874 30.3082 74.8671 30.5191C73.6149 32.8455 70.2276 36.8786 61.634 38.3548V38.0121C61.634 37.7419 61.41 37.5179 61.1398 37.5179C60.8696 37.5179 60.6455 37.7419 60.6455 38.0121V44.9845C60.6455 45.2547 60.8696 45.4788 61.1398 45.4788C61.41 45.4788 61.634 45.2547 61.634 44.9845V44.3255C74.4123 43.2843 80.1063 35.5474 81.734 32.7927C81.7933 32.6939 81.8922 32.628 82.0042 32.6148C82.0635 32.6082 82.1822 32.6082 82.2876 32.7071C83.3091 33.6956 84.1131 34.9279 84.6073 36.2592C84.6469 36.3646 84.6337 36.4766 84.5678 36.5689C84.3503 36.905 84.0999 37.2543 83.8297 37.6101C82.4128 39.4949 79.3154 42.9021 74.5244 44.5166C74.2674 44.6023 74.129 44.8857 74.2146 45.1427C74.2805 45.3404 74.4717 45.4722 74.676 45.4722C74.7287 45.4722 74.7814 45.4656 74.8341 45.4459C79.724 43.7983 82.9268 40.3912 84.4689 38.3812C84.5283 38.803 84.5612 39.2247 84.5612 39.6531V44.9714C84.5612 45.2416 84.7853 45.4656 85.0555 45.4656C85.3257 45.4656 85.5497 45.2416 85.5497 44.9714V39.6531C85.5497 38.8491 85.4509 38.0517 85.2663 37.2806C85.3059 37.2213 85.352 37.162 85.3916 37.0961ZM79.4934 15.6122C79.4934 16.2844 79.0189 16.8445 78.3796 16.9895C78.4587 16.3964 78.5114 15.7967 78.5114 15.1772C78.5773 14.8939 78.6301 14.6237 78.6894 14.3469C79.1704 14.5775 79.4934 15.0586 79.4934 15.6122ZM62.0558 7.17677C63.3672 5.25903 65.9176 4.28369 69.6345 4.28369C72.3101 4.28369 73.8522 5.00202 74.3399 6.48481C74.4189 6.72205 74.6562 6.86044 74.9 6.81431C74.9527 6.80772 76.2444 6.57707 77.1604 7.54582C77.7931 8.21143 78.373 9.59536 78.0172 12.4621C77.3845 10.9002 76.1917 9.87215 74.8012 9.87215C74.1817 9.87215 73.3909 9.93805 72.7121 10.4389C71.7433 11.1572 70.9196 11.5131 70.1353 11.5592C69.7992 11.579 69.4565 11.579 69.1204 11.5592C68.323 11.5131 67.5059 11.1572 66.5569 10.4455C65.8517 9.93146 65.0214 9.87215 64.4546 9.87215C63.018 9.87215 61.7658 11.0452 61.1529 12.7521C60.9025 11.1309 60.8696 8.90999 62.0558 7.17677ZM59.7822 15.6122C59.7822 15.0916 60.0656 14.6302 60.4939 14.3864C60.606 14.7884 60.7048 15.0784 60.7575 15.2168C60.7641 15.8231 60.8103 16.4096 60.8893 16.9895C60.2567 16.8511 59.7822 16.2844 59.7822 15.6122ZM61.7461 15.1311V15.1245C61.7461 12.8114 62.985 10.8607 64.4546 10.8607C65.14 10.8607 65.6079 10.9793 65.9704 11.2429C67.0841 12.0733 68.066 12.4884 69.0677 12.5478C69.4434 12.5675 69.8256 12.5675 70.1946 12.5478C71.4929 12.4687 72.5935 11.7569 73.3052 11.2297C73.6545 10.9661 74.1026 10.8541 74.8012 10.8541C76.3037 10.8541 77.5229 12.7652 77.5229 15.1179V15.1245C77.5163 20.6932 73.9774 25.214 69.6279 25.214C65.285 25.2272 61.7526 20.6998 61.7461 15.1311ZM61.634 43.3238V39.3499C70.7812 37.8342 74.4058 33.4649 75.7502 30.9739C75.8885 30.7102 75.994 30.4862 76.0797 30.2885C76.0797 30.2819 76.0863 30.2819 76.0863 30.2753C76.0928 30.2555 76.1126 30.2226 76.1192 30.2028C76.1851 30.0578 76.3235 29.9656 76.4619 29.9721C78.0369 30.1303 79.5659 30.6773 80.8839 31.567C81.0486 31.679 81.1014 31.8899 81.0091 32.0546C79.6515 34.4535 74.2608 42.2628 61.634 43.3238Z" fill="#5FC1CF"/>
<g clip-path="url(#clip0_207_2096)">
<path d="M35.9924 29.2649H34.7663C34.3808 29.2649 34.0684 29.5697 34.0684 29.9458C34.0685 30.3219 34.3809 30.6267 34.7663 30.6267H35.9924C36.3779 30.6267 36.6903 30.3219 36.6903 29.9458C36.6903 29.5697 36.3779 29.2649 35.9924 29.2649Z" fill="#5FC1CF"/>
<path d="M47.6038 25.3901C47.5992 25.2755 47.5859 25.161 47.5631 25.049L45.9995 17.3286C45.9994 17.3283 45.9993 17.3281 45.9993 17.3278L45.6889 15.7954C45.4805 14.7662 44.5486 14.019 43.4732 14.019H2.2651C1.01609 14.019 0 15.0104 0 16.2289V34.4254C0 35.6439 1.01609 36.6352 2.2651 36.6352H4.47571C4.81276 38.7785 6.71561 40.4253 9.00525 40.4253C11.2949 40.4253 13.1977 38.7786 13.5348 36.6352H15.3321C15.7175 36.6352 16.03 36.3305 16.03 35.9544C16.03 35.5783 15.7176 35.2735 15.3321 35.2735H13.5347C13.1976 33.1303 11.2948 31.4835 9.00516 31.4835C6.71551 31.4835 4.81267 33.1302 4.47561 35.2735H2.2651C1.78569 35.2735 1.39573 34.8929 1.39573 34.4253V16.2289C1.39573 15.7612 1.78569 15.3806 2.2651 15.3806H43.4731C43.8839 15.3806 44.2398 15.666 44.3196 16.0593L44.4655 16.7797H35.3023C34.622 16.7797 34.0686 17.3196 34.0686 17.9833V25.3269C34.0686 26.0178 34.4076 26.6732 34.9754 27.08C36.3423 28.0597 39.3985 29.2704 46.2102 29.5701V34.1392C46.2102 34.7648 45.6885 35.2736 45.0474 35.2736H43.1302C42.793 33.1305 40.8903 31.4837 38.6006 31.4837C36.3109 31.4837 34.4082 33.1304 34.071 35.2736H18.5794C18.194 35.2736 17.8815 35.5784 17.8815 35.9545C17.8815 36.3306 18.1939 36.6354 18.5794 36.6354H34.0712C34.4082 38.7787 36.3111 40.4255 38.6007 40.4255C40.8905 40.4255 42.7932 38.7788 43.1304 36.6354H45.0475C46.4583 36.6354 47.6061 35.5157 47.6061 34.1393V25.4763V25.4762C47.606 25.4474 47.605 25.4187 47.6038 25.3901ZM9.00525 32.8454C10.7625 32.8454 12.1921 34.2401 12.1921 35.9544C12.1921 37.6688 10.7625 39.0636 9.00525 39.0636C7.24801 39.0636 5.81844 37.6688 5.81844 35.9544C5.81844 34.2401 7.24801 32.8454 9.00525 32.8454ZM38.6007 39.0635C36.8435 39.0635 35.4139 37.6687 35.4139 35.9544C35.4139 34.24 36.8435 32.8453 38.6007 32.8453C40.358 32.8453 41.7876 34.24 41.7876 35.9544C41.7876 37.6687 40.358 39.0635 38.6007 39.0635ZM35.4644 25.3269V18.1415H44.7413L46.1938 25.3133C46.1964 25.3261 46.1977 25.3392 46.1997 25.3521C46.2054 25.39 46.2091 25.4282 46.2096 25.4663C46.2096 25.4697 46.2101 25.473 46.2101 25.4762V28.207C39.4501 27.9029 36.7929 26.693 35.8018 25.9826C35.5906 25.8312 35.4644 25.5861 35.4644 25.3269Z" fill="#5FC1CF"/>
<path d="M15.8845 16.7795H4.20242C3.58866 16.7795 3.08936 17.2667 3.08936 17.8655V25.5271C3.08936 26.1258 3.58866 26.613 4.20242 26.613H15.8845C16.4983 26.613 16.9976 26.1258 16.9976 25.5271V17.8655C16.9976 17.2667 16.4983 16.7795 15.8845 16.7795ZM9.34554 25.2513H4.48508V18.1412H9.34554V25.2513ZM15.6018 25.2513H10.7414V18.1412H15.6018V25.2513Z" fill="#5FC1CF"/>
<path d="M31.2039 16.7795H19.5218C18.908 16.7795 18.4087 17.2667 18.4087 17.8655V25.5271C18.4087 26.1258 18.908 26.613 19.5218 26.613H31.2039C31.8177 26.613 32.317 26.1258 32.317 25.5271V17.8655C32.317 17.2667 31.8177 16.7795 31.2039 16.7795ZM30.9213 25.2513H26.0607V22.6708C26.0607 22.2947 25.7483 21.9899 25.3628 21.9899C24.9773 21.9899 24.6649 22.2947 24.6649 22.6708V25.2513H19.8044V18.1412H24.6649V19.5026C24.6649 19.8787 24.9773 20.1835 25.3628 20.1835C25.7483 20.1835 26.0607 19.8787 26.0607 19.5026V18.1412H30.9213V25.2513Z" fill="#5FC1CF"/>
</g>
<defs>
<clipPath id="clip0_207_2096">
<rect width="47.6061" height="46.445" fill="white" transform="translate(0 3.99976)"/>
</clipPath>
</defs>
</svg>
