<svg width="20" height="20" viewBox="0 0 20 20" fill="none" xmlns="http://www.w3.org/2000/svg">
<path d="M19.8217 16.2434L13.9275 1.53005C13.4075 0.255887 11.9475 -0.36078 10.6683 0.15922L9.8975 0.47422C9.69 0.55922 9.50417 0.677554 9.33083 0.80922C8.87417 0.31422 8.22583 -0.000779675 7.50083 -0.000779675H2.5C1.12167 5.36572e-05 0 1.12172 0 2.50005V17.5001C0 18.8784 1.12167 20.0001 2.5 20.0001H7.5C8.87833 20.0001 10 18.8784 10 17.5001V7.41255L14.42 18.4476C14.9408 19.7334 16.4342 20.3309 17.6775 19.8151L18.4492 19.5001C19.7033 19.0217 20.3542 17.4709 19.8217 16.2434ZM11.3117 6.20505L13.6267 5.26172L17.1025 13.9384L14.7875 14.8817L11.3117 6.20505ZM10.5267 2.01755L11.2975 1.70255C11.7108 1.53089 12.2117 1.72839 12.3825 2.15505L13.0075 3.71422L10.6933 4.65755L10.0708 3.10255C9.8975 2.67755 10.1025 2.19005 10.5283 2.01672L10.5267 2.01755ZM1.66667 5.83339H4.16667V14.1667H1.66667V5.83339ZM5.83333 5.83339H8.33333V14.1667H5.83333V5.83339ZM8.33333 2.50005V4.16672H5.83333V1.66672H7.5C7.95917 1.66672 8.33333 2.04005 8.33333 2.50005ZM2.5 1.66672H4.16667V4.16672H1.66667V2.50005C1.66667 2.04005 2.04083 1.66672 2.5 1.66672ZM1.66667 17.5001V15.8334H4.16667V18.3334H2.5C2.04083 18.3334 1.66667 17.9601 1.66667 17.5001ZM7.5 18.3334H5.83333V15.8334H8.33333V17.5001C8.33333 17.9601 7.95917 18.3334 7.5 18.3334ZM18.2742 17.5076C18.1875 17.7134 18.0267 17.8726 17.8208 17.9567L17.0492 18.2717C16.6233 18.4434 16.1367 18.2409 15.9658 17.8217L15.4083 16.4292L17.7233 15.4859L18.2775 16.8701C18.3625 17.0759 18.3617 17.3034 18.275 17.5084L18.2742 17.5076Z" fill="#1E3350"/>
</svg>
