<svg width="16" height="16" viewBox="0 0 16 16" fill="none" xmlns="http://www.w3.org/2000/svg">
<path d="M8 9.1665C7.72667 9.1665 7.5 8.93984 7.5 8.6665V5.1665C7.5 4.89317 7.72667 4.6665 8 4.6665C8.27333 4.6665 8.5 4.89317 8.5 5.1665V8.6665C8.5 8.93984 8.27333 9.1665 8 9.1665Z" fill="#606CBF"/>
<path d="M7.99998 11.4998C7.81998 11.4998 7.6533 11.4332 7.52663 11.3065C7.46663 11.2398 7.41998 11.1665 7.37998 11.0865C7.34665 11.0065 7.33331 10.9198 7.33331 10.8332C7.33331 10.6598 7.40663 10.4865 7.52663 10.3598C7.7733 10.1131 8.22666 10.1131 8.47333 10.3598C8.59333 10.4865 8.66665 10.6598 8.66665 10.8332C8.66665 10.9198 8.64664 11.0065 8.6133 11.0865C8.57997 11.1665 8.53333 11.2398 8.47333 11.3065C8.34666 11.4332 8.17998 11.4998 7.99998 11.4998Z" fill="#606CBF"/>
<path d="M8.00014 15.1667C7.55348 15.1667 7.10013 15.0534 6.70013 14.8201L2.74013 12.5334C1.94013 12.0667 1.44012 11.2067 1.44012 10.2801V5.72008C1.44012 4.79341 1.94013 3.93341 2.74013 3.46674L6.70013 1.18008C7.50013 0.713411 8.49348 0.713411 9.30015 1.18008L13.2602 3.46674C14.0602 3.93341 14.5602 4.79341 14.5602 5.72008V10.2801C14.5602 11.2067 14.0602 12.0667 13.2602 12.5334L9.30015 14.8201C8.90015 15.0534 8.44681 15.1667 8.00014 15.1667ZM8.00014 1.8334C7.72681 1.8334 7.4468 1.90674 7.20013 2.04674L3.24013 4.3334C2.7468 4.62006 2.44012 5.14674 2.44012 5.72008V10.2801C2.44012 10.8467 2.7468 11.3801 3.24013 11.6667L7.20013 13.9534C7.69347 14.2401 8.30681 14.2401 8.79348 13.9534L12.7535 11.6667C13.2468 11.3801 13.5535 10.8534 13.5535 10.2801V5.72008C13.5535 5.15341 13.2468 4.62006 12.7535 4.3334L8.79348 2.04674C8.55348 1.90674 8.27348 1.8334 8.00014 1.8334Z" fill="#606CBF"/>
</svg>
