<svg width="50" height="50" viewBox="0 0 50 50" fill="none" xmlns="http://www.w3.org/2000/svg">
<circle cx="25" cy="25" r="25" fill="black" fill-opacity="0.03"/>
<path d="M32.0498 17.9101C31.133 16.984 30.041 16.2497 28.8374 15.7501C27.6339 15.2505 26.3429 14.9955 25.0398 15.0001C19.5798 15.0001 15.1298 19.4501 15.1298 24.9101C15.1298 26.6601 15.5898 28.3601 16.4498 29.8601L15.0498 35.0001L20.2998 33.6201C21.7498 34.4101 23.3798 34.8301 25.0398 34.8301C30.4998 34.8301 34.9498 30.3801 34.9498 24.9201C34.9498 22.2701 33.9198 19.7801 32.0498 17.9101ZM25.0398 33.1501C23.5598 33.1501 22.1098 32.7501 20.8398 32.0001L20.5398 31.8201L17.4198 32.6401L18.2498 29.6001L18.0498 29.2901C17.2276 27.977 16.7909 26.4593 16.7898 24.9101C16.7898 20.3701 20.4898 16.6701 25.0298 16.6701C27.2298 16.6701 29.2998 17.5301 30.8498 19.0901C31.6173 19.854 32.2255 20.7627 32.6392 21.7635C33.0529 22.7642 33.2638 23.8372 33.2598 24.9201C33.2798 29.4601 29.5798 33.1501 25.0398 33.1501ZM29.5598 26.9901C29.3098 26.8701 28.0898 26.2701 27.8698 26.1801C27.6398 26.1001 27.4798 26.0601 27.3098 26.3001C27.1398 26.5501 26.6698 27.1101 26.5298 27.2701C26.3898 27.4401 26.2398 27.4601 25.9898 27.3301C25.7398 27.2101 24.9398 26.9401 23.9998 26.1001C23.2598 25.4401 22.7698 24.6301 22.6198 24.3801C22.4798 24.1301 22.5998 24.0001 22.7298 23.8701C22.8398 23.7601 22.9798 23.5801 23.0998 23.4401C23.2198 23.3001 23.2698 23.1901 23.3498 23.0301C23.4298 22.8601 23.3898 22.7201 23.3298 22.6001C23.2698 22.4801 22.7698 21.2601 22.5698 20.7601C22.3698 20.2801 22.1598 20.3401 22.0098 20.3301H21.5298C21.3598 20.3301 21.0998 20.3901 20.8698 20.6401C20.6498 20.8901 20.0098 21.4901 20.0098 22.7101C20.0098 23.9301 20.8998 25.1101 21.0198 25.2701C21.1398 25.4401 22.7698 27.9401 25.2498 29.0101C25.8398 29.2701 26.2998 29.4201 26.6598 29.5301C27.2498 29.7201 27.7898 29.6901 28.2198 29.6301C28.6998 29.5601 29.6898 29.0301 29.8898 28.4501C30.0998 27.8701 30.0998 27.3801 30.0298 27.2701C29.9598 27.1601 29.8098 27.1101 29.5598 26.9901Z" fill="#D11317"/>
</svg>
