<svg width="31" height="31" viewBox="0 0 31 31" fill="none" xmlns="http://www.w3.org/2000/svg">
<path d="M25.7814 5.1604C24.4444 3.80988 22.8519 2.73908 21.0967 2.01048C19.3416 1.28187 17.4589 0.910031 15.5585 0.916652C7.596 0.916652 1.10641 7.40623 1.10641 15.3687C1.10641 17.9208 1.77725 20.4 3.03141 22.5875L0.989746 30.0833L8.646 28.0708C10.7606 29.2229 13.1377 29.8354 15.5585 29.8354C23.521 29.8354 30.0106 23.3458 30.0106 15.3833C30.0106 11.5187 28.5085 7.88748 25.7814 5.1604ZM15.5585 27.3854C13.4002 27.3854 11.2856 26.8021 9.4335 25.7083L8.996 25.4458L4.446 26.6416L5.65641 22.2083L5.36475 21.7562C4.16563 19.8414 3.52891 17.628 3.52725 15.3687C3.52725 8.7479 8.92308 3.35207 15.5439 3.35207C18.7522 3.35207 21.771 4.60624 24.0314 6.88124C25.1507 7.99535 26.0376 9.32053 26.6409 10.78C27.2442 12.2394 27.5519 13.8041 27.546 15.3833C27.5752 22.0042 22.1793 27.3854 15.5585 27.3854ZM22.1502 18.4021C21.7856 18.2271 20.0064 17.3521 19.6856 17.2208C19.3502 17.1042 19.1168 17.0458 18.8689 17.3958C18.621 17.7604 17.9356 18.5771 17.7314 18.8104C17.5272 19.0583 17.3085 19.0875 16.9439 18.8979C16.5793 18.7229 15.4127 18.3292 14.0418 17.1042C12.9627 16.1417 12.2481 14.9604 12.0293 14.5958C11.8252 14.2312 12.0002 14.0416 12.1897 13.8521C12.3502 13.6917 12.5543 13.4291 12.7293 13.225C12.9043 13.0208 12.9772 12.8604 13.0939 12.6271C13.2106 12.3792 13.1522 12.175 13.0647 12C12.9772 11.825 12.2481 10.0458 11.9564 9.31665C11.6647 8.61665 11.3585 8.70415 11.1397 8.68957H10.4397C10.1918 8.68957 9.81266 8.77707 9.47725 9.14165C9.15641 9.50623 8.22308 10.3812 8.22308 12.1604C8.22308 13.9396 9.521 15.6604 9.696 15.8937C9.871 16.1417 12.2481 19.7875 15.8647 21.3479C16.7252 21.7271 17.396 21.9458 17.921 22.1062C18.7814 22.3833 19.5689 22.3396 20.196 22.2521C20.896 22.15 22.3397 21.3771 22.6314 20.5312C22.9377 19.6854 22.9377 18.9708 22.8356 18.8104C22.7335 18.65 22.5147 18.5771 22.1502 18.4021Z" fill="#D11317"/>
</svg>
