<svg width="20" height="20" viewBox="0 0 20 20" fill="none" xmlns="http://www.w3.org/2000/svg">
<g clip-path="url(#clip0_119_766)">
<path d="M1.66663 18.3334H18.3333" stroke="#1E3350" stroke-width="1.5" stroke-linecap="round" stroke-linejoin="round"/>
<path d="M2.59167 18.3334V10.8334C2.59167 9.45004 3.83334 8.33337 5.36668 8.33337H14.625C16.1583 8.33337 17.4 9.45004 17.4 10.8334V18.3334" stroke="#1E3350" stroke-width="1.5" stroke-linecap="round" stroke-linejoin="round"/>
<path d="M4.63342 8.33329V5.97496C4.63342 4.97496 5.53342 4.16663 6.65009 4.16663H13.3585C14.4668 4.16663 15.3668 4.97496 15.3668 5.97496V8.33329" stroke="#1E3350" stroke-width="1.5" stroke-linecap="round" stroke-linejoin="round"/>
<path d="M2.94165 11.65L3.24998 11.6584C3.86665 11.6667 4.35832 12.1667 4.35832 12.7834V13.0584C4.35832 13.675 4.85832 14.1834 5.48332 14.1834C6.09998 14.1834 6.60832 13.6834 6.60832 13.0584V12.8C6.60832 12.1834 7.10832 11.675 7.73332 11.675C8.34996 11.675 8.85829 12.175 8.85829 12.8V13.0584C8.85829 13.675 9.35829 14.1834 9.98329 14.1834C10.6 14.1834 11.1083 13.6834 11.1083 13.0584V12.8C11.1083 12.1834 11.6083 11.675 12.2333 11.675C12.85 11.675 13.3583 12.175 13.3583 12.8V13.0584C13.3583 13.675 13.8583 14.1834 14.4833 14.1834C15.1 14.1834 15.6083 13.6834 15.6083 13.0584V12.8C15.6083 12.1834 16.1083 11.675 16.7333 11.675H17.1083" stroke="#1E3350" stroke-width="1.5" stroke-linecap="round" stroke-linejoin="round"/>
<path d="M6.66663 4.16667V2.5" stroke="#1E3350" stroke-width="1.5" stroke-linecap="round" stroke-linejoin="round"/>
<path d="M13.3334 4.16667V2.5" stroke="#1E3350" stroke-width="1.5" stroke-linecap="round" stroke-linejoin="round"/>
<path d="M10 4.16663V1.66663" stroke="#1E3350" stroke-width="1.5" stroke-linecap="round" stroke-linejoin="round"/>
</g>
<defs>
<clipPath id="clip0_119_766">
<rect width="20" height="20" fill="white"/>
</clipPath>
</defs>
</svg>
